<svg t="1743061742575" class="icon" viewBox="0 0 1024 1024" version="1.1" xmlns="http://www.w3.org/2000/svg" p-id="8910" width="128" height="128"><path d="M640 64a320 320 0 0 1 0 640v128a128 128 0 0 1-128 128H192a128 128 0 0 1-128-128V512a128 128 0 0 1 128-128h128a320 320 0 0 1 320-320zM326.4 448.064L192 448a64 64 0 0 0-64 64v320a64 64 0 0 0 64 64h320a64 64 0 0 0 64-64v-134.4l-3.776-0.768a320.448 320.448 0 0 1-245.056-245.056L326.4 448.064zM640 512v128a256 256 0 1 0-256-256h128a128 128 0 0 1 128 128z" fill="#515151" p-id="8911"></path></svg>