<svg width="200" height="200" viewBox="0 0 200 200" fill="none" xmlns="http://www.w3.org/2000/svg">
<path d="M74.9998 25L78.9823 37.2761C90.1328 71.4925 116.15 99.0485 150 112.5C116.15 125.951 90.1328 153.508 78.9823 187.724L74.9998 200L71.0177 187.724C59.8672 153.508 33.8495 125.951 0 112.5C33.8495 99.0485 59.8672 71.4925 71.0177 37.2761L74.9998 25Z" fill="#69DA00"/>
<path d="M125 0L125.664 2.63058C127.522 9.96268 131.858 15.8675 137.5 18.75C131.858 21.6325 127.522 27.5373 125.664 34.8694L125 37.5L124.336 34.8694C122.478 27.5373 118.142 21.6325 112.5 18.75C118.142 15.8675 122.478 9.96268 124.336 2.63058L125 0Z" fill="#69DA00"/>
<path d="M175 50L176.327 55.2612C180.044 69.9254 188.717 81.7351 200 87.5C188.717 93.2649 180.044 105.075 176.327 119.739L175 125L173.673 119.739C169.956 105.075 161.283 93.2649 150 87.5C161.283 81.7351 169.956 69.9254 173.673 55.2612L175 50Z" fill="#69DA00"/>
</svg>
