<svg width="200" height="200" viewBox="0 0 200 200" fill="none" xmlns="http://www.w3.org/2000/svg">
<path d="M100 200C155.228 200 200 155.228 200 100C200 44.7715 155.228 0 100 0C44.7715 0 0 44.7715 0 100C0 155.228 44.7715 200 100 200Z" fill="#F6F5FA"/>
<path d="M72.1745 92.8149C72.4003 92.8149 72.76 92.1626 73.0694 91.7695C72.8352 91.4517 72.6261 92.4051 72.1745 92.8149ZM137.408 152.194C137.258 151.902 137.057 151.575 137.224 151.5C137.717 151.838 138.156 152.247 138.529 152.713C138.395 153.123 137.626 151.893 137.425 152.186L137.408 152.194ZM70.1088 95.4912C69.8495 95.4912 69.3226 96.5115 69.0968 96.4278C69.5903 95.901 70.0001 95.1064 70.2677 94.8137C70.4601 94.8305 70.0252 95.4159 70.1255 95.4828L70.1088 95.4912ZM58.4002 108.346C57.3774 109.483 56.2581 110.529 55.0548 111.473C56.0501 110.353 57.3297 109.542 58.442 108.337L58.4002 108.346ZM53.884 110.47C53.8489 110.44 53.8082 110.418 53.7643 110.405C53.7203 110.392 53.6742 110.388 53.6288 110.394C53.5833 110.399 53.5394 110.414 53.4999 110.437C53.4603 110.46 53.426 110.491 53.3989 110.528C53.2815 110.693 53.228 110.896 53.2484 111.097C53.2513 111.197 53.2828 111.295 53.3391 111.378C53.3953 111.461 53.4741 111.526 53.5662 111.565C53.7219 111.631 53.8921 111.654 54.0596 111.632C54.344 111.632 54.4945 111.515 54.4192 111.565C54.3236 111.62 54.2187 111.657 54.1098 111.674C53.9823 111.709 53.8479 111.709 53.7202 111.675C53.5925 111.642 53.4759 111.575 53.3822 111.482C53.3166 111.375 53.2758 111.255 53.2628 111.131C53.2498 111.006 53.2648 110.88 53.3069 110.763C53.3528 110.643 53.4347 110.541 53.5411 110.47C53.5923 110.437 53.6518 110.42 53.7125 110.42C53.7733 110.42 53.8328 110.437 53.884 110.47ZM63.6691 98.6943C63.3894 99.2734 62.997 99.7909 62.5149 100.216C62.8549 99.6793 63.2411 99.1728 63.6691 98.7027V98.6943ZM58.902 104.381C58.6678 104.306 59.0274 103.888 59.4289 103.436C59.3421 103.796 59.1601 104.125 58.902 104.39V104.381ZM65.6679 94.9475C65.4839 94.8723 66.4206 93.8938 66.2282 93.8101C66.7133 93.3251 65.8602 94.889 65.6679 94.9559V94.9475ZM74.7504 69.0213C74.4661 68.7704 75.5868 66.8134 75.9966 66.4538C75.6455 67.334 75.2289 68.1866 74.7504 69.0046V69.0213ZM125.992 117.052C126.094 117.707 126.136 118.371 126.118 119.034C125.953 118.381 125.911 117.703 125.992 117.035V117.052ZM128.05 137.299C128.117 137.299 128.092 137.191 128.05 137.048C127.273 133.245 126.964 129.361 127.13 125.482C127.1 128.193 127.246 130.902 127.565 133.594C127.875 136.034 128.344 138.45 128.97 140.829C129.605 143.338 130.107 145.437 131.771 146.967C131.173 146.643 130.673 146.163 130.325 145.579C129.037 143.497 128.961 140.829 128.342 138.47C128.15 137.826 128.025 137.408 127.857 136.982C127.659 136.49 127.535 135.971 127.489 135.443C127.673 135.819 127.841 136.664 128.05 137.283V137.299ZM70.6357 94.4959C70.3346 94.4123 71.0706 93.6596 71.2462 93.3167C70.8662 93.5668 70.5738 93.9294 70.4099 94.3538C70.5437 94.0276 70.4099 93.9523 70.6775 93.5174C69.2892 95.0646 69.0885 95.7922 67.9427 97.2475C67.9427 97.1638 68.1518 96.8627 68.0681 96.8042C66.7662 98.3772 65.557 100.025 64.4468 101.739C64.3465 101.613 64.6643 101.212 64.9988 100.785C64.7228 100.785 63.644 102.458 64.0538 101.429C63.544 102.213 62.9853 102.965 62.3811 103.679C63.012 102.619 63.7046 101.597 64.4552 100.618C64.1629 100.839 63.9013 101.097 63.6774 101.387C63.6774 100.994 64.313 100.676 64.5974 100.191C62.816 102.065 60.9426 104.323 58.9522 106.43C59.4121 105.778 60.6248 104.323 61.6702 103.085C60.8339 103.804 59.7885 105.117 58.8351 106.021C59.5961 104.967 58.5507 106.071 58.0489 106.464C59.8558 104.512 61.5507 102.46 63.1254 100.317C64.7992 98.0538 66.3379 95.6941 67.7336 93.2498C67.0478 94.337 66.5126 94.9894 66.061 95.9428C65.9271 96.1686 65.4755 96.4362 65.7599 96.0013C65.5926 96.0431 65.3835 96.9715 64.9821 97.0049C65.0657 96.0348 67.006 93.6094 67.4911 92.1291C67.3489 92.1291 67.098 92.6644 67.0311 92.3465C66.5795 93.1243 67.4576 92.2546 66.6798 93.3585C66.6798 92.2462 67.8507 90.8495 68.4027 89.7707C68.6619 89.319 68.8794 88.8005 69.1303 88.2402C69.3812 87.6798 69.6823 87.0693 69.9666 86.4003C69.5707 86.9529 69.2317 87.5441 68.9547 88.1649C68.5956 88.9298 68.1964 89.6751 67.7587 90.3979C67.5329 90.7074 67.7587 90.2557 67.9009 90.0048C68.5281 88.8005 69.3059 87.1028 70.0001 85.4217C70.3597 84.5854 70.6524 83.7491 70.9535 82.9713C71.2546 82.1935 71.4637 81.491 71.656 80.9139C71.012 81.7503 70.8782 82.9964 70.159 84.7025C70.0921 84.6356 70.2426 84.3345 70.3179 84.1087C69.791 85.2712 68.9379 87.0693 68.0096 88.9678C67.0813 90.8663 65.9857 92.84 65.1243 94.3872C64.6225 95.3239 64.2879 96.0599 63.8447 96.7875C63.0711 97.7928 62.4119 98.8812 61.8793 100.032C61.2208 100.682 60.6928 101.451 60.3237 102.299C60.2066 102.257 60.4157 101.906 60.1648 102.165C59.6798 102.65 60.1648 102.541 59.9808 102.834C59.7968 103.127 58.9521 103.578 58.8183 104.064C58.6594 103.737 57.8398 105.151 57.0286 106.154C57.4049 105.903 57.9904 105.193 58.2329 105.251C57.0453 106.924 55.5065 108.086 53.976 109.642C54.9461 108.446 56.8111 106.79 57.9486 105.561C57.6057 105.561 56.8111 106.573 56.2006 107.116C59.6645 102.39 62.8158 97.4421 65.6344 92.3047C67.1766 89.4129 68.5287 86.4236 69.6823 83.356C70.2426 81.859 70.711 80.3703 71.1208 78.9235C71.2462 78.5053 71.3633 78.0871 71.4804 77.6941C71.5975 77.301 71.7229 76.8577 71.8651 76.4396C72.1327 75.6032 72.4087 74.8171 72.7014 74.0393C73.061 74.2316 74.1399 71.6808 75.0097 69.9413C74.9093 70.5016 75.1184 70.2005 75.11 70.7776C74.7707 71.4688 74.4692 72.1779 74.2068 72.9019C74.7086 72.1408 75.7708 69.1886 76.8078 67.4825C76.6907 67.3737 76.3729 68.185 76.2056 68.4777C76.0384 68.7704 77.042 66.7381 77.1256 66.32C76.7362 66.8525 76.3841 67.4114 76.0718 67.9926C75.8209 68.5028 75.6118 68.9795 75.3275 69.59C75.2271 69.3726 75.7206 68.3439 76.3729 67.2483C77.0252 66.1527 77.803 64.9986 78.0456 64.388C78.5306 63.7859 78.0874 64.6808 77.7947 65.0655C79.091 63.1503 80.6047 61.2267 81.8007 59.738C81.5665 59.9889 81.0647 60.5242 80.4877 61.2183C79.9106 61.9125 79.2583 62.7823 78.6895 63.6688C79.1913 62.2888 81.2571 60.1897 82.8712 58.3999C83.1054 58.4752 82.6705 58.9268 82.1854 59.4202C82.7374 59.1443 83.4483 58.1239 83.2057 58.0487C83.8656 57.553 84.4612 56.977 84.9787 56.3342C82.269 58.793 79.3837 61.5027 77.5689 64.6389C77.6859 64.6389 77.9201 64.1622 78.1376 63.8695C78.1376 64.3295 76.7242 66.0691 75.9297 67.7919C75.9711 67.5556 76.0413 67.3253 76.1387 67.1061C75.2439 68.2937 74.2152 71.0619 73.521 72.3583C75.1098 68.2091 77.2931 64.313 80.0026 60.7918C81.4382 58.9779 83.0675 57.3261 84.8617 55.8658C86.7214 54.3718 88.7858 53.1522 90.992 52.2445C90.4316 52.6376 89.4615 53.2147 88.483 53.8085C87.5422 54.379 86.6573 55.0371 85.8402 55.7738C87.2665 54.7577 88.7522 53.8278 90.2894 52.9889C89.6287 53.5576 88.5164 54.1012 87.4292 54.8288C86.8704 55.1706 86.3341 55.5477 85.8234 55.9578C85.5642 56.1586 85.3216 56.3593 85.0875 56.56C84.8533 56.7607 84.6609 56.9865 84.4686 57.204C86.532 55.4035 88.8446 53.9106 91.3349 52.7714C93.686 51.691 96.1604 50.9018 98.7029 50.4213C101.309 49.9442 103.965 49.8037 106.606 50.0032C109.498 50.2132 112.34 50.8618 115.036 51.9267C113.024 51.0528 110.903 50.4536 108.731 50.1453C106.828 49.8778 104.905 49.7827 102.985 49.861C103.208 49.7344 103.465 49.679 103.721 49.7021C101.981 49.6995 100.244 49.8647 98.5356 50.1955C96.7901 50.5402 95.0669 50.9899 93.3755 51.542C93.4842 51.3078 94.6802 51.0737 95.2238 50.8479C93.8499 51.1437 92.5142 51.5954 91.2428 52.1943C97.2695 49.1081 104.154 48.122 110.805 49.3926C110.888 49.5264 111.574 49.6268 111.231 49.7857C113.161 50.2749 115.038 50.9528 116.835 51.8096L118.173 52.5038C118.616 52.7463 119.009 53.0307 119.461 53.2899C120.309 53.7996 121.127 54.358 121.911 54.9626C124.924 57.3428 127.531 60.1954 129.63 63.4095C133.619 69.2806 135.906 76.1406 136.237 83.2306C136.237 83.7407 136.438 83.7156 136.472 84.2258C136.472 85.2712 136.396 86.0908 136.371 87.0108C136.346 87.9307 136.313 88.8256 136.279 89.7623C136.279 91.6189 136.204 93.5342 136.162 95.4744C136.087 99.3466 135.961 103.302 135.552 107.074C135.301 109.399 135.552 111.9 135.075 113.765C135.008 116.801 134.924 120.732 134.849 124.478C134.799 126.293 134.849 128.016 134.849 129.555C134.849 131.094 134.891 132.415 134.849 133.461C134.949 133.954 135.008 134.473 135.133 134.958C135.022 135.352 134.974 135.761 134.991 136.17C135.543 137.007 135.644 138.462 136.204 139.992C136.346 140.21 136.488 140.252 136.614 140.218C136.104 139.683 136.413 139.8 135.953 138.646C136.31 139.247 136.629 139.869 136.906 140.511C136.538 140.16 136.714 141.063 136.354 140.344C136.496 140.944 136.695 141.529 136.948 142.091C137.311 142.851 137.734 143.581 138.211 144.274C137.91 144.274 137.96 143.898 137.651 143.664C138.061 144.667 138.128 145.529 139.223 146.549C138.562 146.608 140.503 149.058 139.558 149.167C139.415 149.234 140.001 149.786 140.16 150.053C139.7 150.053 140.762 151.684 139.875 151.651C138.905 150.421 138.019 151.149 137.04 150.53C136.915 150.798 137.877 151.299 137.467 151.316C136.71 150.367 135.83 149.523 134.849 148.807C134.308 148.066 133.906 147.233 133.662 146.348C132.984 145.512 132.415 144.893 131.897 144.157C131.617 143.764 131.357 143.356 131.119 142.936C130.877 142.468 130.626 141.933 130.366 141.264C130.107 140.594 130.04 140.185 129.865 139.691C129.803 139.519 129.725 139.354 129.63 139.198C129.596 139.149 129.557 139.104 129.513 139.064C129.43 138.796 129.446 138.345 129.304 137.893C129.095 137.166 128.652 136.588 128.518 136.154C128.384 135.719 128.376 134.623 128.309 134.28C128.2 133.586 128.1 132.892 127.966 132.164C127.832 131.437 127.765 130.709 127.69 129.948C127.54 127.799 127.498 125.557 127.556 123.257C127.615 120.957 127.707 118.683 127.807 116.341C128.025 111.666 128.276 106.882 128.418 102.316C128.493 99.8066 128.577 97.1722 128.694 94.7886C128.811 92.4051 128.92 89.8208 128.986 87.3537V85.5054C128.986 84.8781 128.986 84.368 128.986 83.8327C128.973 83.2734 128.932 82.7151 128.861 82.1601C128.811 81.5989 128.733 81.0406 128.627 80.4874C128.231 78.2183 127.595 75.9979 126.728 73.8637C125.839 71.7023 124.732 69.637 123.425 67.6999C123.35 67.5995 123.09 67.1228 122.714 66.5541C122.301 65.9409 121.857 65.3491 121.384 64.7811C119.967 63.0572 118.321 61.535 116.492 60.2566C114.61 58.9343 112.513 57.9495 110.294 57.3461C105.516 56.0691 100.456 56.3295 95.8343 58.0905C93.5148 58.9546 91.3638 60.2169 89.4782 61.8205C87.5616 63.5019 85.8745 65.428 84.4602 67.5494C83.0348 69.701 81.806 71.9767 80.7887 74.3487C80.2953 75.5363 79.8186 76.7239 79.4088 77.9199C79.2081 78.522 78.9906 79.1158 78.815 79.718C78.6394 80.3201 78.4219 80.9892 78.2296 81.6164C78.0456 81.7503 77.9787 82.2688 77.9619 81.7753C77.8198 82.1517 77.8867 82.2102 77.9619 82.2604C77.527 83.3393 77.4267 83.356 76.9583 84.3596C75.8544 86.6846 74.2068 90.2557 73.1196 91.3346C74.2129 89.5694 75.215 87.7494 76.122 85.8817C76.5987 84.9283 76.9583 83.9164 77.3765 82.9295C77.5605 82.4277 77.7194 81.9175 77.8867 81.4157C78.0539 80.9139 78.2045 80.4038 78.3216 79.9856C78.0044 80.6208 77.7251 81.2743 77.4852 81.9426C77.2009 82.7037 76.858 83.4982 76.5234 84.2676C76.019 85.5904 75.2889 86.8156 74.3657 87.8889C74.0061 89.2187 73.2701 89.6787 73.1781 90.5401C72.5425 90.4816 71.4804 93.5676 70.6357 94.4959ZM60.0059 104.532C60.4743 103.997 60.951 103.461 61.3942 102.901C61.3859 102.508 59.9056 104.616 60.0059 104.507V104.532ZM66.4289 94.7217C66.2031 95.3239 65.7933 95.5581 65.8602 95.8675C66.2199 95.2821 66.6966 94.8807 66.4289 94.6967V94.7217ZM80.3873 74.424C80.5428 73.9002 80.7619 73.3975 81.0396 72.927C80.8138 72.7597 80.3037 74.3153 80.3873 74.424ZM79.551 76.5148C79.643 76.0967 80.1029 75.2938 79.9942 75.1516C79.7129 75.5497 79.5663 76.0274 79.5761 76.5148H79.551ZM136.204 140.402C135.836 139.566 135.46 137.659 135 137.759C135.184 138.269 135.376 138.813 135.568 139.29C135.744 139.685 135.966 140.058 136.229 140.402H136.204ZM68.871 97.0886C68.779 97.4064 68.503 97.4314 68.1351 98.1841C67.8005 98.1841 68.5532 97.4231 68.7539 97.0049C68.7372 97.0885 68.7121 97.2725 68.871 97.0886ZM66.1697 99.7648C66.1758 99.7895 66.1742 99.8154 66.1653 99.8391C66.1563 99.8629 66.1404 99.8834 66.1195 99.8979C66.0987 99.9124 66.0739 99.9202 66.0485 99.9204C66.0231 99.9205 65.9983 99.9129 65.9773 99.8986C66.298 99.3169 66.6585 98.758 67.0562 98.2259C67.282 98.4936 66.2199 99.2463 66.1697 99.7314V99.7648ZM60.4492 102.943C60.3823 102.6 61.2855 101.973 61.2855 101.705C61.7873 101.27 60.8339 102.483 60.4492 102.943ZM140.026 147.795C139.675 147.486 138.922 145.704 139.19 145.822C139.412 146.494 139.692 147.146 140.026 147.77V147.795Z" fill="#69DA00"/>
<path d="M11.2744 121.008C11.3831 120.941 11.3329 120.59 11.3497 120.356C11.1322 120.314 11.358 120.724 11.2744 121.008ZM35.62 45.6213C35.4694 45.6715 35.3105 45.7384 35.2687 45.6213C35.4323 45.3889 35.6362 45.1878 35.8709 45.0275C36.0799 45.1864 35.4694 45.4708 35.62 45.6213ZM11.3664 122.564C11.2577 122.656 11.4166 123.174 11.2828 123.233C11.2828 122.881 11.1657 122.472 11.1824 122.279C11.2409 122.271 11.2577 122.614 11.3413 122.606L11.3664 122.564ZM12.7045 130.927C13.0307 131.596 13.1561 132.533 13.3819 133.068C13.091 132.377 12.8561 131.664 12.6794 130.935L12.7045 130.927ZM13.8168 134.624C13.5074 134.072 13.0641 132.608 13.5576 133.921L13.8168 134.624ZM9.98644 126.085C10.1294 126.383 10.2118 126.707 10.229 127.038C10.0986 126.736 10.0086 126.418 9.96135 126.093L9.98644 126.085ZM10.9148 129.79C10.806 129.873 10.714 129.606 10.6304 129.304C10.714 129.363 10.7977 129.564 10.8897 129.798L10.9148 129.79ZM9.2421 124.027C9.13338 124.027 9.14174 123.358 9.03302 123.4C8.99957 123.015 9.21702 123.935 9.21702 124.036L9.2421 124.027ZM6.44039 110.203C6.22295 110.161 6.28986 109.115 6.36513 108.881C6.43787 109.321 6.44632 109.769 6.39022 110.211L6.44039 110.203ZM25.3164 58.852C25.3164 58.6764 25.6175 58.2666 25.7262 58.0157C25.6406 58.3292 25.4831 58.6184 25.2662 58.8604L25.3164 58.852ZM30.3344 51.1913C30.3344 51.1913 30.2842 51.1913 30.234 51.2414C29.13 52.3287 27.633 54.2439 26.8887 55.1471C28.1717 53.2664 29.7147 51.5769 31.4718 50.1291C32.3081 49.4517 33.1444 49.1924 33.5877 48.2808C33.5522 48.5772 33.4199 48.8535 33.2113 49.067C32.5339 49.7528 31.4467 50.0622 30.7023 50.7898C30.2925 51.1745 30.3093 51.4505 29.866 51.8269C29.981 51.6081 30.1124 51.3985 30.2591 51.1996L30.3344 51.1913ZM11.266 122.087C11.1071 122.162 11.1406 121.644 11.1071 121.476C11.0646 121.578 11.0427 121.688 11.0427 121.798C11.0427 121.909 11.0646 122.018 11.1071 122.12C11.0402 121.962 10.9482 121.987 10.898 121.727C10.9036 122.478 10.982 123.225 11.1322 123.96C11.082 123.96 11.0653 123.76 11.0068 123.768C11.0813 124.767 11.3011 125.751 11.6591 126.687C11.5671 126.687 11.5002 126.444 11.4417 126.185C11.3413 126.302 11.6675 127.222 11.3747 126.754C11.5671 127.515 11.6089 127.373 11.7595 128.1C11.4943 127.547 11.2896 126.966 11.1489 126.369C11.1358 126.552 11.1527 126.735 11.1991 126.913C11.0318 126.787 11.1155 126.444 11.0151 126.185C11.0887 126.863 11.2033 127.536 11.358 128.201C11.5504 128.886 11.7511 129.589 11.9434 130.283C11.6568 129.621 11.4192 128.939 11.2326 128.242C11.2995 128.786 11.5671 129.597 11.7176 130.241C11.4333 129.647 11.6507 130.383 11.7176 130.71C11.1991 129.037 10.8395 127.975 10.5468 126.829C10.3879 126.26 10.229 125.675 10.045 125.006C9.86099 124.337 9.71045 123.576 9.50136 122.656C9.5628 123.196 9.66911 123.73 9.81917 124.253C9.81917 124.379 9.76899 124.646 9.71045 124.387C9.66027 124.462 9.95299 124.864 9.81082 125.031C9.4261 124.671 9.2672 123.065 8.97449 122.313C8.92431 122.371 8.97449 122.656 8.8574 122.555C8.9494 123.015 9.00793 122.371 9.0832 123.074C8.72847 122.461 8.53832 121.767 8.53122 121.058C8.44759 120.515 8.28032 119.896 8.19669 119.11C8.21832 119.917 8.3135 120.72 8.48104 121.51C8.48104 121.711 8.4225 121.451 8.40577 121.301C8.12979 119.887 7.67817 117.404 7.56944 116.099C7.52456 116.832 7.59226 117.569 7.77017 118.282C7.71999 118.282 7.70326 118.089 7.68653 117.964C7.73671 118.65 7.89561 119.712 8.08796 120.832C8.28156 121.905 8.53283 122.965 8.84067 124.011C8.99957 124.554 9.16684 124.939 9.30065 125.374C9.43514 126.026 9.66628 126.655 9.98644 127.239C10.0256 127.721 10.1899 128.186 10.4632 128.585C10.3962 128.627 10.3042 128.435 10.3377 128.585C10.4046 128.937 10.5133 128.694 10.597 128.853C10.6806 129.012 10.597 129.514 10.8144 129.689C10.597 129.689 11.0319 130.417 11.2744 131.036C11.2744 130.793 11.0988 130.35 11.2075 130.25C11.4081 130.724 11.573 131.214 11.7009 131.713C11.8598 132.198 12.0104 132.708 12.2194 133.244C11.8099 132.35 11.4933 131.417 11.2744 130.459C11.1657 130.626 11.4166 131.236 11.5002 131.646C10.0478 128.907 8.91141 126.011 8.11305 123.015C7.87888 122.179 7.66981 121.292 7.51091 120.406C7.352 119.519 7.15965 118.65 7.02583 117.772C6.80003 116.015 6.59094 114.309 6.54912 112.754C6.80002 112.754 6.77494 111.449 6.76657 110.529C6.85857 110.788 6.89202 110.621 7.02583 110.855C6.97565 111.039 7.10111 111.491 7.09274 111.951C7.17638 111.516 6.99238 110.035 7.03419 109.099C6.9422 109.099 7.03419 109.483 7.03419 109.642C7.03419 109.801 6.97565 108.739 6.89202 108.555C6.8252 109.139 6.8252 109.728 6.89202 110.311C6.64948 110.169 6.89202 108.162 6.74984 107.56C6.79166 107.209 6.87529 107.669 6.84184 107.894C6.84184 106.824 6.98401 105.695 6.92547 104.825C6.92547 105.143 6.8502 106.147 6.83347 107.125C6.77605 106.1 6.77605 105.072 6.83347 104.047C6.96728 104.006 6.95892 104.29 6.95055 104.599C7.076 104.34 6.95056 103.763 6.84184 103.83C6.91265 103.468 6.91265 103.096 6.84184 102.734C6.84184 103.571 6.74148 104.407 6.67458 105.243C6.58041 106.076 6.53851 106.914 6.54912 107.752C6.60766 107.752 6.54912 107.476 6.54912 107.309C6.63174 108.003 6.65971 108.702 6.63276 109.4C6.58777 109.296 6.55683 109.186 6.54076 109.074C6.4404 109.759 6.5993 111.131 6.54076 111.834C6.2449 107.726 6.35977 103.599 6.88366 99.5144C6.98402 100.125 6.82512 101.463 6.88366 102.266C6.96729 101.881 7.03419 100.485 7.06764 99.966C7.20982 100.719 6.88366 102.132 6.95893 103.144C7.34364 98.1261 7.79525 94.0699 8.68176 88.7007C8.41414 89.7795 8.29706 90.6911 8.16324 91.5526C8.02943 92.414 7.92071 93.2252 7.81199 94.1034C7.76946 93.993 7.76946 93.8708 7.81199 93.7605C7.61127 94.9062 7.39382 97.2145 7.21819 98.4355C7.12619 98.3435 7.21819 97.825 7.21819 97.5992C7.0903 98.2088 7.00369 98.8263 6.95893 99.4475C6.95893 98.0341 7.02583 96.5956 7.17637 95.1488C7.25164 94.4212 7.31854 93.6852 7.38545 92.9409C7.45236 92.1965 7.56945 91.4355 7.63635 90.6661C7.71162 90.6661 7.73671 90.3315 7.84543 90.4821C8.93085 83.9657 10.7026 77.5824 13.131 71.4388C13.1979 71.2214 13.131 71.1963 13.131 70.9788C14.5862 67.8593 15.8993 63.8617 17.9901 60.5749C18.2965 60.0602 18.5757 59.5298 18.8265 58.9859C19.0746 58.4952 19.3868 58.0396 19.7548 57.631C20.1311 56.9452 20.5911 56.1591 21.1013 55.3478L21.8874 54.1184L22.7237 52.9141C23.26 52.1456 23.8468 51.4136 24.48 50.7229C24.98 50.1407 25.5407 49.6136 26.1527 49.1506L26.7465 48.4816C26.972 48.3981 27.1857 48.2857 27.3821 48.147C27.8749 47.5198 28.4617 46.9725 29.1217 46.5245C29.2137 46.3991 29.2137 46.3155 29.1719 46.2486C28.9628 46.6416 28.9711 46.4325 28.4443 46.9594C28.6827 46.6184 28.9638 46.3092 29.2806 46.0395C29.1384 46.2987 29.6318 46.0395 29.2806 46.374C29.9961 45.9341 30.6681 45.4272 31.2878 44.8602C31.2878 45.0359 31.087 45.0191 30.97 45.2031C31.5632 45.0144 32.0986 44.6777 32.5255 44.2246C32.5255 44.5675 33.9222 43.5974 33.9724 44.1494C33.9724 44.2413 34.3153 43.957 34.4658 43.8901C34.4658 44.141 35.3022 43.6894 35.3022 44.1995C34.6498 44.6261 35.0262 45.1864 34.7334 45.6631C34.8673 45.7551 35.1098 45.2868 35.1265 45.5126C34.645 45.8178 34.2526 46.2448 33.9891 46.7503C33.6595 47.0105 33.2855 47.2089 32.8852 47.3358C32.3799 48.0864 31.7968 48.7817 31.1456 49.4099C30.9449 49.6022 30.7692 49.7277 30.6103 49.895C30.525 49.9641 30.4684 50.0624 30.4514 50.1709C30.3035 50.2659 30.1611 50.3692 30.0249 50.4804C29.7907 50.7229 29.7406 51.0742 29.6235 51.2331C29.5064 51.392 29.1133 51.6847 29.013 51.8018C28.5829 52.3004 28.1808 52.8225 27.8086 53.3657C26.596 54.8962 25.3582 56.711 24.1288 58.5844C22.9566 60.4884 21.8874 62.4538 20.9256 64.4722C20.6664 65.0158 20.3988 65.5845 20.0893 66.1448L19.3282 67.8175C17.2539 72.2378 15.6018 76.8441 14.3939 81.5751C14.3939 81.7006 14.0426 82.6624 13.8503 83.3983C12.5997 88.4675 11.7468 93.6266 11.2995 98.8286C10.8142 104.23 10.7834 109.663 11.2075 115.07C11.1406 115.154 11.2075 115.38 11.0988 115.187C11.0988 115.363 11.1489 115.38 11.1991 115.388C11.1991 115.915 11.1991 115.94 11.1406 116.442C11.0653 117.638 11.3998 119.427 11.2242 120.147C11.1657 119.235 11.0988 118.257 11.0569 117.278C11.0151 116.3 10.99 115.296 10.8813 114.359C10.7391 115.522 10.9984 117.604 10.7224 118.541C10.9482 119.151 10.7224 119.536 10.9733 119.887C10.6555 120.038 11.1824 121.51 11.1908 122.095L11.266 122.087ZM11.3915 129.321L11.0737 128.284C10.8144 128.201 11.3078 129.396 11.3162 129.33L11.3915 129.321ZM9.49301 123.643C9.63518 123.944 9.54319 124.186 9.70209 124.27C9.55155 123.944 9.6101 123.617 9.41774 123.651L9.49301 123.643ZM10.7809 111.307C10.7809 110.838 10.6722 110.847 10.7391 110.47C10.5635 110.47 10.6973 111.307 10.7809 111.307ZM10.8479 112.461C10.8479 112.243 10.8479 111.775 10.7642 111.733C10.7174 111.991 10.7618 112.257 10.8897 112.486L10.8479 112.461ZM29.4144 46.3907C29.0046 46.7253 28.093 47.4278 28.2686 47.6368C28.6835 47.2651 29.0668 46.8595 29.4144 46.4242V46.3907ZM11.3998 123.534C11.4835 123.676 11.3998 123.785 11.5253 124.161C11.3998 124.287 11.3915 123.76 11.3162 123.551C11.3664 123.643 11.4166 123.693 11.3998 123.567V123.534ZM11.3998 125.39C11.4107 125.395 11.42 125.402 11.4266 125.412C11.4331 125.422 11.4367 125.433 11.4367 125.445C11.4367 125.457 11.4331 125.468 11.4266 125.478C11.42 125.487 11.4107 125.495 11.3998 125.499C11.2758 125.203 11.1832 124.895 11.1238 124.579C11.3078 124.613 11.1908 125.257 11.3915 125.424L11.3998 125.39ZM10.6973 128.686C10.505 128.619 10.5133 128.067 10.413 127.975C10.4046 127.674 10.6053 128.435 10.689 128.719L10.6973 128.686ZM33.2782 43.7646C33.0775 43.9152 32.1241 44.3584 32.1743 44.1912C32.559 44.0406 32.8183 44.0072 33.2782 43.7981V43.7646Z" fill="white"/>
<path d="M41.0662 37.1822C41.051 37.2397 41.051 37.3003 41.0662 37.3578C41.1247 37.1655 40.9993 37.3076 41.0662 37.1822ZM40.74 33.8369C40.757 33.8942 40.757 33.9552 40.74 34.0125C40.74 34.0794 40.6815 34.163 40.6564 34.1714C40.6815 33.9623 40.7317 34.0627 40.74 33.8619V33.8369ZM41.0662 36.8895C41.1164 36.7724 41.0662 36.8142 41.1164 36.6804C41.1164 36.764 41.1164 36.7306 41.1164 36.7807C41.1164 36.8309 41.0997 36.8727 41.0662 36.9146V36.8895ZM40.8906 35.9528C40.8069 36.0364 40.8404 35.8022 40.7986 35.819C40.8822 35.7521 40.8404 35.9695 40.8906 35.9779V35.9528ZM40.7568 35.6601C40.8822 35.6601 40.832 35.5848 40.7568 35.6601ZM41.7185 34.8906C41.6767 34.9659 41.6516 34.8906 41.66 34.8906C41.6683 34.8906 41.7018 34.8906 41.7185 34.9157V34.8906ZM41.5345 34.7234C41.5847 34.5979 41.6015 34.6063 41.6182 34.623C41.6349 34.6397 41.5513 34.7401 41.5345 34.7485V34.7234ZM41.9611 34.6816C41.9611 34.5728 41.9611 34.7234 42.028 34.6146C42.0196 34.7317 41.936 34.7735 41.9611 34.7066V34.6816ZM43.2156 33.9456C43.2992 33.7532 43.3243 33.8536 43.3076 33.9456C43.2908 34.0376 43.2239 34.0208 43.2156 33.9707V33.9456ZM42.7305 32.8416C42.672 32.942 42.6385 32.8416 42.5883 32.9169C42.5381 32.9922 42.672 32.8333 42.7305 32.8667V32.8416ZM41.6014 33.1762C41.6014 33.1762 41.6014 33.1762 41.6014 33.2263C41.7353 33.3351 41.9778 33.3518 42.0531 33.4772C41.8273 33.3852 41.5931 33.3685 41.4676 33.0591C41.3924 32.8834 41.3422 32.5656 41.1833 32.9253C41.2024 32.8113 41.2515 32.7046 41.3255 32.6158C41.4593 32.5489 41.4593 33.1176 41.5513 33.1678C41.6433 33.218 41.66 33.0423 41.7018 33.1176C41.7436 33.1929 41.6349 33.1845 41.6014 33.2012V33.1762ZM41.1164 36.8644C41.1833 36.7055 41.1582 36.8644 41.1666 36.8644C41.1749 36.8644 41.2251 36.7055 41.1666 36.7389C41.108 36.7724 41.2251 36.6218 41.2418 36.6302C41.2836 36.3793 41.2418 36.4964 41.1916 36.3877C41.1415 36.2789 41.1916 36.3877 41.2418 36.3124C41.292 36.2371 41.1833 36.1033 41.0829 36.2037C41.0829 36.12 41.1331 36.12 41.1498 36.1368C41.1916 36.0197 41.0997 36.0782 41.2 35.9277C41.1498 35.9277 41.1247 35.9946 41.0996 35.9277C41.0746 35.8608 41.2335 35.7688 41.2753 35.819C41.2844 35.789 41.2844 35.757 41.2753 35.727C41.3338 35.6182 41.2753 35.7688 41.3171 35.727C41.3224 35.668 41.3101 35.6087 41.2818 35.5566C41.2535 35.5046 41.2105 35.462 41.1582 35.4342C41.2084 35.3841 41.2836 35.359 41.3171 35.4342C41.3171 35.3339 41.2669 35.3339 41.2502 35.267C41.2335 35.2001 41.2502 35.1666 41.292 35.1081C41.4681 35.1606 41.6529 35.1777 41.8356 35.1583C41.8356 35.1583 41.8356 35.0663 41.7436 35.1583C41.6516 35.2502 41.7436 35.0412 41.7854 35.0412C41.8273 35.0412 41.7018 35.1583 41.7854 34.991C41.8691 34.8237 41.9611 34.9074 42.0698 34.7903C42.0735 34.734 42.0907 34.6795 42.12 34.6314C42.12 34.6314 42.0531 34.807 42.0363 34.7317C42.1952 34.439 42.1869 34.6146 42.2203 34.6314C42.2538 34.6481 42.3207 34.5896 42.3541 34.6314C42.3541 34.4641 42.2789 34.5477 42.2454 34.4976C42.2454 34.4557 42.212 34.4474 42.2454 34.4976C42.3587 34.4763 42.475 34.4763 42.5883 34.4976C42.6385 34.3052 42.5381 34.439 42.488 34.4056C42.488 34.4056 42.2538 34.2717 42.0865 34.4056C41.9193 34.5394 41.9694 34.5226 41.9443 34.531C41.9193 34.5394 41.8607 34.4808 41.7436 34.6732C41.7436 34.5728 41.6934 34.6732 41.6182 34.7485C41.6375 34.7135 41.6543 34.6771 41.6684 34.6397C41.6684 34.5979 41.6014 34.7568 41.5847 34.7819C41.568 34.807 41.5847 34.6146 41.5847 34.7234C41.6684 34.5394 41.5847 34.7234 41.4844 34.7234C41.384 34.7234 41.4844 34.7819 41.4844 34.899C41.4844 35.0161 41.384 34.8321 41.3087 34.8237C41.3924 34.7485 41.4342 34.8237 41.476 34.8906C41.5262 34.7568 41.476 34.7903 41.476 34.7485C42.0698 34.0961 42.7723 33.8118 43.0734 34.071C42.973 34.2968 43.0232 34.3972 43.0734 34.439C43.1236 34.4808 43.0232 34.5477 42.9563 34.6565C42.9563 34.5979 42.9061 34.6565 42.8978 34.6565C42.8978 34.7819 43.0065 34.6983 43.0399 34.7652C43.0399 34.6815 43.0399 34.7652 43.0399 34.715C43.0399 34.6648 43.1068 34.715 43.1487 34.623C43.1905 34.531 43.1487 34.5394 43.0734 34.5394C43.1737 34.3303 43.1654 34.6481 43.2574 34.5394C43.2574 34.5896 43.2072 34.6481 43.2072 34.6063C43.2072 34.6899 43.2908 34.7652 43.3661 34.7234C43.3545 34.7004 43.338 34.6802 43.3178 34.6643C43.2976 34.6485 43.2741 34.6372 43.249 34.6314C43.3577 34.4725 43.3494 34.715 43.4414 34.6314C43.3912 34.7485 43.3745 34.7485 43.3577 34.7317C43.3577 34.8572 43.3577 34.7317 43.4497 34.6397C43.4497 34.6983 43.4497 34.6899 43.5334 34.6397C43.4079 34.6397 43.4247 34.3554 43.3159 34.3637C43.2072 34.3721 43.3159 34.3637 43.3159 34.4139C43.2407 34.5477 43.249 34.4139 43.1738 34.4139L43.2323 34.3387C43.2323 34.2216 43.0985 34.3387 43.1068 34.1965C43.3494 34.2801 43.617 34.2717 43.7508 34.6146C43.6505 34.7568 43.617 34.6146 43.5334 34.6983C43.4497 34.7819 43.6086 34.7903 43.6421 34.7903C43.525 34.9659 43.5417 34.6899 43.433 34.7903C43.5294 34.8934 43.646 34.9755 43.7754 35.0316C43.9049 35.0877 44.0446 35.1166 44.1857 35.1164L41.6098 37.9014H41.568L44.2192 35.0412C44.1272 35.0412 44.0352 35.0412 43.9515 34.991C43.8679 34.9408 43.9934 34.9157 44.0101 34.9241C44.0268 34.9324 43.7926 34.8823 43.7592 34.7652C43.7257 34.6481 43.801 34.7652 43.8261 34.7652C43.8512 34.7652 43.8261 34.6648 43.7508 34.6481C44.0101 34.4808 44.169 34.5645 44.4282 34.439C44.4282 34.4976 44.4282 34.4808 44.3781 34.5979L41.1164 38.1272C41.1164 38.1272 40.9575 38.1941 41.0076 38.0185L40.924 38.1105C41.016 37.9014 40.7317 38.2276 40.7986 37.9851C40.7986 37.9014 40.6982 38.1021 40.7986 37.8847C40.6898 37.9516 40.5895 38.0687 40.648 37.6087C40.648 37.5334 40.648 37.408 40.648 37.3662C40.5895 37.5251 40.648 37.3662 40.5979 37.2658C40.5929 37.3215 40.5929 37.3774 40.5979 37.4331C40.5966 37.45 40.5914 37.4663 40.5827 37.4808C40.574 37.4954 40.562 37.5076 40.5477 37.5167C40.5477 37.4164 40.5895 37.2742 40.5979 37.2658C40.5979 37.1236 40.5979 37.0651 40.556 37.0902C40.556 36.948 40.556 37.0902 40.556 37.0065C40.556 36.9229 40.556 36.6637 40.556 36.8393C40.5979 36.5215 40.556 36.5633 40.556 36.0866C40.556 35.9946 40.556 36.0866 40.556 36.0364C40.556 35.8357 40.556 35.727 40.556 35.3255C40.6062 35.3255 40.6648 34.6565 40.7317 34.4223C40.7986 34.1881 40.6815 34.531 40.7317 34.3387C40.7902 34.3387 40.8487 34.1296 40.9157 33.979C40.9826 33.979 40.9742 34.1212 40.9909 34.1965C41.0997 34.0376 41.1917 33.8201 41.292 33.8703C41.3924 33.9205 41.292 33.9205 41.3422 33.9205C41.3924 33.9205 41.3924 33.8452 41.3924 33.8452V33.9372C41.3924 33.9372 41.4927 33.77 41.5178 33.7532C41.5429 33.7365 41.5178 33.8452 41.568 33.8536C41.6182 33.8619 41.7018 33.8536 41.7687 33.8536C42.1663 33.9562 42.555 34.0905 42.9312 34.255C43.0458 34.2845 43.1536 34.3356 43.249 34.4056L44.3948 35.3004C44.3948 35.3004 44.3948 35.4259 44.4868 35.4761C44.6815 35.663 44.8554 35.8705 45.0053 36.095L47.5143 39.6744L42.605 38.5454C42.0754 38.4683 41.5697 38.274 41.1247 37.9767C41.1247 37.9014 41.1247 37.9767 41.1749 37.8596C41.2251 37.7425 41.1749 37.8596 41.1247 37.9349C41.1247 37.8596 41.1247 37.8345 41.1247 37.7509C41.1247 37.6672 41.0077 37.5334 41.0746 37.2742C41.1164 37.4582 41.1415 37.7342 41.2586 37.7676C41.3004 37.4833 41.1415 37.5167 41.2586 37.0902C41.1749 37.1905 41.2586 36.9396 41.1666 37.0902C41.3087 36.7891 41.0997 37.0233 41.1164 36.8727V36.8644ZM41.3338 35.1917H41.4007C41.4676 35.1499 41.3422 35.2001 41.3338 35.2586V35.1917ZM41.8607 34.9157C41.8105 34.9826 41.8607 34.8488 41.7938 34.9743C41.7269 35.0997 41.7854 35.2001 41.8356 34.9826L41.8607 34.9157ZM41.4175 37.868C41.4175 37.868 41.476 37.8094 41.4676 37.868C41.5345 37.8011 41.4509 37.8596 41.4175 37.9349V37.868ZM41.3505 37.868C41.3505 37.868 41.3506 37.9349 41.4091 37.868C41.4676 37.8011 41.3924 37.8261 41.3505 37.9014V37.868ZM40.5979 37.0316C40.5979 37.0316 40.5979 37.2407 40.6648 36.9647C40.648 36.9731 40.6313 36.948 40.5979 37.0484V37.0316ZM41.0662 36.7556C41.0662 36.8058 41.0662 36.6887 41.0244 36.7556C41.0829 36.6135 41.0746 36.7055 41.0996 36.6887C41.1247 36.672 41.0578 36.764 41.0662 36.7724V36.7556ZM41.1247 36.3291C41.1247 36.3877 41.1247 36.3291 41.1247 36.2873C41.1247 36.2455 41.1749 36.2873 41.2 36.2873C41.1247 36.4713 41.1916 36.212 41.1247 36.3458V36.3291ZM41.5429 34.8739C41.6182 34.7317 41.5429 34.8739 41.6265 34.8154C41.6098 34.9157 41.5596 34.9074 41.5429 34.8906V34.8739ZM40.5059 36.6386C40.5059 36.5967 40.5059 36.8393 40.5059 36.9396C40.5059 36.8727 40.5142 36.7138 40.5059 36.6553V36.6386Z" fill="white"/>
<path d="M126.806 16.2156C126.806 16.3327 126.923 16.3494 126.99 16.3996C127.04 16.1989 126.881 16.341 126.806 16.2156ZM149.705 28.7605C149.703 28.728 149.711 28.6956 149.727 28.6673C149.743 28.6391 149.768 28.6163 149.797 28.6016C149.851 28.6052 149.904 28.6196 149.953 28.644C150.002 28.6684 150.046 28.7024 150.081 28.7438C149.897 28.8776 149.872 28.6518 149.721 28.7605H149.705ZM126.288 15.9061C126.288 15.7723 126.095 15.8309 126.095 15.6887C126.204 15.764 126.346 15.7305 126.405 15.789C126.463 15.8476 126.304 15.8309 126.304 15.9061H126.288ZM123.544 15.12C123.31 15.2538 122.984 15.0447 122.792 15.12C123.043 14.9527 123.31 15.1283 123.569 15.1283L123.544 15.12ZM122.248 15.0113C122.44 14.8942 122.959 14.936 122.499 15.0113H122.248ZM125.342 13.7902C125.301 13.8738 125.058 13.7902 125.008 13.7902C125.117 13.7149 125.217 13.7651 125.368 13.7902H125.342ZM124.029 13.6982C124.029 13.5644 124.105 13.556 124.213 13.556C124.213 13.6397 124.138 13.6731 124.055 13.6982H124.029ZM126.112 13.5142C126.112 13.3971 126.346 13.556 126.346 13.439C126.488 13.5226 126.162 13.5895 126.137 13.5142H126.112ZM131.13 13.0459C131.188 12.8452 131.523 13.0459 131.581 13.1128C131.436 13.1424 131.284 13.1187 131.155 13.0459H131.13ZM145.18 25.733C145.281 25.6745 145.381 25.8166 145.481 25.8334C145.431 25.8424 145.378 25.8379 145.33 25.8203C145.281 25.8027 145.238 25.7726 145.205 25.733H145.18ZM147.689 27.2635C147.689 27.2635 147.689 27.2635 147.689 27.2133C147.447 26.7952 146.853 26.2934 146.677 25.9505C147.231 26.4086 147.653 27.0062 147.898 27.6817C147.974 28.0413 147.898 28.4093 148.35 28.4093C148.287 28.4385 148.219 28.4536 148.149 28.4536C148.08 28.4536 148.011 28.4385 147.948 28.4093C147.689 28.2336 147.948 27.6566 147.773 27.389C147.673 27.2468 147.522 27.3053 147.463 27.1213C147.555 27.1213 147.614 27.2217 147.689 27.2635ZM126.488 15.881C126.488 15.7054 126.639 15.881 126.697 15.881C126.756 15.881 126.622 15.7054 126.505 15.7305C126.555 15.7305 126.564 15.6051 126.647 15.6218C126.346 15.3374 126.221 15.4629 125.928 15.3709C125.928 15.3207 126.003 15.3709 126.003 15.2873C125.692 15.1511 125.343 15.1274 125.016 15.2203C125.016 15.1283 125.108 15.1367 125.2 15.1451C125.2 15.0113 124.849 15.1033 125.025 14.9276C124.765 14.9276 124.807 15.0113 124.556 14.9276C124.816 14.8524 124.866 14.7436 125.167 14.7687C125.167 14.7102 125.05 14.7102 124.991 14.6851C124.933 14.66 125.15 14.6851 125.242 14.6851C124.789 14.5117 124.303 14.4431 123.82 14.4844C124.047 14.3762 124.3 14.3384 124.548 14.3757C124.326 14.2935 124.09 14.2593 123.854 14.2753C124.071 14.1666 123.804 14.1666 123.695 14.1164C124.289 14.0411 124.673 14.0662 125.083 14.0411C125.493 14.016 125.92 13.9826 126.555 13.9742C126.375 13.9208 126.183 13.9208 126.003 13.9742C125.953 13.9742 125.878 13.8488 126.003 13.8488C126.129 13.8488 125.819 13.9826 125.777 13.7986C125.945 13.5142 126.497 13.6648 126.773 13.556C126.773 13.4891 126.664 13.5059 126.714 13.3804C126.547 13.3804 126.756 13.5728 126.513 13.4891C126.714 13.1713 127.024 13.3804 127.249 13.3971C127.475 13.3742 127.702 13.3742 127.927 13.3971C127.801 13.2131 127.375 13.2884 127.09 13.2215C127.023 13.2215 127.09 13.2215 127.166 13.2215C127.781 13.2116 128.395 13.2451 129.006 13.3219C128.855 13.0793 128.596 13.2132 128.253 13.1713C128.253 13.1713 128.328 13.1713 128.378 13.1713C127.67 13.0113 126.94 12.9801 126.221 13.0793C126.054 13.1416 125.883 13.1947 125.71 13.2382C125.543 13.2382 125.192 13.2382 125.016 13.4306C124.774 13.3386 124.69 13.4306 124.523 13.5477C124.523 13.4724 124.581 13.439 124.523 13.4222C124.464 13.4055 124.473 13.556 124.414 13.5895C124.356 13.623 124.188 13.4139 124.113 13.5895C124.113 13.3888 123.845 13.5895 123.611 13.6731C123.695 13.7317 123.862 13.6731 123.887 13.8153C123.528 13.9742 123.193 13.8153 122.792 13.9073C123.124 13.8164 123.47 13.7881 123.812 13.8237C123.762 13.6815 123.536 13.7568 123.385 13.7317C124.392 13.1854 125.499 12.8496 126.639 12.7448C127.271 12.7114 127.905 12.7114 128.537 12.7448C129.13 12.7805 129.718 12.8729 130.294 13.0208C130.235 13.255 130.67 13.4139 130.979 13.4891C130.879 13.556 130.929 13.6062 130.82 13.7149C130.77 13.648 130.595 13.7149 130.444 13.6397C130.561 13.7986 131.105 13.7484 131.398 13.8906C131.398 13.8069 131.272 13.8404 131.222 13.7986C131.172 13.7568 131.54 13.8404 131.623 13.7986C131.453 13.6761 131.248 13.6116 131.038 13.6146C131.147 13.3888 131.749 13.8488 131.983 13.7651C132.092 13.8404 131.916 13.8655 131.849 13.8153C132.17 13.9734 132.515 14.078 132.869 14.1248C132.625 14.0166 132.37 13.9353 132.108 13.8822C132.376 13.7568 132.769 14.0913 133.154 14.108C133.154 14.2418 133.037 14.2167 132.936 14.1833C132.987 14.3255 133.204 14.2586 133.221 14.1248C133.271 14.1693 133.333 14.1991 133.4 14.2109C133.466 14.2227 133.534 14.216 133.597 14.1917C133.037 14.0997 132.518 13.6815 131.924 13.5811C131.924 13.6397 132.008 13.6397 132.058 13.6564C131.966 13.7902 131.657 13.5393 131.347 13.5226C131.385 13.4898 131.432 13.4693 131.481 13.464C131.28 13.2884 130.77 13.3386 130.553 13.1797C131.28 13.2884 131.958 13.4724 132.652 13.6397C133.351 13.8087 134.026 14.0674 134.659 14.4091C134.408 14.5178 133.998 14.2669 133.706 14.2837C133.942 14.4078 134.192 14.5032 134.45 14.568C134.141 14.6767 133.756 14.2837 133.38 14.3087C134.216 14.6349 134.927 14.8942 135.688 15.1451C136.449 15.396 137.218 15.6803 138.105 15.9814C137.531 15.7241 136.942 15.5034 136.34 15.3207C136.359 15.3042 136.382 15.2952 136.407 15.2952C136.432 15.2952 136.456 15.3042 136.474 15.3207C136.123 15.1283 135.345 14.936 134.969 14.7269C135.019 14.6516 135.169 14.7771 135.27 14.7854C135.093 14.6591 134.894 14.5656 134.684 14.5095C135.7 14.6502 136.705 14.8541 137.695 15.12C137.695 15.1869 137.795 15.2036 137.695 15.304C139.836 16.2658 142.169 17.1523 143.8 18.3984C143.876 18.3984 143.926 18.3399 144.001 18.3984C144.508 18.8047 145.051 19.1631 145.623 19.4689C146.249 19.7803 146.815 20.1992 147.296 20.7067C147.58 21.0328 148.091 21.1081 148.191 21.543C148.731 21.924 149.248 22.3374 149.738 22.7808C150.19 23.2056 150.541 23.7255 150.767 24.3029C150.841 24.3798 150.911 24.4608 150.976 24.5454C150.976 24.6709 150.892 24.7796 150.934 24.905C151.202 24.9636 151.252 25.3149 151.403 25.6243C151.431 25.6397 151.462 25.6477 151.495 25.6477C151.527 25.6477 151.558 25.6397 151.587 25.6243C151.361 25.6243 151.528 25.5407 151.352 25.3316C151.352 25.273 151.603 25.5323 151.704 25.6327C151.561 25.6327 151.561 25.8501 151.453 25.7246C151.5 26.0339 151.633 26.3237 151.837 26.561C151.695 26.561 151.779 26.4857 151.679 26.4606C151.679 26.7115 151.578 26.9624 151.879 27.113C151.578 27.23 151.929 27.7068 151.461 27.8657C151.377 27.9075 151.511 27.9911 151.52 28.0496C151.311 28.1082 151.403 28.4427 150.993 28.5431C150.842 28.3256 150.265 28.6434 149.964 28.6267C149.847 28.7187 150.148 28.7187 149.964 28.7773C149.872 28.5765 149.579 28.5849 149.37 28.5264C149.161 28.4678 149.37 28.2336 149.37 28.0915C149.069 27.9242 148.751 27.9577 148.534 27.6315C148.484 27.5562 148.467 27.4809 148.425 27.4224C148.383 27.3639 148.3 27.4224 148.3 27.4224C148.3 27.4224 148.3 27.2886 148.3 27.2384C148.3 27.1882 148.032 27.2384 147.982 27.1715C147.932 27.1046 147.907 26.9541 147.873 26.9206C147.84 26.8872 147.539 26.6781 147.38 26.5275L146.669 25.8417L145.874 25.1392C145.333 24.6542 144.754 24.2124 144.143 23.8178C143.817 23.592 143.449 23.3913 143.14 23.1655L142.178 22.4881L141.157 21.8859C140.465 21.4903 139.75 21.1356 139.016 20.8238C138.975 20.8238 138.707 20.6063 138.481 20.4976C135.307 19.1667 132.014 18.139 128.646 17.4283C128.646 17.353 128.554 17.4283 128.646 17.3028C128.587 17.3028 128.571 17.3028 128.562 17.3697C128.412 17.2693 128.403 17.2443 128.261 17.1439C127.91 16.9348 127.325 16.893 127.132 16.6003C127.714 16.8577 128.315 17.0674 128.93 17.2275C128.74 17.0648 128.522 16.9373 128.286 16.8512C128.166 16.8205 128.053 16.7663 127.954 16.6916C127.855 16.617 127.772 16.5234 127.709 16.4163C127.483 16.5166 127.4 16.2407 127.258 16.4163C127.191 15.789 126.664 16.0316 126.488 15.881ZM124.18 14.2084C124.302 14.2 124.425 14.2 124.548 14.2084C124.632 14.0829 124.163 14.1916 124.18 14.2335V14.2084ZM126.237 13.7819C126.12 13.8655 126.053 13.7233 126.003 13.8655C126.12 13.8906 126.221 14.0077 126.237 13.8069V13.7819ZM129.808 17.1857C129.959 17.1857 129.976 17.1439 130.076 17.2359C130.118 17.1021 129.834 17.1439 129.808 17.2108V17.1857ZM129.44 17.1188C129.516 17.1188 129.65 17.2108 129.683 17.1188C129.667 17.1011 129.647 17.0874 129.625 17.0788C129.603 17.0702 129.579 17.067 129.555 17.0695C129.532 17.0719 129.509 17.0799 129.489 17.0929C129.469 17.1058 129.452 17.1233 129.44 17.1439V17.1188ZM151.369 25.4821C151.269 25.3232 151.152 24.8883 150.926 25.0556C151.068 25.273 151.202 25.4821 151.394 25.5239L151.369 25.4821ZM126.012 15.7305C125.961 15.7807 125.936 15.6552 125.802 15.7305C125.802 15.58 125.945 15.6803 126.02 15.6552C126.095 15.6301 125.97 15.764 126.012 15.7723V15.7305ZM125.443 15.2956C125.443 15.3625 125.401 15.2956 125.443 15.2538C125.485 15.212 125.644 15.2538 125.761 15.2538C125.702 15.4545 125.51 15.1869 125.468 15.3374L125.443 15.2956ZM124.431 13.7735C124.473 13.6146 124.657 13.7735 124.69 13.6899C124.807 13.8237 124.531 13.8237 124.431 13.8153V13.7735ZM151.98 27.0795C151.896 27.0293 151.904 26.5861 151.98 26.5777C152.021 26.837 151.938 26.9457 151.98 27.1213V27.0795Z" fill="white"/>
<path d="M186.386 122.33C186.269 122.33 186.177 122.556 186.077 122.698C186.261 122.815 186.21 122.472 186.386 122.33ZM152.096 167.776C152.214 167.776 152.331 167.776 152.364 167.835C152.25 168.005 152.095 168.143 151.912 168.236C151.745 168.06 152.23 167.943 152.096 167.776ZM186.98 121.343C187.114 121.343 187.181 120.958 187.323 120.983C187.212 121.18 187.115 121.384 187.03 121.594C186.93 121.602 187.055 121.393 186.98 121.343ZM189.363 115.89C189.479 115.376 189.621 114.867 189.79 114.368C189.711 114.896 189.568 115.413 189.363 115.907V115.89ZM190.133 113.289C190.133 113.732 189.848 114.769 190.024 113.799C190.066 113.649 190.099 113.481 190.133 113.306V113.289ZM189.631 119.888C189.636 119.653 189.705 119.425 189.832 119.227C189.809 119.464 189.74 119.693 189.631 119.904V119.888ZM190.467 117.329C190.601 117.329 190.551 117.521 190.467 117.73C190.392 117.671 190.409 117.521 190.442 117.345L190.467 117.329ZM189.489 121.443C189.598 121.443 189.305 121.878 189.422 121.903C189.238 122.129 189.372 121.493 189.464 121.46L189.489 121.443ZM186.98 131.044C187.155 131.161 186.787 131.789 186.645 131.881C186.706 131.588 186.822 131.31 186.988 131.061L186.98 131.044ZM160.928 159.839C160.928 159.99 160.635 160.199 160.535 160.366C160.609 160.156 160.75 159.977 160.936 159.856L160.928 159.839ZM156.412 164.38C156.412 164.422 156.454 164.38 156.496 164.38C157.038 164.053 157.561 163.693 158.06 163.302C158.595 162.909 159.088 162.524 159.431 162.29C158.762 162.867 158.06 163.369 157.407 163.854C156.804 164.273 156.16 164.629 155.484 164.916C154.748 165.175 154.12 165.242 153.752 165.861C153.763 165.751 153.797 165.646 153.852 165.55C153.906 165.455 153.981 165.373 154.07 165.309C154.597 164.857 155.5 164.991 156.119 164.59C156.445 164.372 156.462 164.163 156.83 163.987C156.709 164.137 156.568 164.269 156.412 164.38ZM186.905 121.728C187.089 121.728 186.838 122.045 186.804 122.163C186.876 122.125 186.937 122.07 186.983 122.003C187.028 121.936 187.056 121.858 187.063 121.778C187.063 121.895 187.155 121.928 187.063 122.104C187.362 121.662 187.599 121.181 187.766 120.674C187.766 120.674 187.766 120.824 187.766 120.849C188.091 120.223 188.312 119.548 188.418 118.851C188.502 118.851 188.418 119.06 188.418 119.235C188.56 119.235 188.661 118.533 188.728 118.934C188.78 118.612 188.852 118.294 188.945 117.981C188.947 118.412 188.882 118.841 188.753 119.252C188.836 119.21 188.887 119.043 188.945 118.918C189.037 119.06 188.82 119.227 188.795 119.428C189.212 118.531 189.54 117.595 189.773 116.634C189.738 117.142 189.633 117.643 189.464 118.123C189.661 117.681 189.826 117.226 189.957 116.76C189.957 117.228 190.083 116.701 190.191 116.501C189.614 118.859 189.447 119.628 188.703 122.179C188.866 121.835 188.989 121.473 189.071 121.1C189.071 121.008 189.263 120.883 189.213 121.1C189.288 121.1 189.213 120.707 189.388 120.674C189.581 121.059 189.079 122.071 189.046 122.656C189.121 122.656 189.154 122.439 189.255 122.564C189.355 122.246 189.037 122.606 189.255 122.154C189.455 122.589 189.087 123.174 188.945 123.593C188.823 124.038 188.678 124.476 188.51 124.906C188.794 124.415 189.014 123.889 189.163 123.342C189.238 123.225 189.163 123.4 189.163 123.501C188.87 124.471 188.326 126.152 187.975 127.005C188.301 126.729 188.326 126.227 188.577 125.583C188.577 125.583 188.577 125.725 188.535 125.817C189.117 124.495 189.56 123.116 189.857 121.703C189.94 121.318 189.915 121.008 189.999 120.699C190.165 120.256 190.233 119.782 190.2 119.311C190.356 119.004 190.406 118.654 190.342 118.315C190.417 118.315 190.417 118.466 190.467 118.315C190.517 118.165 190.359 118.182 190.367 118.056C190.375 117.931 190.643 117.663 190.568 117.471C190.752 117.571 190.701 116.952 190.76 116.484C190.66 116.626 190.609 116.961 190.476 116.969C190.603 116.236 190.767 115.51 190.969 114.794C190.889 115.484 190.734 116.162 190.509 116.818C190.676 116.768 190.727 116.308 190.827 116.024C190.815 118.219 190.535 120.404 189.991 122.531C189.438 124.899 188.654 127.207 187.649 129.422C187.44 129.313 187.013 130.124 186.721 130.701C186.721 130.501 186.637 130.593 186.587 130.392C186.695 130.3 186.746 129.966 186.905 129.69C186.585 130.272 186.306 130.876 186.068 131.496C186.143 131.546 186.194 131.253 186.261 131.161C186.327 131.069 186.043 131.755 186.06 131.914C186.295 131.575 186.478 131.203 186.603 130.81C186.779 130.994 185.943 132.165 185.884 132.592C185.734 132.792 185.801 132.474 185.884 132.349C185.516 132.965 185.194 133.608 184.922 134.273C185.194 133.807 185.44 133.327 185.658 132.834C185.417 133.511 185.118 134.166 184.764 134.791C184.63 134.791 184.713 134.582 184.822 134.39C184.621 134.498 184.554 134.9 184.688 134.925C184.523 135.129 184.419 135.375 184.387 135.636C184.839 134.582 185.633 133.604 186.06 132.525C185.993 132.525 185.943 132.684 185.884 132.784C185.801 132.608 186.269 132.031 186.461 131.437C186.473 131.521 186.473 131.605 186.461 131.688C186.762 131.295 187.022 130.359 187.298 129.957C186.237 132.634 184.947 135.214 183.442 137.668C183.65 137.059 183.896 136.464 184.178 135.887C183.893 136.343 183.633 136.815 183.4 137.3C183.459 136.748 184.153 135.979 184.337 135.285L179.411 144.208C180.247 142.904 180.707 141.975 181.335 140.863C181.335 140.921 181.335 140.988 181.293 141.105C181.744 140.428 182.439 138.956 182.965 138.245C183.024 138.337 182.773 138.63 182.706 138.806C182.977 138.461 183.21 138.088 183.4 137.693C182.698 139.567 181.728 141.315 180.774 143.28C180.707 143.28 180.624 143.472 180.557 143.322C178.237 147.342 175.612 151.178 172.704 154.796C172.62 154.93 172.704 154.98 172.612 155.114C170.939 156.862 169.342 159.379 167.251 161.177C166.624 161.729 166.138 162.524 165.478 162.85C165.101 163.268 164.641 163.686 164.165 164.188C163.688 164.69 163.161 165.142 162.618 165.576C161.722 166.374 160.713 167.033 159.623 167.533L159.097 167.893C158.921 167.893 158.787 167.893 158.57 167.968C158.327 168.353 157.733 168.52 157.123 168.805C157.091 168.832 157.069 168.868 157.06 168.909C157.051 168.95 157.055 168.992 157.073 169.03C157.24 168.746 157.24 168.938 157.683 168.654C157.775 168.654 157.198 169.039 156.981 169.189C157.098 168.997 156.705 169.081 156.981 168.888C156.413 169.06 155.873 169.31 155.375 169.633C155.375 169.474 155.525 169.541 155.617 169.407C155.191 169.507 154.831 169.449 154.413 169.867C154.413 169.524 153.343 170.076 153.301 169.557C153.301 169.474 153.042 169.658 152.933 169.683C152.933 169.457 152.272 169.683 152.297 169.198C152.791 168.955 152.506 168.361 152.724 167.985C152.615 167.868 152.439 168.244 152.423 168.035C152.883 167.851 153.05 167.5 153.301 167.199C153.694 166.948 153.878 167.04 154.137 166.965C154.551 166.465 155.036 166.028 155.576 165.668C155.743 165.568 155.885 165.526 156.027 165.434C156.063 165.417 156.095 165.392 156.118 165.36C156.141 165.327 156.156 165.29 156.161 165.25C156.228 165.2 156.387 165.192 156.504 165.108C156.621 165.024 156.755 164.698 156.864 164.606C156.972 164.514 157.298 164.397 157.382 164.339C157.75 164.096 158.051 163.745 158.436 163.435C160.84 161.52 163.079 159.405 165.127 157.113L166.799 155.156C169.073 152.592 171.148 149.857 173.005 146.976C173.055 146.901 173.507 146.349 173.791 145.898C175.564 143.138 177.496 139.817 179.311 136.355C181.125 132.893 182.807 129.288 184.228 126.001C184.32 126.001 184.337 125.801 184.37 126.001C184.429 125.893 184.37 125.859 184.37 125.834C184.571 125.516 184.596 125.508 184.797 125.207C185.176 124.418 185.612 123.657 186.102 122.932C185.533 124.086 184.772 125.357 184.287 126.595C184.847 125.951 185.307 124.546 185.959 124.128C186.001 123.668 186.327 123.526 186.252 123.208C186.578 123.191 186.654 122.071 186.896 121.728H186.905ZM189.865 117.429L189.664 118.165C189.773 118.299 189.865 117.395 189.865 117.429ZM189.121 121.611C189.121 121.368 189.288 121.268 189.179 121.151C189.104 121.343 188.92 121.519 189.112 121.585L189.121 121.611ZM183.392 128.502C183.258 128.803 183.325 128.828 183.149 129.037C183.283 129.104 183.442 128.519 183.384 128.477L183.392 128.502ZM183.71 127.749C183.71 127.9 183.476 128.176 183.551 128.243C183.618 128.176 183.666 128.093 183.693 128.003C183.719 127.912 183.722 127.816 183.701 127.724L183.71 127.749ZM156.947 168.805C157.273 168.621 158.051 168.345 157.917 168.102C157.559 168.277 157.229 168.505 156.939 168.78L156.947 168.805ZM187.356 120.757C187.356 120.64 187.482 120.624 187.49 120.339C187.657 120.339 187.49 120.632 187.431 120.791C187.356 120.732 187.356 120.682 187.356 120.757ZM188.126 119.679C188.075 119.62 188.126 119.603 188.192 119.612C188.17 119.838 188.116 120.06 188.034 120.272C187.816 120.18 188.192 119.863 188.084 119.67L188.126 119.679ZM190.158 118.056C190.292 118.173 190.041 118.491 190.099 118.591C189.915 118.784 190.049 118.249 190.116 118.056H190.158ZM153.903 170.026C154.037 169.917 154.798 169.808 154.739 169.934C154.459 169.95 154.18 169.981 153.903 170.026Z" fill="white"/>
<path d="M158.257 128.635C158.14 128.635 158.157 128.827 158.115 128.936C158.324 128.961 158.148 128.769 158.257 128.635ZM142.576 160.65C142.66 160.65 142.743 160.65 142.785 160.716C142.74 160.859 142.649 160.982 142.526 161.068C142.375 160.917 142.693 160.834 142.576 160.65ZM158.466 127.849C158.592 127.807 158.508 127.564 158.65 127.539C158.583 127.706 158.65 127.899 158.6 127.991C158.55 128.083 158.525 127.874 158.449 127.874L158.466 127.849ZM158.868 123.851C158.709 123.525 158.868 123.065 158.817 122.797C158.96 123.132 158.784 123.508 158.851 123.851H158.868ZM158.868 122.036C159.01 122.312 159.01 123.031 158.918 122.379L158.868 122.036ZM160.457 126.218C160.365 126.168 160.373 125.825 160.415 125.758C160.448 125.892 160.415 126.034 160.415 126.251L160.457 126.218ZM160.356 124.436C160.482 124.395 160.498 124.528 160.507 124.671C160.381 124.687 160.34 124.587 160.314 124.47L160.356 124.436ZM160.833 127.213C160.95 127.213 160.833 127.531 160.942 127.506C160.825 127.715 160.716 127.288 160.791 127.246L160.833 127.213ZM162.196 133.812C162.405 133.812 162.305 134.339 162.196 134.447C162.134 134.267 162.119 134.074 162.154 133.887L162.196 133.812ZM148.171 154.971C148.171 155.088 147.995 155.205 147.937 155.33C147.945 155.266 147.967 155.204 148 155.148C148.033 155.092 148.077 155.043 148.129 155.004L148.171 154.971ZM145.311 158.04C145.311 158.04 145.311 158.04 145.378 158.04C145.996 157.681 146.916 157.028 147.36 156.735C146.931 157.096 146.475 157.423 145.996 157.714C145.59 157.989 145.148 158.209 144.683 158.366C144.182 158.525 143.672 158.442 143.504 158.994C143.491 158.908 143.497 158.82 143.523 158.738C143.55 158.655 143.594 158.579 143.655 158.517C143.866 158.374 144.12 158.309 144.374 158.333C144.631 158.331 144.885 158.274 145.118 158.166C145.336 158.023 145.319 157.839 145.57 157.747C145.537 157.89 145.353 157.973 145.269 158.074L145.311 158.04ZM158.55 128.083C158.725 128.083 158.608 128.3 158.617 128.376C158.666 128.345 158.702 128.298 158.721 128.243C158.739 128.188 158.738 128.129 158.717 128.074C158.759 128.15 158.859 128.141 158.859 128.267C159.068 127.79 158.918 127.631 158.985 127.205C159.027 127.205 158.985 127.305 159.077 127.297C159.163 126.832 159.137 126.353 159.001 125.9C159.093 125.9 159.102 126.017 159.102 126.143C159.227 126.084 159.102 125.641 159.294 125.867C159.246 125.654 159.21 125.439 159.185 125.223C159.332 125.478 159.418 125.765 159.436 126.059C159.495 126.009 159.478 125.892 159.495 125.8C159.629 125.867 159.495 126.025 159.495 126.151C159.591 125.496 159.591 124.832 159.495 124.177C159.622 124.491 159.693 124.825 159.704 125.164C159.729 124.844 159.729 124.522 159.704 124.202C159.829 124.495 159.796 124.135 159.838 123.976C160.064 125.574 160.139 126.092 160.39 127.857C160.412 127.601 160.39 127.344 160.323 127.096C160.323 127.037 160.432 126.912 160.448 127.029C160.515 127.029 160.281 126.803 160.448 126.728C160.749 126.904 160.666 127.665 160.85 128.024C160.908 128.024 160.85 127.865 161 127.916C161 127.69 160.825 127.999 160.858 127.665C161.209 127.874 161.076 128.334 161.109 128.626C161.156 128.934 161.181 129.244 161.184 129.555C161.335 129.337 161.184 128.777 161.184 128.409C161.184 128.317 161.226 128.409 161.226 128.509C161.318 129.187 161.418 130.374 161.444 131.018C161.636 130.767 161.444 130.45 161.444 129.981C161.494 129.981 161.485 130.082 161.494 130.14C161.531 129.684 161.531 129.225 161.494 128.769C161.434 128.259 161.342 127.753 161.218 127.255C161.151 126.996 161.025 126.82 160.992 126.603C160.958 126.385 160.992 125.917 160.708 125.708C160.738 125.592 160.736 125.47 160.702 125.355C160.668 125.24 160.603 125.136 160.515 125.055C160.59 125.055 160.641 125.131 160.641 125.055C160.641 124.98 160.498 125.005 160.457 124.921C160.415 124.838 160.59 124.612 160.457 124.512C160.666 124.512 160.415 124.16 160.331 123.859C160.281 123.976 160.331 124.194 160.214 124.236C160.099 123.756 160.038 123.265 160.03 122.772C160.145 123.217 160.202 123.676 160.197 124.135C160.34 124.06 160.248 123.767 160.256 123.567C161.418 125.616 162.238 129.655 162.113 132.649C161.87 132.649 161.778 133.26 161.753 133.695C161.669 133.569 161.628 133.644 161.502 133.536C161.561 133.444 161.502 133.226 161.502 133.009C161.368 133.21 161.502 133.92 161.427 134.364C161.519 134.364 161.427 134.18 161.477 134.104C161.527 134.029 161.477 134.539 161.594 134.631C161.674 134.36 161.694 134.075 161.653 133.795C161.887 133.87 161.577 134.815 161.703 135.108C161.653 135.275 161.586 135.049 161.628 134.949C161.527 135.431 161.477 135.921 161.477 136.413C161.546 136.048 161.59 135.679 161.611 135.309C161.77 135.635 161.494 136.262 161.527 136.781C161.393 136.781 161.402 136.664 161.427 136.513C161.293 136.63 161.385 136.898 161.519 136.889C161.484 136.973 161.465 137.062 161.465 137.153C161.465 137.243 161.484 137.333 161.519 137.416C161.519 136.63 161.887 135.811 161.878 135.008C161.82 135.008 161.878 135.141 161.828 135.217C161.686 135.125 161.828 134.64 161.828 134.221C161.865 134.268 161.89 134.322 161.904 134.38C162.029 134.054 161.903 133.394 162.021 133.067C162.102 135.034 161.922 137.002 161.485 138.922C161.36 138.612 161.552 137.985 161.485 137.592C161.418 137.768 161.36 138.428 161.318 138.687C161.184 138.303 161.494 137.65 161.393 137.157C161.059 139.557 160.708 141.481 160.206 144.09C160.524 143.053 160.574 142.334 160.774 141.489C160.799 141.51 160.817 141.538 160.826 141.57C160.835 141.601 160.834 141.634 160.825 141.665C161.025 141.121 161.059 139.992 161.251 139.423C161.335 139.474 161.251 139.716 161.251 139.85C161.356 139.581 161.429 139.3 161.469 139.014C161.481 139.714 161.456 140.415 161.393 141.113C161.31 141.824 161.176 142.543 161.117 143.312C161.05 143.312 161.042 143.471 160.933 143.379C160.194 146.582 158.916 149.637 157.153 152.412C157.103 152.512 157.153 152.562 157.153 152.663C156.85 153.006 156.571 153.369 156.317 153.75C156.063 154.162 155.783 154.559 155.48 154.937C155.196 155.33 154.903 155.732 154.586 156.117C154.29 156.507 153.944 156.855 153.557 157.154C153.089 157.513 152.804 158.124 152.302 158.299C151.274 159.445 149.425 161.135 148.196 161.377L147.845 161.628C147.711 161.628 147.602 161.544 147.443 161.628C147.31 161.921 146.9 162.021 146.482 162.188C146.461 162.216 146.449 162.25 146.449 162.285C146.449 162.319 146.461 162.353 146.482 162.381C146.565 162.138 146.607 162.331 146.891 162.121C146.958 162.121 146.582 162.406 146.44 162.506C146.498 162.356 146.214 162.356 146.398 162.239C146.003 162.287 145.628 162.44 145.311 162.682C145.311 162.54 145.411 162.623 145.453 162.506C145.152 162.556 144.867 162.448 144.617 162.791C144.525 162.473 143.889 162.908 143.78 162.423C143.78 162.339 143.613 162.498 143.538 162.515C143.496 162.297 143.053 162.448 142.977 162.021C143.287 161.829 142.977 161.252 143.053 160.917C142.952 160.8 142.894 161.143 142.844 160.917C143.145 160.775 143.195 160.449 143.329 160.19C143.462 159.93 143.738 160.106 143.939 160.072C144.24 159.679 144.324 159.378 144.826 159.111C144.934 159.035 145.035 159.01 145.127 158.943C145.151 158.927 145.169 158.904 145.181 158.877C145.193 158.851 145.197 158.822 145.194 158.793C145.244 158.793 145.361 158.793 145.445 158.726C145.528 158.659 145.57 158.4 145.637 158.333C145.752 158.272 145.872 158.222 145.996 158.182C146.239 158.015 146.44 157.781 146.699 157.589C147.402 157.028 148.138 156.351 148.932 155.707C149.675 155.007 150.375 154.264 151.031 153.482C151.357 153.039 151.7 152.579 152.043 152.177C153.411 150.476 154.487 148.56 155.23 146.507C155.23 146.449 155.48 146.056 155.606 145.738C157.044 141.799 157.621 136.145 157.63 131.428C157.705 131.428 157.63 131.278 157.755 131.37C157.755 131.294 157.713 131.286 157.663 131.278C157.722 131.035 157.755 131.018 157.814 130.784C157.964 130.232 157.923 129.387 158.173 129.053C157.995 129.945 157.9 130.853 157.889 131.763C158.148 131.227 158.023 130.249 158.449 129.831C158.316 129.538 158.575 129.362 158.391 129.195C158.759 129.095 158.408 128.401 158.508 128.116L158.55 128.083ZM159.754 124.687L159.821 125.189C160.013 125.231 159.813 124.687 159.754 124.687ZM160.473 127.43C160.381 127.28 160.473 127.171 160.365 127.129C160.415 127.28 160.314 127.43 160.507 127.422L160.473 127.43ZM157.78 133.151C157.78 133.368 157.847 133.368 157.78 133.544C157.973 133.552 157.889 133.159 157.814 133.143L157.78 133.151ZM157.78 132.624C157.78 132.724 157.722 132.942 157.78 132.959C157.839 132.975 157.914 132.649 157.831 132.616L157.78 132.624ZM146.373 162.121C146.599 162.021 147.134 161.854 146.992 161.611C146.758 161.745 146.549 161.918 146.373 162.121ZM158.533 127.422C158.475 127.355 158.6 127.305 158.533 127.121C158.675 127.062 158.6 127.313 158.633 127.414C158.667 127.514 158.541 127.364 158.533 127.422ZM158.884 126.586C158.817 126.586 158.884 126.536 158.884 126.527C158.884 126.519 158.943 126.82 158.968 126.971C158.801 126.929 159.043 126.628 158.918 126.544L158.884 126.586ZM160.248 125.03C160.415 125.03 160.248 125.331 160.373 125.373C160.306 125.524 160.256 125.122 160.248 124.988V125.03ZM144.357 162.933C144.433 162.832 144.959 162.799 144.951 162.933C144.747 162.896 144.539 162.882 144.332 162.891L144.357 162.933Z" fill="#69DA00"/>
<path d="M24.7537 94.882C24.6282 94.882 24.5613 95.0325 24.4777 95.1245C24.6617 95.2416 24.5864 94.9656 24.7537 94.882ZM30.7334 135.394C30.7334 135.31 30.6415 135.227 30.7334 135.151C30.8922 135.161 31.0442 135.219 31.1683 135.319C31.0596 135.561 30.8422 135.218 30.7334 135.394ZM25.2973 94.2046C25.4311 94.2046 25.4813 93.937 25.6235 93.9871C25.4813 94.1126 25.4311 94.3384 25.3475 94.4053C25.2638 94.4722 25.3726 94.238 25.2973 94.2046ZM28.0154 90.7505C28.1325 90.3658 28.6175 90.1317 28.7932 89.9142C28.6426 90.2404 28.2328 90.3993 28.0154 90.7505ZM29.4622 89.4375C29.295 89.7135 28.6844 90.1651 29.1862 89.68L29.4622 89.4375ZM27.8398 93.6192C27.7896 93.5355 27.9652 93.2344 28.0405 93.2093C28.0488 93.3766 27.9485 93.477 27.8398 93.661V93.6192ZM28.7514 92.1137C28.8768 92.1137 28.8099 92.2643 28.7514 92.3814C28.6761 92.3563 28.7012 92.2559 28.7514 92.1556V92.1137ZM27.6725 94.6227C27.7896 94.6645 27.522 94.8987 27.6725 94.9405C27.4885 95.1413 27.6139 94.7147 27.6725 94.7064V94.6227ZM26.7107 101.272C26.9114 101.347 26.7107 101.79 26.6103 101.874C26.5896 101.668 26.6242 101.46 26.7107 101.272ZM23.6665 128.87C23.8003 128.87 23.9174 129.163 24.0428 129.272C23.8722 129.189 23.7381 129.046 23.6665 128.87ZM27.1121 132.86C27.1121 132.86 27.1121 132.818 27.1121 132.793C26.878 132.417 26.5016 131.957 26.2173 131.538C25.9589 131.164 25.7216 130.776 25.5064 130.376C26.2507 131.572 27.1289 132.617 27.6139 133.587C27.915 134.148 28.0405 134.725 28.6761 134.842C28.5805 134.867 28.4805 134.87 28.3836 134.851C28.2866 134.832 28.1951 134.792 28.1157 134.733C27.6558 134.357 27.639 133.579 27.2794 133.06C27.0954 132.801 26.8947 132.818 26.7442 132.517C26.878 132.567 26.9951 132.734 27.1121 132.835V132.86ZM25.2304 94.4973C25.3977 94.5475 25.1719 94.7315 25.1468 94.8235C25.2304 94.7817 25.3475 94.7566 25.3809 94.5642C25.3809 94.6562 25.4729 94.6896 25.3809 94.8151C25.8075 94.4387 25.7573 94.2213 26.0249 93.845C26.0249 93.845 26.0249 93.9537 26.0249 93.9788C26.34 93.5764 26.5729 93.1161 26.7107 92.6239C26.786 92.6741 26.7107 92.7828 26.6605 92.8999C26.7943 92.8999 26.9365 92.4483 26.97 92.7577C27.154 92.4148 27.0536 92.4316 27.2627 92.1221C27.2237 92.4316 27.1303 92.7317 26.9867 93.0086C27.062 93.0086 27.1121 92.8748 27.179 92.8079C27.2543 92.9334 27.0452 93.0003 27.0118 93.1424C27.4404 92.6089 27.837 92.0504 28.1994 91.4698C28.0868 91.8004 27.9322 92.1152 27.7394 92.4065C27.9401 92.2225 28.1408 91.8712 28.3499 91.6287C28.2663 91.9381 28.467 91.6287 28.5924 91.545C27.8898 92.6708 27.328 93.8786 26.9198 95.1413C27.0627 94.9216 27.1647 94.678 27.2209 94.422C27.2209 94.3635 27.4049 94.3049 27.3547 94.422C27.43 94.422 27.3547 94.1377 27.5219 94.1544C27.6976 94.4555 27.271 95.0911 27.2627 95.4925C27.3296 95.4925 27.3547 95.3587 27.455 95.4925C27.5387 95.2834 27.2543 95.4925 27.455 95.2082C27.6725 95.5427 27.3463 95.8856 27.246 96.1699C27.1708 96.4687 27.0758 96.762 26.9616 97.0481C27.1791 96.9059 27.2794 96.354 27.4383 96.0278C27.5052 95.9525 27.4383 96.0278 27.4383 96.1365C27.2543 96.7805 26.9198 97.9012 26.7442 98.4866C27.0034 98.311 26.9532 97.9681 27.1121 97.5332C27.1121 97.5332 27.1121 97.6335 27.1121 97.6921C27.4846 96.82 27.7867 95.9194 28.0154 94.9991C28.0404 94.7766 28.0795 94.5559 28.1325 94.3384C28.2914 94.0652 28.3642 93.7504 28.3415 93.4352C28.4235 93.355 28.484 93.2556 28.5176 93.146C28.5512 93.0365 28.5568 92.9202 28.5339 92.8079C28.6008 92.8079 28.5924 92.9334 28.6426 92.8665C28.6928 92.7996 28.559 92.741 28.5674 92.649C28.5757 92.557 28.8684 92.4985 28.8099 92.3396C28.9688 92.4734 28.9855 92.0468 29.111 91.7792C28.9939 91.821 28.9102 92.0218 28.7848 91.98C28.9858 91.559 29.2703 91.1834 29.6211 90.876C29.3934 91.2347 29.139 91.5758 28.8601 91.8963C29.0106 91.8963 29.1361 91.6538 29.2699 91.5283C29.0106 92.5905 28.6175 94.0373 28.2161 95.6096C27.8147 97.1819 27.3798 98.8044 26.9365 100.176C26.7107 100.101 26.4765 100.661 26.3511 101.071C26.3009 100.937 26.2424 101.004 26.1504 100.862C26.2256 100.795 26.1922 100.561 26.2842 100.368C26.1002 100.527 26.0584 101.205 25.9162 101.648C25.9998 101.648 25.9747 101.481 26.0165 101.414C26.0584 101.347 25.958 101.832 26.0165 101.941C26.1536 101.7 26.2337 101.431 26.2507 101.154C26.4598 101.272 25.958 102.108 26.0333 102.417C25.9496 102.56 25.9246 102.342 25.9831 102.25C25.8114 102.696 25.6989 103.163 25.6486 103.638C25.7614 103.297 25.8481 102.948 25.9078 102.593C26.0333 102.936 25.682 103.496 25.6569 104.006C25.5231 104.006 25.5482 103.881 25.59 103.739C25.4395 103.831 25.5064 104.107 25.6402 104.107C25.599 104.186 25.574 104.273 25.5668 104.362C25.5597 104.451 25.5704 104.54 25.5984 104.625C25.6402 103.856 26.1169 103.112 26.2173 102.35C26.1587 102.35 26.1504 102.468 26.1336 102.543C25.9998 102.426 26.2758 101.999 26.3176 101.589C26.3282 101.645 26.3282 101.701 26.3176 101.757C26.5016 101.472 26.51 100.82 26.7107 100.544C26.2424 102.392 25.9747 104.241 25.4478 106.106C25.3057 105.804 25.5064 105.202 25.4478 104.818C25.336 105.16 25.263 105.513 25.2304 105.871C25.0715 105.495 25.4562 104.885 25.3893 104.391C24.8667 106.61 24.6389 108.887 24.7119 111.165C24.7871 110.128 24.7621 109.443 24.8206 108.606C24.8494 108.622 24.8717 108.647 24.8839 108.678C24.8961 108.708 24.8974 108.742 24.8875 108.773C24.9962 108.238 24.9962 107.143 25.1802 106.591C25.2639 106.641 25.1802 106.875 25.1802 107C25.2836 106.732 25.3511 106.45 25.3809 106.164C25.4395 107.502 25.3057 108.824 25.4395 110.245C25.3726 110.245 25.3893 110.404 25.2639 110.337C25.1539 113.34 25.3416 116.346 25.8242 119.311C25.8242 119.403 25.9496 119.378 25.9831 119.478C26.0416 121.051 26.97 122.707 27.3714 124.338C27.4718 124.864 27.915 125.266 27.8899 125.734C28.2077 126.345 28.7263 127.064 29.1193 127.792C29.5317 128.384 29.8583 129.031 30.0895 129.715L30.332 130.016C30.332 130.15 30.2567 130.259 30.332 130.401C30.608 130.501 30.7167 130.878 30.9425 131.237C31.0094 131.237 31.068 131.237 31.1349 131.195C30.8924 131.195 31.0513 131.112 30.8338 130.878C30.8338 130.811 31.1349 131.103 31.2603 131.212C31.1014 131.212 31.16 131.446 31.0094 131.313C31.1244 131.665 31.3395 131.976 31.6283 132.207C31.5029 132.274 31.5447 132.132 31.436 132.124C31.5363 132.391 31.5196 132.676 31.9043 132.784C31.6283 132.968 32.2221 133.42 31.8123 133.713C31.7538 133.78 31.9378 133.855 31.9796 133.922C31.7872 134.031 32.0799 134.424 31.7203 134.641C31.4276 134.39 31.0011 134.9 30.6415 134.9C30.5662 135.043 30.9174 135.009 30.7502 135.118C30.4909 134.842 30.148 134.875 29.8302 134.8C29.5375 134.574 29.5793 134.399 29.479 134.19C28.9862 134.023 28.5432 133.736 28.191 133.353C28.0907 133.236 28.0405 133.136 27.9568 133.035C27.9361 133.009 27.9092 132.989 27.8785 132.976C27.8479 132.962 27.8144 132.957 27.7812 132.96C27.7812 132.91 27.7812 132.768 27.6641 132.684C27.547 132.6 27.3045 132.534 27.2209 132.458C27.1387 132.327 27.066 132.19 27.0034 132.049C26.786 131.781 26.51 131.547 26.2842 131.212C24.8989 129.256 23.7743 127.128 22.9389 124.881C22.713 124.262 22.4538 123.618 22.2949 122.999C21.6392 120.48 21.1806 117.913 20.9233 115.322C20.9233 115.255 20.9233 114.711 20.9233 114.318C20.524 108.662 21.2256 102.981 22.989 97.5917C23.081 97.5917 23.0643 97.4412 23.1229 97.5917C23.1229 97.5081 23.1229 97.483 23.081 97.4579C23.2232 97.2154 23.2567 97.207 23.4072 96.9812C23.7668 96.4459 24.0595 95.526 24.4526 95.3085C23.8971 96.1743 23.4479 97.1037 23.1145 98.0768C23.5494 97.5833 23.8086 96.5045 24.3773 96.2285C24.3773 95.8689 24.6784 95.7936 24.5864 95.5427C24.9879 95.5594 24.9879 94.7064 25.2304 94.4722V94.4973ZM28.2077 91.9883C28.1157 92.1305 28.0321 92.281 27.9485 92.4399C28.0488 92.5737 28.2412 91.9883 28.2077 91.9967V91.9883ZM27.3714 94.7231C27.3714 94.5558 27.522 94.514 27.3714 94.4053C27.3296 94.5809 27.1707 94.6562 27.3463 94.7315L27.3714 94.7231ZM22.688 99.5404C22.6211 99.7829 22.688 99.7996 22.5709 99.9753C22.7047 100.034 22.7381 99.5989 22.6629 99.5487L22.688 99.5404ZM22.8469 98.9549C22.8469 99.072 22.7047 99.2978 22.7883 99.3396C22.8719 99.3815 22.897 99.0302 22.8218 98.9633L22.8469 98.9549ZM31.0513 131.262C30.9091 131.087 30.7 130.618 30.4825 130.786C30.6415 130.995 30.8422 131.237 31.0262 131.271L31.0513 131.262ZM25.6318 93.7948C25.6318 93.6944 25.7489 93.7111 25.7656 93.4853C25.9245 93.4853 25.7657 93.7111 25.7071 93.8282C25.6653 93.7864 25.6402 93.7446 25.6068 93.8031L25.6318 93.7948ZM26.4013 93.1173C26.3594 93.0672 26.4013 93.0672 26.4598 93.1173C26.5183 93.1675 26.3594 93.4184 26.2925 93.5773C26.1002 93.4519 26.4682 93.293 26.3762 93.1257L26.4013 93.1173ZM28.4168 92.5068C28.5255 92.6323 28.2663 92.7661 28.3165 92.8581C28.1492 92.9584 28.3081 92.6323 28.3917 92.5152L28.4168 92.5068ZM32.2305 132.943C32.1218 132.943 31.9461 132.425 32.0632 132.4C32.1134 132.584 32.0883 132.768 32.2054 132.952L32.2305 132.943Z" fill="#69DA00"/>
<path d="M92.7063 68.4699C92.606 68.403 92.514 68.4699 92.4304 68.5201C92.5642 68.6539 92.5474 68.4532 92.7063 68.4699ZM80.9977 94.1452C81.0479 94.1034 81.0814 94.0449 81.1901 94.0783C81.229 94.1193 81.2588 94.1681 81.2775 94.2214C81.2962 94.2748 81.3035 94.3314 81.2988 94.3878C81.0145 94.3878 81.1399 94.1703 80.9559 94.1452H80.9977ZM93.3252 68.219C93.434 68.2943 93.526 68.1103 93.6347 68.219C93.4925 68.219 93.4256 68.3863 93.342 68.3946C93.2583 68.403 93.342 68.311 93.2834 68.2525L93.3252 68.219ZM96.0433 66.9227C96.1688 66.6634 96.5702 66.7053 96.7207 66.5798C96.5451 66.8307 96.1938 66.7638 96.0015 66.9812L96.0433 66.9227ZM97.2476 66.4209C97.1138 66.6133 96.6455 66.7889 97.0302 66.5463L97.2476 66.4209ZM95.575 69.0386C95.575 68.955 95.7339 68.8379 95.8008 68.8463C95.8677 68.8546 95.6251 68.9968 95.5081 69.0721L95.575 69.0386ZM96.5033 68.3612C96.5953 68.4532 96.5033 68.5117 96.4531 68.5535C96.4373 68.5306 96.4275 68.504 96.4246 68.4762C96.4216 68.4485 96.4257 68.4204 96.4364 68.3946L96.5033 68.3612ZM95.299 69.716C95.391 69.7997 95.1317 69.8415 95.2237 69.9168C95.023 69.9669 95.1652 69.716 95.2321 69.7495L95.299 69.716ZM93.4842 73.7053C93.6514 73.8475 93.4005 74.0482 93.2918 74.0566C93.2951 73.9392 93.3395 73.8268 93.4172 73.7388L93.4842 73.7053ZM80.9392 87.923C81.0312 88.0066 80.9392 88.1738 80.9392 88.2826C80.9014 88.233 80.8783 88.1738 80.8724 88.1117C80.8665 88.0497 80.878 87.9871 80.9057 87.9313L80.9392 87.923ZM80.7719 91.2683C80.7719 91.2683 80.7719 91.2683 80.8221 91.2683C81.0312 90.7497 81.2068 89.8967 81.4075 89.5287C81.2402 90.3261 80.9585 91.0951 80.5712 91.8119C80.3287 92.1548 79.9523 92.3889 80.2701 92.7904C80.1991 92.7563 80.1372 92.706 80.0892 92.6435C80.0413 92.581 80.0087 92.5082 79.9941 92.4308C79.9941 92.0544 80.6214 91.8286 80.7301 91.469C80.7886 91.2766 80.6297 91.1679 80.7301 90.9839C80.7719 91.0508 80.7301 91.1763 80.7385 91.2766L80.7719 91.2683ZM93.2165 68.403C93.3587 68.5201 93.1329 68.5452 93.0911 68.5953C93.1831 68.5953 93.2834 68.6455 93.342 68.5285C93.342 68.587 93.4005 68.6623 93.342 68.7208C93.7601 68.6539 93.7434 68.4699 94.0278 68.3277C94.0278 68.3277 94.0278 68.3946 94.0278 68.4365C94.3464 68.3012 94.6153 68.0703 94.7972 67.7757C94.8557 67.851 94.7972 67.9096 94.7219 67.9597C94.8306 68.035 95.0063 67.7507 94.9979 67.9597C95.1903 67.7841 95.1066 67.7507 95.3157 67.6168C95.1735 67.851 95.2153 67.9681 94.9812 68.1521C95.0397 68.1521 95.1066 68.1521 95.1652 68.0936C95.2153 68.2274 95.023 68.1688 94.9812 68.2608C95.4004 68.0737 95.7962 67.8379 96.1604 67.5583C96.0306 67.7514 95.8661 67.9187 95.6753 68.0517C95.8762 67.963 96.0717 67.8625 96.2607 67.7507C96.1604 67.943 96.3611 67.8176 96.4698 67.8092C96.1338 68.057 95.8229 68.3371 95.5415 68.6455C95.2205 68.9596 94.9241 69.298 94.655 69.6575C94.8139 69.5237 94.9393 69.4651 95.0063 69.2895C95.0063 69.2895 95.1735 69.2895 95.1234 69.3564C95.0732 69.4233 95.1234 69.139 95.2906 69.2477C95.4077 69.5571 94.9561 69.7997 94.8976 70.084C94.9561 70.1258 94.9979 70.084 95.0648 70.1593C95.1652 70.0589 94.8892 70.0589 95.0648 69.9502C95.1986 70.2931 94.8808 70.3767 94.747 70.5189C94.6456 70.6909 94.5249 70.8509 94.3874 70.9956C94.6048 70.9956 94.7386 70.6444 94.931 70.5106C94.9979 70.5106 94.931 70.5105 94.931 70.5858C94.6801 70.9454 94.2368 71.5643 93.9776 71.8654C94.2368 71.8654 94.2452 71.6145 94.4459 71.3971C94.4459 71.3971 94.4459 71.464 94.4459 71.4974C94.6719 71.3136 94.8717 71.0998 95.0397 70.8618C95.2468 70.6138 95.4315 70.3479 95.5917 70.0673C95.6428 69.9222 95.7014 69.7798 95.7673 69.6408C95.8677 69.5404 96.0935 69.3731 96.06 69.1055C96.2691 69.0302 96.2608 68.9215 96.2942 68.7208C96.3444 68.7793 96.2942 68.8463 96.3778 68.8212C96.4615 68.7961 96.3193 68.6874 96.336 68.6288C96.3528 68.5703 96.5953 68.6288 96.5618 68.5034C96.6789 68.679 96.7375 68.3779 96.8713 68.2274C96.7793 68.2274 96.6789 68.3194 96.5869 68.2274C96.7542 67.943 97.072 67.8761 97.3396 67.7088C97.1306 67.9043 96.8939 68.0677 96.6371 68.1939C96.7626 68.2943 96.8796 68.1354 96.9967 68.0852C96.1879 69.889 95.1416 71.5766 93.8856 73.1032C93.7016 72.9526 93.3921 73.2119 93.2165 73.421C93.2165 73.3123 93.1245 73.329 93.066 73.1868C93.1413 73.1868 93.158 73.0195 93.2667 72.9275C93.0743 72.9275 92.9238 73.3959 92.7231 73.605C92.79 73.6635 92.8067 73.5213 92.8485 73.4962C92.8903 73.4712 92.7231 73.7471 92.7649 73.8391C92.9907 73.7137 93.0074 73.5966 93.1078 73.4293C93.2751 73.605 92.6813 73.9311 92.698 74.1653C92.5976 74.2239 92.6144 74.0649 92.698 74.0315C92.4594 74.238 92.2658 74.4913 92.1293 74.7758C92.2936 74.608 92.4394 74.4229 92.5642 74.2239C92.6144 74.4998 92.1795 74.6922 92.0708 75.0602C91.9537 75.0016 91.9955 74.9264 92.0708 74.8427C91.9202 74.8427 91.9286 75.0518 92.0708 75.1187C92.0168 75.1481 91.9738 75.194 91.9482 75.2498C91.9226 75.3056 91.9157 75.3682 91.9286 75.4282C92.1293 74.9515 92.6813 74.6755 92.9238 74.2406C92.8736 74.2406 92.8485 74.2908 92.8151 74.3242C92.7147 74.1904 93.0325 74.0315 93.1413 73.7806C93.1538 73.8243 93.1538 73.8707 93.1413 73.9144C93.3587 73.814 93.4758 73.3792 93.7016 73.2955C93.3336 73.789 93.0242 74.3326 92.6645 74.826C92.3267 75.3569 91.9404 75.8553 91.5104 76.3147C91.4519 76.0638 91.7697 75.7794 91.8115 75.4784C91.6483 75.6504 91.5103 75.8447 91.4017 76.0554C91.3431 75.7543 91.8031 75.5202 91.8449 75.2191C91.3937 75.8001 90.9883 76.4152 90.6323 77.059C90.2509 77.73 89.921 78.4289 89.6454 79.1498C90.0217 78.5644 90.1221 78.1044 90.4064 77.6277C90.4064 77.6695 90.465 77.7114 90.4064 77.7615C90.6239 77.4688 90.8999 76.7997 91.1592 76.5154C91.2344 76.5907 91.0839 76.691 91.0671 76.7747C91.2123 76.6461 91.334 76.4933 91.4268 76.3231C91.2177 77.2096 90.7577 77.9539 90.5235 78.8989C90.4566 78.8989 90.4483 78.9742 90.3395 78.8989C89.3025 80.7138 88.6669 82.8381 87.8306 84.4438C87.8306 84.5107 87.9142 84.5442 87.8974 84.6111C87.3371 85.5394 87.2869 86.8775 86.7099 87.9564C86.5259 88.2826 86.643 88.7258 86.3168 88.9433C86.1244 89.8883 85.9153 91.4523 85.263 92.0126L85.1961 92.2802C85.1041 92.3304 84.9703 92.3304 84.9034 92.4224C85.0372 92.6399 84.8114 92.8489 84.6692 93.1082C84.6692 93.1667 84.7445 93.1918 84.8198 93.2169C84.6943 93.058 84.8198 93.1333 84.8867 92.9158C84.9452 92.9158 84.8867 93.1835 84.8867 93.3005C84.7947 93.2002 84.6274 93.3006 84.6441 93.1751C84.4468 93.3604 84.3297 93.6155 84.318 93.886C84.1842 93.8274 84.318 93.8107 84.2678 93.7354C84.1172 93.886 83.8496 93.9612 83.9834 94.2372C83.674 94.1201 83.6154 94.6387 83.1471 94.463C83.0551 94.463 83.0969 94.5801 83.0635 94.6219C82.8711 94.5383 82.6955 94.831 82.3108 94.6219C82.3609 94.371 81.6919 94.2456 81.4744 94.0282C81.3155 94.0282 81.5497 94.2289 81.3574 94.1452C81.441 93.9194 81.2235 93.7187 81.0981 93.5096C81.0981 93.2755 81.2988 93.2504 81.3992 93.1333C81.2904 92.7569 81.0981 92.5395 81.2235 92.1297C81.2235 92.0293 81.2988 91.9708 81.3155 91.8871C81.3182 91.8629 81.3141 91.8384 81.3038 91.8163C81.2934 91.7942 81.2773 91.7753 81.257 91.7617C81.257 91.7199 81.3657 91.6781 81.3741 91.6028C81.3824 91.5275 81.2319 91.3435 81.2319 91.2766C81.2319 91.2097 81.3741 91.0592 81.3908 91.009C81.4494 90.7999 81.4326 90.5658 81.4828 90.3232C81.625 89.6542 81.8006 88.9098 82.0181 88.1571C82.2355 87.4044 82.4864 86.6433 82.662 85.8906C82.7609 85.4759 82.8866 85.068 83.0384 84.6696L84.8281 79.9109C84.9444 79.7215 85.0505 79.5261 85.1459 79.3255C85.8304 77.6286 86.618 75.9751 87.5044 74.3744C88.4523 72.6796 89.5734 71.0877 90.8497 69.624C90.925 69.624 90.9417 69.5571 90.9668 69.6826C91.0253 69.6408 90.9668 69.5989 90.9668 69.5655C91.1341 69.4651 91.1675 69.4735 91.3431 69.3815C91.7446 69.1724 92.1795 68.6706 92.5224 68.679C91.9192 69.0335 91.3724 69.4761 90.8999 69.992C91.3599 69.8415 91.7864 69.2226 92.33 69.2979C92.3802 69.0386 92.6562 69.1306 92.606 68.9048C92.7983 69.0637 92.9405 68.4699 93.1831 68.4114L93.2165 68.403ZM96.0433 68.0099C95.9513 68.0724 95.8646 68.1423 95.7841 68.219C95.8175 68.3695 96.0433 68.0183 96.0099 68.0183L96.0433 68.0099ZM94.9895 69.599C94.9895 69.4735 95.1401 69.5237 95.0648 69.3982C94.9644 69.4902 94.8139 69.4902 94.9561 69.6073L94.9895 69.599ZM90.1137 70.7531C90.0134 70.8785 90.0719 70.9203 89.9381 70.9873C90.0301 71.1043 90.1388 70.8116 90.0803 70.7615L90.1137 70.7531ZM90.373 70.4269C90.373 70.5022 90.1807 70.5858 90.2476 70.6527C90.2885 70.636 90.3212 70.6038 90.3385 70.563C90.3557 70.5222 90.3561 70.4763 90.3395 70.4353L90.373 70.4269ZM84.5187 93.0747C84.5772 92.9242 84.8281 92.6231 84.5187 92.5479C84.4852 92.7486 84.4267 92.9576 84.4852 93.0831L84.5187 93.0747ZM93.618 68.0936C93.618 68.0183 93.7267 68.0936 93.7768 67.9347C93.9023 68.0267 93.7099 68.0852 93.6765 68.1605C93.643 68.2357 93.6849 68.0768 93.6096 68.1019L93.618 68.0936ZM94.3623 67.9681C94.3623 67.9096 94.3623 67.9681 94.4208 67.9681C94.4794 67.9681 94.2787 68.1354 94.2118 68.219C94.0696 68.0768 94.4041 68.1354 94.3539 67.9765L94.3623 67.9681ZM96.1102 68.4866C96.1855 68.6288 95.9597 68.6121 95.9931 68.7041C95.851 68.7124 96.0266 68.5452 96.1019 68.495L96.1102 68.4866ZM83.8496 94.4129C83.8496 94.3376 84.1256 94.0783 84.2176 94.1369C84.0921 94.2205 83.9249 94.254 83.8413 94.3878L83.8496 94.4129Z" fill="#69DA00"/>
<path d="M110.504 158.575C128.351 161.386 135.862 157.062 137.593 152.537C139.6 147.327 136.974 139.808 131.404 136.806C123.877 132.741 88.0904 119.184 68.2443 116.182C60.9933 115.078 45.3874 114.033 42.0671 118.816C39.7589 122.162 41.9501 127.414 45.4125 131.855C45.3874 131.855 57.4221 150.221 110.504 158.575Z" fill="#69DA00"/>
<path d="M109.127 35.4432C108.867 35.4432 108.867 35.7275 108.775 35.9032C109.21 35.9533 108.859 35.6355 109.127 35.4432ZM108.892 34.2138C108.983 34.2904 109.067 34.3743 109.143 34.4647C109.227 34.5901 109.311 34.749 109.269 34.8076C108.984 34.4312 109.16 34.5316 108.892 34.2138ZM109.779 34.4396C110.038 34.4396 110.005 34.0967 110.297 34.1552C110.08 34.3141 110.113 34.5901 109.996 34.6905C109.879 34.7908 109.938 34.4814 109.779 34.4396ZM113.601 31.5041C113.768 31.0859 114.437 31.3033 114.613 31.1444C114.421 31.4957 113.902 31.2448 113.601 31.5041ZM115.382 31.1695C115.173 31.4204 114.504 31.4957 115.065 31.2532L115.382 31.1695ZM114.262 34.6738C114.119 34.565 114.262 34.4396 114.379 34.473C114.496 34.5065 114.345 34.5901 114.262 34.6738ZM114.939 34.08C115.131 34.2723 115.098 34.3141 115.039 34.3476C114.922 34.2138 114.922 34.1385 114.939 34.08ZM114.638 35.3177C114.872 35.3846 114.546 35.4014 114.78 35.4599C114.596 35.4766 114.496 35.2843 114.638 35.3177ZM117.08 35.7359C117.348 35.4097 117.239 35.5352 117.155 35.6857C117.072 35.8363 117.03 35.8112 117.105 35.7359H117.08ZM111.226 24.4287C111.226 24.6963 110.849 24.8469 110.749 25.0894C110.768 24.9452 110.824 24.8083 110.912 24.6925C111 24.5766 111.117 24.4857 111.251 24.4287H111.226ZM108.223 31.2699C108.282 31.3201 108.307 31.2699 108.324 31.2281C108.566 30.6677 108.826 29.9485 109.16 29.3129C109.396 28.7809 109.731 28.2985 110.147 27.8911C109.076 29.2878 108.667 31.2364 107.78 32.3488L107.579 32.5662C107.504 32.6582 107.454 32.6164 107.404 32.6498C107.313 32.6682 107.223 32.6934 107.136 32.7251C107.011 32.7251 107.036 32.8087 107.387 32.9844C107.175 32.8917 106.971 32.7826 106.777 32.6582C106.701 32.5913 106.969 32.5829 107.27 32.5411C107.634 32.3625 107.928 32.0684 108.106 31.7048C108.248 31.2783 107.998 30.9772 108.248 30.5925C108.332 30.7597 108.232 31.019 108.223 31.2699ZM109.804 34.7908C110.164 34.7908 109.804 35.0919 109.804 35.209C109.963 35.1337 110.155 35.0836 110.113 34.8494C110.164 34.9581 110.364 34.9832 110.331 35.1337C110.916 34.6487 110.691 34.4229 111.033 34.0214C111.117 34.0214 111.033 34.1469 111.159 34.1803C111.546 33.8316 111.805 33.3635 111.895 32.8506C112.045 32.9676 111.978 33.068 111.895 33.1684C112.146 33.2687 112.229 32.7837 112.397 33.1684C112.589 32.884 112.397 32.8255 112.706 32.6164C112.614 32.9927 112.765 33.1767 112.514 33.4527C112.648 33.4527 112.698 33.3942 112.781 33.3524C112.965 33.5531 112.614 33.4778 112.622 33.6116C113.11 33.336 113.572 33.0169 114.002 32.6582C113.933 32.9243 113.777 33.1597 113.559 33.3273C113.844 33.3273 114.002 33.068 114.245 33.0178C114.203 33.2938 114.421 33.16 114.563 33.2018C114.252 33.4595 114.006 33.7859 113.844 34.1552C113.679 34.5199 113.605 34.9184 113.626 35.3177C113.693 35.1588 113.818 35.0919 113.726 34.9163C113.726 34.9163 113.994 34.9163 113.986 34.9832C114.119 34.9832 113.743 34.749 114.119 34.8661C114.63 35.1839 114.245 35.3679 114.546 35.5519C114.662 35.5344 114.781 35.5344 114.897 35.5519C114.897 35.4934 114.504 35.5101 114.655 35.4265C115.315 35.6355 114.956 35.6355 114.973 35.7192C114.989 35.8028 115.123 35.8279 115.073 35.9283C115.399 35.8195 115.157 35.761 115.223 35.6941C115.29 35.6272 115.315 35.6941 115.315 35.6941L115.499 35.8697C115.578 35.9446 115.643 36.0322 115.692 36.129C116.051 35.9032 115.692 35.9533 115.692 35.853C115.692 35.7526 115.767 35.853 115.775 35.853C115.943 35.669 115.775 35.7861 115.525 35.5352C115.449 35.4683 115.249 35.3428 115.249 35.2759C115.249 35.209 115.349 35.1337 115.014 34.8076C115.232 34.8076 115.098 34.6821 115.014 34.4396C115.131 34.5399 115.157 34.6152 115.207 34.6152C115.257 34.6152 115.014 34.4061 114.989 34.3392C114.964 34.2723 115.332 34.4981 115.173 34.2723C115.458 34.5901 115.274 34.1887 115.332 34.0298C115.215 33.9378 115.182 34.0298 114.989 33.8625C114.989 33.4862 115.391 33.6116 115.575 33.4862C115.516 33.7454 115.215 33.7203 115.031 33.8291C115.24 34.0382 115.282 33.8792 115.391 33.8792C115.412 34.3278 115.52 34.7681 115.709 35.1756C115.783 35.3317 115.885 35.4734 116.01 35.5937C116.061 35.6431 116.12 35.6827 116.185 35.7108C116.213 35.7155 116.241 35.7155 116.269 35.7108C116.319 35.7108 116.219 35.7108 116.21 35.7108H116.018H116.143H116.352L116.812 35.5937C116.812 35.5937 116.955 35.6439 116.946 35.7192C116.562 36.0286 116.52 36.2042 116.562 36.2879C116.436 36.3966 116.394 36.4719 116.202 36.6475C116.261 36.5471 116.085 36.6475 116.093 36.5639C115.951 36.7897 116.294 36.7144 116.336 36.8399C116.444 36.6893 116.336 36.7813 116.336 36.7395C116.336 36.6977 116.478 36.7395 116.587 36.589C116.695 36.4384 116.587 36.4384 116.478 36.4301C116.771 36.0621 116.595 36.6224 116.796 36.4301C116.796 36.5304 116.679 36.6391 116.687 36.5722C116.729 36.706 116.838 36.8315 116.963 36.7144C116.94 36.6811 116.911 36.6532 116.876 36.6329C116.841 36.6127 116.802 36.6005 116.762 36.5973C116.963 36.2712 116.921 36.7144 117.072 36.5973C117.03 36.8399 116.996 36.8482 116.971 36.8315C116.971 37.0657 117.063 36.8315 117.097 36.5973C117.097 36.7144 117.172 36.6642 117.206 36.5137C117.122 36.589 117.055 36.5137 117.03 36.3715C117.005 36.2293 117.03 36.1373 116.93 36.1624C116.829 36.1875 116.93 36.2293 116.93 36.2461C116.779 36.5137 116.863 36.1959 116.754 36.2461C116.789 36.1984 116.828 36.1536 116.871 36.1122C116.971 35.9115 116.729 36.1122 116.871 35.9032C116.96 35.9325 117.053 35.9466 117.147 35.945C117.231 35.945 117.272 36.037 117.44 36.2126C117.44 36.5388 117.323 36.3799 117.256 36.5722C117.189 36.7646 117.423 36.6308 117.473 36.5722C117.431 36.9653 117.256 36.5722 117.147 36.798C117.288 36.8489 117.44 36.8609 117.587 36.833C117.734 36.805 117.871 36.7381 117.983 36.6391C118.102 36.5452 118.2 36.4274 118.27 36.2935C118.341 36.1596 118.383 36.0124 118.393 35.8613C118.209 36.0286 118.234 36.221 118.092 36.3799C118.042 36.3046 118.008 36.2544 118.025 36.2461C117.916 36.2461 117.783 36.5388 117.624 36.4468C117.465 36.3548 117.666 36.3966 117.666 36.3464C117.666 36.2962 117.54 36.2461 117.498 36.2628C117.524 36.0993 117.524 35.9328 117.498 35.7693C117.491 35.7068 117.47 35.6467 117.435 35.5943C117.4 35.5419 117.353 35.4987 117.298 35.4683L117.54 35.6105C117.632 35.5519 117.582 35.4181 117.54 35.3846C117.498 35.3512 117.465 35.3846 117.54 35.1254C117.54 35.1254 117.398 35.3596 117.381 35.3846C117.399 35.3531 117.413 35.3194 117.423 35.2843C117.465 35.1337 117.364 35.2843 117.348 35.3679C117.331 35.4515 117.348 35.5519 117.289 35.2592C117.231 34.9665 117.398 35.6439 117.164 35.0668C117.183 35.1657 117.208 35.2635 117.239 35.3596C117.045 35.2494 116.844 35.1516 116.637 35.0668V35.117C116.481 35.0465 116.318 34.9905 116.152 34.9497C116.302 35.0585 116.302 35.0417 116.21 35.1087C116.118 35.1756 115.993 35.1672 115.801 35.4766C115.801 35.577 115.943 35.6523 116.085 35.7108C115.976 35.5435 115.985 35.5017 116.085 35.4516C116.164 35.397 116.229 35.3256 116.277 35.2425C116.286 35.238 116.296 35.2357 116.307 35.2357C116.317 35.2357 116.327 35.238 116.336 35.2425C116.336 35.2425 116.336 35.2425 116.336 35.3763L116.235 35.8613C116.085 35.6355 115.717 35.8613 115.784 35.5603C115.311 35.9219 114.964 36.4218 114.789 36.9904C114.579 36.7813 114.872 36.8148 114.789 36.614C114.605 36.7479 114.337 36.8399 114.145 36.9569C114.034 37.0295 113.942 37.1272 113.877 37.2421C113.812 37.3569 113.774 37.4856 113.768 37.6176C113.534 37.3667 113.266 37.5173 112.932 37.6176C112.763 37.6898 112.574 37.6964 112.4 37.636C112.227 37.5757 112.083 37.4528 111.995 37.2915C111.878 37.1493 111.778 37.442 111.661 37.4671C111.443 37.0908 110.866 37.2747 110.532 36.4886C110.816 36.2293 109.921 35.2007 109.628 34.7574C109.394 34.5483 109.712 35.0083 109.453 34.6988C109.595 34.6487 109.26 34.2389 109.018 34.0131C109.018 33.896 109.319 34.0131 109.503 34.0131C109.394 33.8207 109.235 33.6618 109.127 33.4945C109.066 33.4274 109.027 33.343 109.017 33.253C109.007 33.163 109.024 33.0721 109.068 32.9927C109.127 32.8338 109.227 32.7335 109.269 32.5997C109.311 32.4658 109.16 32.3404 109.16 32.3404C109.16 32.3404 109.386 32.1982 109.411 32.0561C109.436 31.9139 109.168 31.4706 109.177 31.3117C109.185 31.1528 109.47 30.927 109.511 30.8266C109.662 30.4252 109.679 29.9067 109.863 29.4551C110.405 28.1156 111.341 26.9723 112.547 26.1767C113.835 25.3757 115.293 24.8914 116.804 24.7633C117.631 24.6718 118.468 24.7371 119.271 24.9556C120.204 25.2274 121.087 25.6452 121.889 26.1934C123.885 27.6245 125.311 29.7162 125.912 32.0979C125.912 32.1982 125.979 32.9844 126.02 33.5614C126.239 35.5613 125.842 37.5802 124.883 39.3489C123.788 41.3881 122.038 42.9995 119.915 43.9236C118.925 44.4013 117.85 44.6791 116.752 44.7409C115.654 44.8027 114.555 44.6474 113.517 44.2838C112.479 43.9203 111.523 43.3556 110.704 42.6222C109.884 41.8888 109.218 41.0009 108.742 40.0095C108.859 39.8757 108.683 39.767 108.934 39.8172C108.934 39.6834 108.8 39.7168 108.708 39.7503C108.68 39.4722 108.68 39.192 108.708 38.914C108.708 38.6798 108.708 38.4289 108.65 38.178C108.591 37.9271 108.6 37.6344 108.6 37.3417C108.554 36.8824 108.682 36.4227 108.959 36.0537C108.812 36.7686 108.767 37.5007 108.826 38.2282C108.874 38.9406 109.105 39.6288 109.495 40.227C109.451 39.6923 109.37 39.1613 109.252 38.638C109.191 38.3804 109.191 38.1118 109.254 37.8545C109.316 37.5971 109.439 37.3583 109.612 37.1577C109.277 36.7729 109.796 36.4719 109.403 36.2544C109.745 36.1959 109.754 35.9283 109.72 35.6272C109.687 35.3261 109.628 34.9581 109.804 34.7908ZM114.103 33.3273C114.016 33.4076 113.935 33.4942 113.86 33.5865C114.069 33.8207 114.145 33.3607 114.103 33.3273ZM114.044 35.2006C113.902 35.0836 114.195 35.1254 113.927 35.0083C113.902 35.0836 113.651 35.0919 114.044 35.2006ZM110.791 42.0586C111.059 42.2927 111.151 42.184 111.268 42.4684C111.502 42.2258 110.916 41.9666 110.791 42.0586ZM110.18 41.4397C110.323 41.5317 110.465 41.8913 110.624 41.7826C110.619 41.7303 110.603 41.6796 110.578 41.6337C110.552 41.5877 110.518 41.5474 110.476 41.5153C110.435 41.4832 110.387 41.4599 110.336 41.4469C110.285 41.4339 110.232 41.4314 110.18 41.4397ZM115.541 35.5435C115.626 35.3956 115.724 35.2557 115.834 35.1254C115.884 35.0501 115.834 34.9665 115.575 34.8661C115.551 34.9403 115.532 35.0157 115.516 35.0919C115.47 35.2405 115.479 35.401 115.541 35.5435ZM110.18 33.9211C110.105 33.7956 110.373 33.8291 110.314 33.5531C110.624 33.6033 110.314 33.8291 110.314 33.9712C110.289 33.9127 110.222 33.8542 110.18 33.9211ZM111.368 33.2938C111.268 33.2018 111.368 33.2353 111.477 33.2938C111.585 33.3524 111.393 33.6116 111.343 33.7789C110.983 33.5865 111.602 33.528 111.368 33.2938ZM114.571 34.08C114.805 34.3225 114.462 34.1971 114.571 34.3309C114.395 34.2891 114.496 34.1134 114.596 34.08H114.571ZM113.2 38.1027C113.283 37.9187 114.161 37.5424 114.27 37.7347C113.91 37.9271 113.576 37.8853 113.2 38.1027Z" fill="#69DA00"/>
<path d="M100.375 62.9002C99.8956 63.0156 99.4667 63.2843 99.1537 63.6655C98.8407 64.0467 98.6606 64.5196 98.6408 65.0125C98.6209 65.5053 98.7624 65.9912 99.0437 66.3964C99.325 66.8015 99.7308 67.1039 100.2 67.2575C101.663 67.7259 103.286 66.4797 103.545 64.9743C103.666 64.406 103.619 63.8147 103.409 63.2727C103.2 62.7306 102.837 62.2612 102.366 61.9217C101.878 61.6055 101.288 61.4858 100.716 61.5866C100.143 61.6875 99.63 62.0015 99.2795 62.4653C98.6857 63.3769 98.8363 64.7569 97.9414 65.3758" fill="#69DA00"/>
</svg>
