<svg width="200" height="200" viewBox="0 0 200 200" fill="none" xmlns="http://www.w3.org/2000/svg">
<g clip-path="url(#clip0_1165_3987)">
<path d="M163.667 64.6484H36.875V133.544H163.667V64.6484Z" fill="#E9E8E8"/>
<path d="M163.749 134.136H36.8753C36.7927 134.139 36.7104 134.125 36.6336 134.094C36.5567 134.064 36.4869 134.018 36.4284 133.96C36.37 133.901 36.3242 133.831 36.2939 133.755C36.2636 133.678 36.2495 133.595 36.2523 133.513V64.6888C36.2495 64.6062 36.2636 64.5239 36.2939 64.447C36.3242 64.3702 36.37 64.3003 36.4284 64.2419C36.4869 64.1835 36.5567 64.1377 36.6336 64.1074C36.7104 64.0771 36.7927 64.0629 36.8753 64.0658H163.749C163.831 64.0644 163.912 64.0796 163.988 64.1105C164.063 64.1414 164.132 64.1874 164.189 64.2457C164.246 64.304 164.291 64.3733 164.321 64.4495C164.351 64.5257 164.365 64.6071 164.362 64.6888V133.584C164.349 133.737 164.278 133.879 164.164 133.981C164.051 134.084 163.902 134.139 163.749 134.136ZM37.58 132.931H163.126V65.2607H37.5085L37.6004 132.931H37.58Z" fill="#BABABA"/>
<path d="M163.667 29.8438H36.875V64.2916H163.667V29.8438Z" fill="#69DA00"/>
<path d="M163.749 64.9144H36.8753C36.7927 64.9172 36.7104 64.9031 36.6336 64.8728C36.5567 64.8425 36.4869 64.7967 36.4284 64.7383C36.37 64.6798 36.3242 64.61 36.2939 64.5331C36.2636 64.4563 36.2495 64.374 36.2523 64.2914V29.8436C36.2509 29.7619 36.2661 29.6807 36.297 29.605C36.328 29.5294 36.374 29.4608 36.4322 29.4035C36.4905 29.3461 36.5598 29.3013 36.636 29.2716C36.7122 29.2419 36.7936 29.2281 36.8753 29.2308H163.749C163.83 29.228 163.911 29.2419 163.987 29.2717C164.062 29.3014 164.131 29.3465 164.189 29.404C164.246 29.4614 164.291 29.5301 164.321 29.6058C164.351 29.6814 164.365 29.7624 164.362 29.8436V64.2914C164.365 64.3731 164.351 64.4545 164.321 64.5307C164.291 64.6068 164.246 64.6762 164.189 64.7345C164.132 64.7927 164.063 64.8387 163.988 64.8697C163.912 64.9006 163.831 64.9158 163.749 64.9144ZM37.58 63.6684H163.126V30.4564H37.5085L37.58 63.6684Z" fill="#BABABA"/>
<path d="M156.876 37.3291H54.4922V86.5855H156.876V37.3291Z" fill="white"/>
<path d="M156.877 87.1579H54.4937C54.4129 87.1593 54.3326 87.1444 54.2576 87.1141C54.1826 87.0838 54.1145 87.0387 54.0573 86.9815C54.0002 86.9244 53.9551 86.8563 53.9248 86.7813C53.8945 86.7063 53.8796 86.626 53.8809 86.5452V37.3297C53.8796 37.2488 53.8945 37.1685 53.9248 37.0935C53.9551 37.0186 54.0002 36.9505 54.0573 36.8933C54.1145 36.8361 54.1826 36.791 54.2576 36.7607C54.3326 36.7304 54.4129 36.7155 54.4937 36.7169H156.877C156.958 36.7155 157.038 36.7304 157.113 36.7607C157.188 36.791 157.256 36.8361 157.313 36.8933C157.371 36.9505 157.416 37.0186 157.446 37.0935C157.476 37.1685 157.491 37.2488 157.49 37.3297V86.586C157.491 86.6669 157.476 86.7472 157.446 86.8221C157.416 86.8971 157.371 86.9652 157.313 87.0224C157.256 87.0796 157.188 87.1247 157.113 87.155C157.038 87.1853 156.958 87.2002 156.877 87.1988V87.1579ZM55.1167 85.9324H156.223V37.9322H55.1167V85.9324Z" fill="#BABABA"/>
<path d="M152.381 48.8805V40.4141H110.968L105.504 48.8805H48.6797V97.7794H159.162V48.8805H152.381Z" fill="#69DA00"/>
<path d="M159.164 98.3911H48.6817C48.6 98.3939 48.5186 98.38 48.4424 98.3503C48.3662 98.3207 48.2969 98.2758 48.2386 98.2185C48.1803 98.1611 48.1343 98.0926 48.1034 98.0169C48.0725 97.9412 48.0573 97.8601 48.0587 97.7783V48.8692C48.0573 48.7875 48.0725 48.7063 48.1034 48.6306C48.1343 48.555 48.1803 48.4864 48.2386 48.4291C48.2969 48.3717 48.3662 48.3269 48.4424 48.2972C48.5186 48.2675 48.6 48.2537 48.6817 48.2564H105.24L110.53 40.1475C110.592 40.0644 110.672 39.9971 110.764 39.9509C110.856 39.9048 110.958 39.8811 111.061 39.8819H152.474C152.556 39.8805 152.637 39.8957 152.713 39.9266C152.789 39.9576 152.857 40.0036 152.915 40.0619C152.972 40.1201 153.017 40.1895 153.046 40.2656C153.076 40.3418 153.09 40.4232 153.087 40.5049V48.2564H159.215C159.296 48.2551 159.376 48.27 159.451 48.3003C159.526 48.3306 159.594 48.3756 159.651 48.4328C159.708 48.49 159.754 48.5581 159.784 48.6331C159.814 48.708 159.829 48.7884 159.828 48.8692V97.7783C159.799 97.9463 159.714 98.0992 159.585 98.2109C159.457 98.3227 159.293 98.3864 159.123 98.3911H159.164ZM49.2944 97.1553H158.633V49.4922H152.505C152.422 49.495 152.34 49.4809 152.263 49.4506C152.186 49.4203 152.117 49.3745 152.058 49.3161C152 49.2576 151.954 49.1878 151.924 49.1109C151.893 49.0341 151.879 48.9518 151.882 48.8692V41.1177H111.439L106.159 49.2266C106.098 49.3097 106.018 49.377 105.926 49.4232C105.833 49.4693 105.731 49.493 105.628 49.4922H49.2944V97.1553Z" fill="#BABABA"/>
<path d="M152.901 53.8945H43.8281V103.151H152.901V53.8945Z" fill="white"/>
<path d="M152.994 103.763H43.8297C43.7488 103.765 43.6685 103.75 43.5935 103.719C43.5186 103.689 43.4505 103.644 43.3933 103.587C43.3361 103.53 43.291 103.462 43.2607 103.387C43.2304 103.312 43.2155 103.231 43.2169 103.15V53.8941C43.2155 53.8133 43.2304 53.733 43.2607 53.658C43.291 53.583 43.3361 53.5149 43.3933 53.4577C43.4505 53.4006 43.5186 53.3555 43.5935 53.3252C43.6685 53.2949 43.7488 53.28 43.8297 53.2813H152.913C152.993 53.28 153.074 53.2949 153.149 53.3252C153.224 53.3555 153.292 53.4006 153.349 53.4577C153.406 53.5149 153.451 53.583 153.482 53.658C153.512 53.733 153.527 53.8133 153.525 53.8941V103.15C153.546 103.228 153.547 103.309 153.529 103.387C153.511 103.465 153.474 103.537 153.422 103.597C153.37 103.658 153.303 103.705 153.229 103.733C153.154 103.762 153.074 103.773 152.994 103.763ZM44.4526 102.527H152.29V54.4762H44.4526V102.527Z" fill="#BABABA"/>
<path d="M48.6799 65.352V56.9775H92.7277L98.6307 65.352H159.162V114.251H41.4492V65.352H48.6799Z" fill="#69DA00"/>
<path d="M159.164 114.864H41.451C41.3702 114.865 41.2899 114.85 41.2149 114.82C41.1399 114.789 41.0718 114.744 41.0146 114.687C40.9575 114.63 40.9124 114.562 40.8821 114.487C40.8518 114.412 40.8369 114.332 40.8382 114.251V65.3519C40.8355 65.2702 40.8493 65.1888 40.879 65.1126C40.9087 65.0364 40.9535 64.9671 41.0109 64.9088C41.0682 64.8505 41.1368 64.8045 41.2124 64.7736C41.2881 64.7427 41.3693 64.7275 41.451 64.7289H48.0587V56.9774C48.0573 56.8956 48.0725 56.8145 48.1034 56.7388C48.1343 56.6631 48.1803 56.5946 48.2386 56.5372C48.2969 56.4799 48.3662 56.4351 48.4424 56.4054C48.5186 56.3757 48.6 56.3618 48.6817 56.3646H92.8214C92.9233 56.3707 93.0229 56.3974 93.1141 56.443C93.2054 56.4887 93.2865 56.5523 93.3525 56.6301L98.99 64.7289H159.246C159.327 64.7275 159.408 64.7427 159.484 64.7736C159.56 64.8045 159.628 64.8505 159.686 64.9088C159.743 64.9671 159.788 65.0364 159.818 65.1126C159.847 65.1888 159.861 65.2702 159.858 65.3519V114.251C159.83 114.419 159.744 114.572 159.616 114.683C159.487 114.795 159.324 114.859 159.154 114.864H159.164ZM41.9821 113.628H158.551V65.9646H98.6325C98.5319 65.9596 98.4335 65.9333 98.3437 65.8876C98.2539 65.8418 98.1749 65.7776 98.1117 65.6991L92.464 57.6004H49.2944V65.3519C49.2958 65.4327 49.2809 65.513 49.2506 65.588C49.2203 65.663 49.1752 65.7311 49.118 65.7883C49.0609 65.8454 48.9928 65.8905 48.9178 65.9208C48.8428 65.9511 48.7625 65.966 48.6817 65.9646H42.074V113.628H41.9821Z" fill="#BABABA"/>
<path d="M158.458 69.1426H49.3848V118.399H158.458V69.1426Z" fill="white"/>
<path d="M158.46 119.011H49.387C49.3044 119.014 49.2221 119 49.1453 118.969C49.0684 118.939 48.9986 118.893 48.9402 118.835C48.8817 118.776 48.8359 118.707 48.8056 118.63C48.7753 118.553 48.7612 118.471 48.764 118.388V69.1419C48.7612 69.0593 48.7753 68.977 48.8056 68.9002C48.8359 68.8233 48.8817 68.7535 48.9402 68.695C48.9986 68.6366 49.0684 68.5908 49.1453 68.5605C49.2221 68.5302 49.3044 68.5161 49.387 68.5189H158.46C158.542 68.5161 158.625 68.5302 158.702 68.5605C158.778 68.5908 158.848 68.6366 158.907 68.695C158.965 68.7535 159.011 68.8233 159.041 68.9002C159.071 68.977 159.086 69.0593 159.083 69.1419V118.388C159.073 118.55 159.004 118.703 158.89 118.818C158.775 118.933 158.622 119.001 158.46 119.011ZM49.9998 117.796H157.929V69.7955H49.9998V117.796Z" fill="#BABABA"/>
<path d="M156.694 73.1045H47.6211V122.361H156.694V73.1045Z" fill="white"/>
<path d="M156.784 122.973H47.619C47.5381 122.975 47.4578 122.96 47.3829 122.93C47.3079 122.899 47.2398 122.854 47.1826 122.797C47.1254 122.74 47.0804 122.672 47.0501 122.597C47.0197 122.522 47.0048 122.442 47.0062 122.361V73.1044C47.0034 73.0231 47.0173 72.9422 47.0471 72.8665C47.0768 72.7909 47.1219 72.7222 47.1793 72.6647C47.2368 72.6072 47.3055 72.5622 47.3812 72.5324C47.4568 72.5026 47.5378 72.4887 47.619 72.4916H156.682C156.763 72.4887 156.844 72.5026 156.919 72.5324C156.995 72.5622 157.064 72.6072 157.121 72.6647C157.179 72.7222 157.224 72.7909 157.254 72.8665C157.283 72.9422 157.297 73.0231 157.294 73.1044V122.361C157.315 122.438 157.316 122.519 157.298 122.597C157.28 122.675 157.243 122.747 157.191 122.808C157.139 122.868 157.072 122.915 156.998 122.944C156.923 122.973 156.843 122.983 156.763 122.973H156.784ZM48.242 121.738H156.079V73.7375H48.242V121.738Z" fill="#BABABA"/>
<path d="M151.942 84.6447V76.1885H107.802L101.981 84.6447H41.4492V133.544H159.162V84.6447H151.942Z" fill="#69DA00"/>
<path d="M159.164 134.136H41.451C41.3693 134.137 41.2881 134.122 41.2124 134.091C41.1368 134.06 41.0682 134.014 41.0109 133.956C40.9535 133.897 40.9087 133.828 40.879 133.752C40.8493 133.676 40.8355 133.594 40.8382 133.513V84.6443C40.8369 84.5634 40.8518 84.4831 40.8821 84.4082C40.9124 84.3332 40.9575 84.2651 41.0146 84.2079C41.0718 84.1507 41.1399 84.1056 41.2149 84.0753C41.2899 84.045 41.3702 84.0301 41.451 84.0315H101.707L107.354 75.9225C107.407 75.8313 107.486 75.7576 107.58 75.7105C107.674 75.6633 107.781 75.6447 107.885 75.657H152.025C152.108 75.6542 152.19 75.6683 152.267 75.6986C152.344 75.7289 152.413 75.7747 152.472 75.8331C152.53 75.8916 152.576 75.9614 152.606 76.0382C152.637 76.1151 152.651 76.1974 152.648 76.28V84.0315H159.256C159.337 84.0301 159.417 84.045 159.492 84.0753C159.567 84.1056 159.635 84.1507 159.692 84.2079C159.749 84.2651 159.794 84.3332 159.825 84.4082C159.855 84.4831 159.87 84.5634 159.868 84.6443V133.543C159.842 133.713 159.758 133.868 159.629 133.982C159.5 134.096 159.336 134.161 159.164 134.166V134.136ZM41.9821 132.93H158.551V85.257H151.943C151.862 85.2598 151.78 85.246 151.704 85.2163C151.628 85.1866 151.559 85.1417 151.5 85.0844C151.442 85.0271 151.396 84.9585 151.365 84.8828C151.334 84.8072 151.319 84.726 151.32 84.6443V76.8008H108.151L102.554 84.9098C102.501 85.001 102.423 85.0747 102.328 85.1219C102.234 85.1691 102.128 85.1876 102.023 85.1753H42.074V132.839L41.9821 132.93Z" fill="#BABABA"/>
<path d="M169.385 106.85H31.2363V171.701H169.385V106.85Z" fill="#F6F5FA"/>
<path d="M169.387 172.315H31.2383C31.1566 172.317 31.0752 172.303 30.999 172.274C30.9229 172.244 30.8535 172.199 30.7953 172.142C30.737 172.085 30.691 172.016 30.66 171.94C30.6291 171.865 30.6139 171.783 30.6153 171.702V106.85C30.6139 106.769 30.6291 106.688 30.66 106.612C30.691 106.536 30.737 106.468 30.7953 106.41C30.8535 106.353 30.9229 106.308 30.999 106.278C31.0752 106.249 31.1566 106.235 31.2383 106.238H169.387C169.468 106.236 169.548 106.251 169.623 106.281C169.698 106.312 169.766 106.357 169.823 106.414C169.881 106.471 169.926 106.539 169.956 106.614C169.986 106.689 170.001 106.77 170 106.85V171.702C170.001 171.783 169.986 171.863 169.956 171.938C169.926 172.013 169.881 172.081 169.823 172.138C169.766 172.195 169.698 172.24 169.623 172.271C169.548 172.301 169.468 172.316 169.387 172.315ZM31.8511 171.079H168.774V107.473H31.8511V171.079Z" fill="#BABABA"/>
<path d="M163.832 166.584H36.785C36.7038 166.587 36.6228 166.573 36.5472 166.543C36.4715 166.514 36.4028 166.469 36.3454 166.411C36.2879 166.354 36.2429 166.285 36.2131 166.209C36.1833 166.134 36.1694 166.053 36.1722 165.971V112.752C36.1709 112.672 36.1858 112.591 36.2161 112.516C36.2464 112.441 36.2915 112.373 36.3486 112.316C36.4058 112.259 36.4739 112.214 36.5489 112.184C36.6239 112.153 36.7042 112.138 36.785 112.14H163.751C163.831 112.138 163.912 112.153 163.987 112.184C164.062 112.214 164.13 112.259 164.187 112.316C164.244 112.373 164.289 112.441 164.32 112.516C164.35 112.591 164.365 112.672 164.363 112.752V165.971C164.377 166.048 164.374 166.127 164.353 166.202C164.332 166.277 164.295 166.346 164.244 166.405C164.193 166.464 164.13 166.51 164.059 166.541C163.987 166.572 163.91 166.587 163.832 166.584ZM37.3978 165.359H163.128V113.375H37.3978V165.359Z" fill="#BABABA"/>
<path d="M98.4678 102.477C98.4678 102.477 100.582 102.119 103.932 106.879H85.2422C85.2422 106.879 91.8499 104.519 98.4678 102.477Z" fill="#BABABA"/>
<path d="M103.924 107.472H85.2446C85.097 107.467 84.9556 107.412 84.844 107.315C84.7324 107.219 84.6575 107.087 84.6318 106.941C84.6122 106.866 84.6081 106.788 84.6198 106.711C84.6315 106.634 84.6587 106.56 84.6998 106.494C84.7409 106.428 84.795 106.372 84.8588 106.327C84.9226 106.283 84.9948 106.252 85.0709 106.236C85.1526 106.236 91.7603 103.857 98.1944 101.825H98.2863C98.5518 101.825 100.931 101.569 104.414 106.502C104.465 106.57 104.5 106.647 104.519 106.729C104.538 106.812 104.539 106.897 104.523 106.98C104.506 107.063 104.473 107.141 104.424 107.21C104.375 107.279 104.313 107.337 104.24 107.38C104.24 107.472 104.148 107.554 103.975 107.472H103.924ZM88.9416 106.236H102.688C100.308 103.234 98.8174 103.06 98.6029 103.06C95.0795 104.204 91.5561 105.44 88.9927 106.236H88.9416Z" fill="#BABABA"/>
<path d="M98.4675 102.476H47.7098C47.7098 102.476 35.0255 106.847 36.9558 129.029H93.6164C93.6164 129.029 89.1228 110.901 98.4675 102.476Z" fill="white"/>
<path d="M93.6164 129.675H36.9557C36.8052 129.681 36.658 129.629 36.5442 129.53C36.4304 129.432 36.3584 129.293 36.3429 129.143C34.4025 106.767 46.9132 102.008 47.4034 101.824H98.3653C98.4914 101.829 98.6124 101.875 98.7088 101.957C98.8051 102.038 98.8712 102.15 98.8964 102.274C98.9352 102.396 98.9396 102.526 98.909 102.65C98.8783 102.775 98.8139 102.888 98.7228 102.978C89.8274 111.077 94.0555 128.878 94.0555 128.97C94.0711 129.149 94.0394 129.328 93.9636 129.491C93.9636 129.583 93.79 129.675 93.6164 129.675ZM37.4459 128.439H92.7789C92.0742 124.997 89.7151 110.995 96.9151 103.06H47.7915C46.6477 103.499 35.9855 108.524 37.4868 128.439H37.4459Z" fill="#BABABA"/>
<path d="M80.4036 122.974H44.3422C44.192 122.955 44.054 122.881 43.954 122.768C43.854 122.654 43.7988 122.508 43.7988 122.356C43.7988 122.205 43.854 122.058 43.954 121.945C44.054 121.831 44.192 121.758 44.3422 121.738H80.3832C80.5334 121.758 80.6714 121.831 80.7714 121.945C80.8714 122.058 80.9266 122.205 80.9266 122.356C80.9266 122.508 80.8714 122.654 80.7714 122.768C80.6714 122.881 80.5334 122.955 80.3832 122.974H80.4036Z" fill="#D1D3D4"/>
<path d="M85.2457 116.367H44.2719C44.1217 116.347 43.9837 116.274 43.8837 116.16C43.7837 116.046 43.7285 115.9 43.7285 115.749C43.7285 115.597 43.7837 115.451 43.8837 115.337C43.9837 115.224 44.1217 115.15 44.2719 115.131H85.2457C85.3959 115.15 85.5339 115.224 85.6339 115.337C85.7339 115.451 85.7891 115.597 85.7891 115.749C85.7891 115.9 85.7339 116.046 85.6339 116.16C85.5339 116.274 85.3959 116.347 85.2457 116.367Z" fill="#D1D3D4"/>
<path d="M88.064 109.319H47.0903C46.9401 109.299 46.802 109.226 46.702 109.112C46.602 108.999 46.5469 108.852 46.5469 108.701C46.5469 108.549 46.602 108.403 46.702 108.289C46.802 108.176 46.9401 108.102 47.0903 108.083H88.064C88.2142 108.102 88.3522 108.176 88.4522 108.289C88.5523 108.403 88.6074 108.549 88.6074 108.701C88.6074 108.852 88.5523 108.999 88.4522 109.112C88.3522 109.226 88.2142 109.299 88.064 109.319Z" fill="#D1D3D4"/>
<path d="M148.593 59.186H121.897C121.747 59.1667 121.609 59.0933 121.509 58.9796C121.409 58.8658 121.354 58.7196 121.354 58.5682C121.354 58.4167 121.409 58.2705 121.509 58.1567C121.609 58.043 121.747 57.9696 121.897 57.9503H148.593C148.674 57.9489 148.754 57.9638 148.829 57.9941C148.904 58.0244 148.972 58.0695 149.03 58.1267C149.087 58.1839 149.132 58.252 149.162 58.3269C149.192 58.4019 149.207 58.4822 149.206 58.5631C149.184 58.7188 149.112 58.8633 149.002 58.9754C148.892 59.0876 148.749 59.1614 148.593 59.186Z" fill="#D1D3D4"/>
<path d="M89.0297 43.2425H62.3335C62.171 43.2425 62.0151 43.1779 61.9002 43.063C61.7853 42.9481 61.7207 42.7922 61.7207 42.6297C61.7207 42.4672 61.7853 42.3114 61.9002 42.1964C62.0151 42.0815 62.171 42.017 62.3335 42.017H89.0297C89.111 42.0141 89.1919 42.028 89.2676 42.0578C89.3432 42.0876 89.4119 42.1326 89.4694 42.1901C89.5269 42.2476 89.5719 42.3163 89.6017 42.3919C89.6315 42.4675 89.6454 42.5485 89.6425 42.6297C89.6439 42.7106 89.629 42.7909 89.5987 42.8659C89.5684 42.9408 89.5233 43.0089 89.4661 43.0661C89.409 43.1233 89.3408 43.1684 89.2659 43.1987C89.1909 43.229 89.1106 43.2439 89.0297 43.2425Z" fill="#D1D3D4"/>
<path d="M6.39109 33.0758C6.39109 33.0758 22.2474 40.5043 34.0318 56.1885L28.9538 59.2977L44.4978 66.3764L46.5151 50.4132L40.5076 52.2932C40.5076 52.2932 31.8684 32.0217 17.0808 22.5237L6.39109 33.0758Z" fill="white"/>
<path d="M44.3665 66.7449L28.7862 59.646C28.7459 59.6309 28.7094 59.607 28.6796 59.5761C28.6498 59.5451 28.6272 59.5079 28.6137 59.4672C28.6002 59.4265 28.596 59.3832 28.6014 59.3407C28.6068 59.2981 28.6218 59.2573 28.6451 59.2212C28.6757 59.1593 28.7257 59.1089 28.7876 59.0776L33.5874 56.0874C21.989 40.8446 6.42463 33.4163 6.26752 33.3209C6.22367 33.2951 6.18641 33.2595 6.15864 33.217C6.13087 33.1745 6.11335 33.1261 6.10744 33.0757C6.10094 33.0293 6.10518 32.9819 6.11982 32.9373C6.13447 32.8927 6.15914 32.852 6.19195 32.8183L16.9104 22.3229C17.0003 22.2107 17.1856 22.2203 17.3159 22.2658C31.1272 31.1094 39.6556 49.5568 40.784 51.9352L46.4741 50.1474C46.5275 50.1319 46.5837 50.1288 46.6384 50.1383C46.6931 50.1479 46.7449 50.1699 46.7897 50.2026C46.828 50.2348 46.8573 50.2762 46.875 50.323C46.8926 50.3697 46.8979 50.4202 46.8905 50.4695L44.8729 66.4333C44.8618 66.5119 44.8217 66.5835 44.7604 66.6342C44.699 66.6849 44.621 66.711 44.5414 66.7075C44.4119 66.8046 44.4119 66.8046 44.3829 66.7477L44.3665 66.7449ZM29.62 59.3009L44.2461 65.9933L46.1526 51.0019L40.6163 52.747C40.5799 52.7589 40.5415 52.7633 40.5034 52.76C40.4653 52.7567 40.4283 52.7457 40.3945 52.7278C40.3608 52.7098 40.331 52.6853 40.3071 52.6556C40.2831 52.6259 40.2654 52.5916 40.2551 52.555C40.1833 52.3449 31.5764 32.3797 17.163 23.05L6.90547 33.0081C9.48957 34.2813 23.6243 41.8564 34.2422 56.0206C34.2754 56.0534 34.2985 56.0949 34.3089 56.1403C34.3193 56.1857 34.3166 56.2331 34.3009 56.2771C34.2589 56.3555 34.2446 56.4487 34.1408 56.4646L29.6385 59.3108L29.62 59.3009Z" fill="#D1D3D4"/>
<path d="M195.966 74.0483C195.966 74.0483 189.173 85.8702 168.498 96.5775L171.62 101.104L153.016 101.987L158.789 85.8913L163.11 91.031C163.11 91.031 173.485 86.2769 185.692 65.2373L195.961 74.0483H195.966Z" fill="white"/>
<path d="M185.606 64.9272C185.691 64.9171 185.776 64.9398 185.844 64.9905L196.16 73.7909C196.211 73.8443 196.244 73.9121 196.255 73.985C196.265 74.0579 196.252 74.1323 196.219 74.1977C196.139 74.3033 189.204 86.0988 168.93 96.7005L171.878 100.926C171.908 100.973 171.927 101.025 171.935 101.08C171.942 101.135 171.937 101.191 171.92 101.243C171.895 101.29 171.86 101.33 171.817 101.36C171.774 101.391 171.724 101.41 171.672 101.418L153.062 102.3C153.018 102.304 152.975 102.298 152.934 102.284C152.893 102.269 152.856 102.245 152.825 102.214C152.794 102.184 152.771 102.146 152.756 102.106C152.741 102.065 152.736 102.021 152.74 101.978C152.74 101.93 152.74 101.888 152.771 101.882L158.545 85.7396C158.561 85.6837 158.592 85.6332 158.635 85.594C158.678 85.5548 158.731 85.5284 158.788 85.5178C158.841 85.5043 158.897 85.5067 158.948 85.5245C159 85.5423 159.045 85.5749 159.078 85.6181L163.236 90.5941C164.778 89.7806 174.381 84.1391 185.421 65.0381C185.421 64.9958 185.458 64.943 185.591 64.9219L185.606 64.9272ZM195.558 74.1079L185.723 65.7406C179.463 76.4955 173.732 82.8343 170.002 86.289C165.887 90.0923 163.341 91.2808 163.214 91.3442C163.151 91.3764 163.079 91.3856 163.009 91.3702C162.94 91.3548 162.878 91.3157 162.834 91.2597L158.909 86.532L153.484 101.692L171.059 100.868L168.233 96.8009C168.204 96.7628 168.185 96.7184 168.178 96.6714C168.171 96.6245 168.175 96.5764 168.19 96.5315C168.216 96.4454 168.272 96.3719 168.349 96.3254C187.17 86.5742 194.528 75.7771 195.579 74.1079H195.558Z" fill="#D1D3D4"/>
<path d="M113.33 153.83C113.201 153.821 113.076 153.783 112.965 153.718C112.854 153.653 112.76 153.564 112.691 153.457C112.598 153.101 112.598 152.727 112.691 152.371C112.778 151.826 112.918 150.978 113.109 149.834C113.238 149.204 113.327 148.566 113.374 147.926C113.395 147.609 113.395 147.292 113.374 146.976C113.369 146.86 113.354 146.744 113.33 146.629C113.293 146.579 113.267 146.52 113.256 146.459C113.245 146.398 113.247 146.334 113.264 146.274C113.314 146.148 113.397 146.038 113.506 145.954C113.559 145.849 113.679 145.662 113.861 145.371C114.043 145.089 114.17 144.777 114.237 144.451C114.276 144.078 114.332 143.688 114.413 143.286C114.493 142.884 114.601 142.371 114.735 141.751C114.869 141.13 115.054 140.317 115.293 139.313C115.433 138.663 115.612 137.949 115.824 137.166C116.036 136.382 116.281 135.645 116.526 134.952C116.613 134.71 116.734 134.48 116.887 134.271C116.988 134.118 117.135 134 117.307 133.933C117.634 133.835 117.981 133.819 118.316 133.886C118.683 133.953 119.038 134.07 119.372 134.233C119.662 134.363 119.921 134.551 120.133 134.783C120.317 135.006 120.44 135.271 120.491 135.552C120.607 135.966 120.736 136.47 120.879 137.064C121.02 137.646 121.178 138.296 121.315 138.972C121.452 139.648 121.652 140.428 121.843 141.319C122.034 142.211 122.237 143.172 122.461 144.157C122.685 145.141 122.917 146.082 123.159 146.982C123.361 147.773 123.613 148.551 123.914 149.312C123.973 149.44 124.016 149.574 124.042 149.711C124.062 149.816 124.088 149.92 124.12 150.023C123.988 150.189 123.796 150.3 123.583 150.332C123.292 150.414 122.99 150.451 122.688 150.442C122.389 150.442 122.192 150.361 122.115 150.233C122.06 150.208 122.014 150.167 121.983 150.116C121.925 149.953 121.876 149.787 121.837 149.618C121.76 149.327 121.616 148.84 121.407 148.162L120.333 144.457L120.035 144.579C119.889 144.623 119.629 144.722 119.256 144.87C118.883 145.019 118.477 145.193 118.044 145.389C117.612 145.584 117.218 145.764 116.851 145.936C116.601 146.045 116.358 146.171 116.126 146.312C115.934 146.405 115.782 146.562 115.699 146.755C115.548 147.041 115.438 147.346 115.371 147.661C115.374 147.932 115.333 148.203 115.248 148.462C115.176 148.64 115.143 148.832 115.153 149.024C115.043 149.193 114.97 149.382 114.938 149.58C114.972 149.834 114.972 150.092 114.938 150.346C114.905 150.763 114.855 151.22 114.783 151.741C114.718 152.204 114.618 152.662 114.485 153.11L114.159 154.142L113.33 153.83ZM116.236 144.218C116.567 144.046 116.833 143.9 117.075 143.787C117.278 143.683 117.489 143.596 117.707 143.527C118.137 143.274 118.48 143.079 118.737 142.945C118.931 142.838 119.13 142.741 119.334 142.654C119.454 142.604 119.586 142.586 119.716 142.601C119.809 142.66 119.92 142.689 120.032 142.683C120.019 142.503 119.992 142.325 119.951 142.15C119.892 141.831 119.82 141.435 119.736 140.961C119.653 140.486 119.563 139.994 119.465 139.479C119.366 138.963 119.271 138.488 119.166 138.045C119.062 137.603 118.987 137.259 118.925 137.02C118.813 136.625 118.677 136.235 118.519 135.855C118.423 135.884 118.289 136.117 118.122 136.548C117.917 137.089 117.743 137.641 117.6 138.2C117.418 138.867 117.266 139.575 117.137 140.323C117.086 140.618 117.018 140.91 116.934 141.197C116.86 141.436 116.785 141.567 116.705 141.593C116.648 141.743 116.6 141.896 116.561 142.051C116.49 142.317 116.418 142.608 116.347 142.924C116.275 143.248 116.224 143.536 116.191 143.798C116.159 144.06 116.176 144.186 116.227 144.203L116.236 144.218Z" fill="#69DA00"/>
<path d="M125.979 148.814C125.799 148.696 125.656 148.532 125.567 148.339C125.454 148.125 125.377 147.895 125.337 147.658C125.298 147.465 125.298 147.267 125.337 147.075C125.309 146.972 125.309 146.864 125.337 146.761C125.364 146.692 125.364 146.616 125.337 146.548C125.299 146.436 125.288 146.318 125.304 146.201C125.304 146.029 125.328 145.866 125.343 145.709C125.397 145.418 125.447 145.074 125.492 144.649C125.537 144.223 125.582 143.798 125.623 143.367C125.665 142.936 125.698 142.56 125.716 142.243C125.734 141.925 125.746 141.733 125.746 141.66C125.701 141.468 125.805 141.334 126.065 141.258C126.167 141.202 126.281 141.173 126.398 141.173C126.514 141.173 126.629 141.202 126.731 141.258C127.003 141.383 127.25 141.553 127.462 141.762C127.545 141.817 127.614 141.891 127.661 141.977C127.709 142.063 127.735 142.159 127.736 142.257C127.748 142.589 127.714 142.92 127.635 143.242C127.591 143.462 127.562 143.685 127.548 143.909C127.531 144.158 127.531 144.408 127.548 144.657C127.503 144.85 127.468 145.044 127.444 145.24C127.408 145.493 127.384 145.732 127.369 145.954C127.354 146.097 127.354 146.241 127.369 146.385C127.369 146.586 127.387 146.795 127.39 147.014C127.394 147.2 127.368 147.386 127.312 147.564C127.312 148.255 127.199 148.689 126.939 148.866C126.68 149.044 126.331 149.056 125.979 148.814ZM126.211 138.552C126.039 138.474 125.889 138.357 125.773 138.212C125.662 138.083 125.578 137.934 125.525 137.775C125.48 137.632 125.474 137.547 125.504 137.524C125.646 137.305 125.747 137.064 125.802 136.81C125.876 136.536 125.93 136.256 125.964 135.974C125.976 135.9 125.998 135.828 126.029 135.759C126.054 135.681 126.107 135.614 126.178 135.573C126.275 135.483 126.394 135.42 126.524 135.39C126.653 135.361 126.788 135.365 126.916 135.404C127.226 135.461 127.512 135.608 127.736 135.826C127.943 136.064 128.064 136.362 128.082 136.674C128.07 137.048 127.968 137.414 127.784 137.743C127.651 138.078 127.401 138.356 127.077 138.526C126.945 138.596 126.798 138.636 126.647 138.64C126.497 138.645 126.348 138.615 126.211 138.552Z" fill="#69DA00"/>
<path d="M138.906 146.546C138.589 146.568 138.272 146.529 137.972 146.429C137.677 146.295 137.439 146.067 137.297 145.782C137.193 145.522 137.119 145.252 137.076 144.976C137.031 144.704 137.002 144.429 136.99 144.154C136.99 143.889 136.972 143.677 136.969 143.51C136.982 143.432 136.982 143.353 136.969 143.275C136.951 143.152 136.933 143.027 136.918 142.896C136.85 142.64 136.757 142.488 136.641 142.444C136.524 142.401 136.342 142.444 136.139 142.596C135.768 142.845 135.413 143.116 135.074 143.406C134.676 143.738 134.267 144.112 133.848 144.53C133.428 144.947 133.011 145.382 132.597 145.835C132.353 146.158 132.138 146.503 131.956 146.863C131.845 147.108 131.705 147.242 131.538 147.265C131.48 147.305 131.411 147.328 131.34 147.333C131.269 147.337 131.198 147.323 131.135 147.291C130.966 147.214 130.801 147.126 130.643 147.029C130.508 146.916 130.344 146.776 130.192 146.616C130.084 146.512 129.984 146.4 129.894 146.281C129.867 146.067 129.859 145.852 129.87 145.637C129.884 145.39 129.92 145.144 129.977 144.903C130.034 144.646 130.1 144.408 130.171 144.18C130.237 144.07 130.286 143.952 130.317 143.828C130.364 143.663 130.422 143.501 130.494 143.344C130.527 143.067 130.583 142.794 130.664 142.526C130.756 142.2 130.843 141.9 130.926 141.623C131.048 141.259 131.148 140.889 131.225 140.513C131.287 140.173 131.317 139.828 131.314 139.482C131.293 139.453 131.314 139.401 131.332 139.331C131.346 139.299 131.365 139.269 131.391 139.245C131.416 139.22 131.445 139.201 131.478 139.188H131.505C131.587 139.122 131.684 139.075 131.787 139.051C131.89 139.027 131.998 139.026 132.102 139.048C132.355 139.057 132.598 139.143 132.797 139.296C132.978 139.424 133.127 139.589 133.234 139.78C133.341 139.971 133.404 140.182 133.418 140.4C133.454 140.851 133.281 141.489 132.899 142.319C132.815 142.593 132.735 142.838 132.651 143.047C132.587 143.184 132.55 143.331 132.544 143.481L133.227 142.861C133.409 142.698 133.558 142.57 133.683 142.468C133.755 142.375 133.919 142.2 134.173 141.943C134.427 141.687 134.71 141.425 135.023 141.151C135.337 140.877 135.575 140.682 135.745 140.569C135.924 140.414 136.114 140.274 136.315 140.149C136.448 140.05 136.596 139.973 136.754 139.919C136.959 139.909 137.164 139.947 137.351 140.03C137.601 140.121 137.839 140.24 138.061 140.385C138.234 140.482 138.376 140.623 138.473 140.793C138.473 140.86 138.473 140.936 138.491 141.026C138.493 141.113 138.5 141.199 138.512 141.285C138.562 141.527 138.613 141.827 138.67 142.185C138.727 142.543 138.771 142.893 138.798 143.24C138.834 143.521 138.834 143.806 138.798 144.087C138.83 144.138 138.871 144.183 138.918 144.221C138.907 144.271 138.914 144.322 138.938 144.367C138.933 144.468 138.955 144.568 139.001 144.658C139.06 144.792 139.132 144.92 139.216 145.04C139.311 145.177 139.422 145.331 139.544 145.494C139.584 145.596 139.597 145.706 139.583 145.814C139.569 145.922 139.528 146.026 139.464 146.115C139.329 146.312 139.133 146.463 138.906 146.546Z" fill="#69DA00"/>
<path d="M143.402 148.059C143.025 148.049 142.655 147.958 142.318 147.792C141.981 147.627 141.686 147.391 141.453 147.101C141.008 146.53 140.828 145.745 140.913 144.745C140.997 144.091 141.17 143.451 141.429 142.843C141.71 142.156 142.063 141.5 142.483 140.885C142.875 140.296 143.332 139.751 143.847 139.26C144.252 138.856 144.742 138.541 145.282 138.336C145.46 138.266 145.646 138.218 145.837 138.194C146.027 138.175 146.219 138.175 146.41 138.194C146.625 138.211 146.838 138.244 147.048 138.293C147.266 138.342 147.476 138.417 147.675 138.517C148.054 138.66 148.374 138.921 148.584 139.26C148.795 139.599 148.885 139.996 148.839 140.39C148.839 140.585 148.822 140.78 148.788 140.973C148.749 141.169 148.683 141.359 148.591 141.538C148.323 142.078 147.964 142.57 147.529 142.994C147.122 143.405 146.628 143.724 146.082 143.929C145.944 143.983 145.801 144.022 145.655 144.046C145.507 144.063 145.358 144.063 145.21 144.046C144.883 144.026 144.563 143.946 144.267 143.81C143.996 143.685 143.752 143.511 143.548 143.297L143.36 143.108L143.241 143.32C143.097 143.619 142.974 143.928 142.874 144.244C142.805 144.454 142.757 144.671 142.731 144.89C142.719 145.084 142.719 145.279 142.731 145.473C142.734 145.647 142.776 145.819 142.853 145.977C142.924 146.072 143.018 146.148 143.127 146.198C143.263 146.261 143.41 146.297 143.56 146.306C143.679 146.306 143.79 146.306 143.891 146.306C143.986 146.306 144.081 146.292 144.172 146.265C144.442 146.237 144.701 146.148 144.93 146.006C145.119 145.874 145.318 145.757 145.527 145.656L145.631 145.616L145.61 145.566L146.207 145.33C146.292 145.301 146.372 145.261 146.446 145.211C146.514 145.184 146.592 145.158 146.681 145.132C146.793 145.118 146.905 145.129 147.012 145.163C147.118 145.197 147.215 145.254 147.296 145.33C147.389 145.393 147.464 145.478 147.513 145.577C147.563 145.675 147.586 145.785 147.58 145.895C147.532 146.051 147.446 146.193 147.329 146.309C147.166 146.508 146.98 146.688 146.777 146.848C146.599 146.994 146.397 147.111 146.18 147.194L146.025 147.255C145.962 147.28 145.9 147.308 145.84 147.34H145.864C145.81 147.416 145.739 147.479 145.656 147.524C145.573 147.569 145.481 147.595 145.386 147.599L145.183 147.582C144.992 147.754 144.754 147.869 144.497 147.911C144.145 148.027 143.773 148.078 143.402 148.059ZM145.142 142.409C145.331 142.426 145.521 142.394 145.694 142.315C145.858 142.241 146.014 142.15 146.159 142.044C146.549 141.783 146.836 141.4 146.974 140.958C147.041 140.801 147.071 140.631 147.061 140.461C147.051 140.291 147.002 140.125 146.917 139.976C146.876 139.928 146.822 139.89 146.762 139.866C146.676 139.841 146.586 139.833 146.496 139.842C146.266 139.857 146.043 139.925 145.846 140.04C145.577 140.183 145.325 140.353 145.094 140.547C144.851 140.748 144.628 140.972 144.428 141.214L144.058 141.704C144.127 141.704 144.19 141.686 144.249 141.68H144.366C144.464 141.742 144.536 141.834 144.572 141.943C144.614 142.053 144.674 142.157 144.748 142.251C144.798 142.303 144.86 142.344 144.928 142.371C144.995 142.398 145.068 142.411 145.142 142.409Z" fill="#69DA00"/>
<path d="M149.524 148.935C149.298 148.72 149.119 148.463 148.999 148.179C148.878 147.895 148.818 147.59 148.822 147.283C148.843 146.686 149.121 145.961 149.64 145.113C149.82 144.818 149.962 144.503 150.064 144.175C150.092 143.976 150.059 143.773 149.968 143.592C149.926 143.45 149.87 143.311 149.801 143.179C149.706 142.984 149.685 142.85 149.736 142.783C149.783 142.647 149.864 142.525 149.971 142.427C150.094 142.302 150.177 142.25 150.225 142.27C150.339 142.279 150.454 142.279 150.568 142.27C150.614 142.261 150.662 142.264 150.707 142.276C150.752 142.289 150.793 142.312 150.828 142.343C150.916 142.394 150.993 142.461 151.055 142.541C151.144 142.643 151.177 142.724 151.147 142.786C151.162 142.917 151.269 142.934 151.472 142.835C151.738 142.695 151.988 142.528 152.218 142.337C152.497 142.16 152.798 142.018 153.114 141.915C153.445 141.81 153.781 141.722 154.122 141.653C154.388 141.592 154.659 141.549 154.931 141.524C155.023 141.524 155.181 141.545 155.408 141.574C155.643 141.605 155.876 141.654 156.104 141.72C156.288 141.768 156.465 141.839 156.632 141.929C156.916 142.081 157.151 142.307 157.312 142.582C157.478 142.843 157.613 143.121 157.715 143.412C157.854 143.644 157.895 143.92 157.828 144.181C157.766 144.478 157.661 144.764 157.515 145.031C157.387 145.284 157.208 145.508 156.987 145.69C156.775 145.873 156.523 146.007 156.25 146.08C155.859 146.215 155.46 146.329 155.056 146.421C154.72 146.507 154.374 146.549 154.027 146.546C153.761 146.489 153.499 146.413 153.245 146.319C152.966 146.223 152.694 146.107 152.433 145.972C152.261 145.896 152.104 145.789 151.971 145.658C151.89 145.553 151.783 145.553 151.648 145.658C151.423 145.886 151.232 146.144 151.081 146.424C150.985 146.588 150.909 146.763 150.855 146.945C150.82 147.052 150.801 147.162 150.798 147.274C150.833 147.464 150.897 147.648 150.989 147.819C151.061 147.921 151.154 148.007 151.261 148.073C151.368 148.139 151.488 148.183 151.613 148.203C152 148.28 152.404 148.226 152.755 148.049C153.137 147.884 153.53 147.745 153.931 147.635C154.001 147.596 154.078 147.572 154.158 147.566C154.238 147.559 154.319 147.57 154.394 147.598C154.623 147.666 154.835 147.779 155.017 147.93C155.076 148.01 155.109 148.105 155.115 148.203C155.121 148.302 155.098 148.4 155.05 148.486C154.856 148.775 154.603 149.021 154.307 149.211C154.139 149.339 153.949 149.437 153.746 149.503C153.469 149.604 153.173 149.701 152.851 149.794C152.604 149.869 152.352 149.925 152.096 149.96C151.585 150.004 151.072 149.92 150.604 149.715C150.2 149.518 149.835 149.254 149.524 148.935ZM153.403 144.746C153.689 144.804 153.934 144.845 154.137 144.868C154.351 144.894 154.567 144.875 154.773 144.813C155.086 144.709 155.386 144.572 155.668 144.402C155.791 144.283 155.892 144.144 155.966 143.992C156.02 143.904 156.04 143.801 156.023 143.7C155.996 143.621 155.947 143.551 155.883 143.496C155.818 143.441 155.74 143.404 155.656 143.389C155.458 143.355 155.255 143.361 155.059 143.406C154.857 143.414 154.656 143.448 154.462 143.505C154.184 143.574 153.911 143.66 153.645 143.764C153.413 143.851 153.188 143.955 152.973 144.076C152.794 144.178 152.732 144.257 152.779 144.315C152.72 144.361 152.779 144.437 152.991 144.545C153.203 144.653 153.316 144.723 153.394 144.758L153.403 144.746Z" fill="#69DA00"/>
<path d="M159.231 156.684C153.839 154.805 148.112 154.293 142.544 154.736C136.952 154.683 131.324 155.539 125.86 156.99C123.121 157.718 120.423 158.585 117.776 159.588C116.45 160.085 115.137 160.619 113.837 161.19C112.539 161.773 111.253 162.355 110 163.02C111.212 162.285 112.462 161.613 113.727 160.981C114.992 160.348 116.278 159.711 117.579 159.128C120.185 157.962 122.851 156.931 125.568 156.04C131.032 154.191 136.732 153.084 142.505 152.752C145.409 152.849 148.296 153.22 151.126 153.859C153.93 154.495 156.649 155.443 159.231 156.684Z" fill="#69DA00"/>
</g>
<defs>
<clipPath id="clip0_1165_3987">
<rect width="200" height="200" fill="white"/>
</clipPath>
</defs>
</svg>
