<svg width="56" height="56" viewBox="0 0 56 56" fill="none" xmlns="http://www.w3.org/2000/svg">
<path d="M40 26H31V49H40V26Z" fill="#69DA00"/>
<path d="M31 16H7V26H31V16Z" fill="#69DA00"/>
<path d="M16.691 49H7C7 36.3181 17.7658 26 31 26V35.2872C23.1095 35.2872 16.691 41.4391 16.691 49Z" fill="#69DA00"/>
<path d="M42 7L42.7363 9.73394C43.0319 10.8334 43.6024 11.8418 44.3954 12.6663C45.1885 13.4909 46.1786 14.1051 47.2747 14.4526L49 15L47.2747 15.5464C46.1787 15.8942 45.1888 16.5086 44.3958 17.3331C43.6028 18.1576 43.0322 19.1658 42.7363 20.2651L42 23L41.2637 20.2651C40.9678 19.1658 40.3972 18.1576 39.6042 17.3331C38.8112 16.5086 37.8213 15.8942 36.7253 15.5464L35 15L36.7253 14.4526C37.8214 14.1051 38.8115 13.4909 39.6046 12.6663C40.3976 11.8418 40.9682 10.8334 41.2637 9.73394L42 7Z" fill="#69DA00"/>
</svg>
