<svg t="1743060476671" class="icon" viewBox="0 0 1024 1024" version="1.1" xmlns="http://www.w3.org/2000/svg" p-id="4486" width="128" height="128"><path d="M616.5248 731.6224c-3.5072 3.6608-5.1968 4.9408-6.2464 6.6048-18.6624 29.568-45.7216 41.856-80.0256 38.528-43.6224-4.224-87.2448-8.4224-130.7648-13.5168-12.16-1.4336-18.7648 0.256-25.3696 12.544-18.7136 34.8416-55.1936 47.9232-95.872 39.6544-8.8576-1.792-13.8752-8.2176-12.9536-17.664 3.5072-35.6352 6.5792-71.3472 11.1872-106.8288 3.2768-25.1904 28.4928-44.5184 54.656-41.8816 27.8016 2.7904 55.3472 7.9872 83.0976 11.4432 23.8848 2.9696 47.872 4.9664 73.6256 7.552 1.28-11.8784 2.7648-23.296 3.6608-34.7648 3.7632-47.5392 8.0128-95.0528 10.752-142.6688 1.8432-32.2048 10.368-62.3872 21.376-92.3392 2.5088-6.8352 2.3296-15.7696 0.384-22.912-4.5056-16.512-11.136-32.4352-16.3328-48.768-6.4512-20.3008 0.8448-38.0672 19.328-48.3584 26.0608-14.5408 52.0704-29.2352 78.336-43.4432 7.936-4.3008 16.64-7.1936 26.1632-11.2384-13.5936-28.416-8.1664-55.808 6.6304-82.0992 9.3696-16.6144 23.7824-27.5456 41.728-33.5616 36.9664-12.4416 77.5936 4.5568 94.4128 39.3472 10.752 22.2464 8.832 44.288 0.0256 66.816-8.9088 22.8096-24.6784 38.272-47.9744 47.9744 12.8 19.712 17.5872 40.6528 15.6928 64.3328 20.224 2.1248 39.7312 3.9168 59.1616 6.2976 8.6272 1.0496 17.4848 2.2784 25.6256 5.1968 20.9408 7.5264 33.6384 29.7728 30.4384 51.4816-3.0976 21.0432-21.4784 39.9872-43.0592 40.0384-23.9872 0.0512-48-3.4304-71.9872-5.248-9.3952-0.7168-20.9152-4.6848-27.6224-0.6912-5.9904 3.5584-6.528 16.0768-9.7024 24.576-4.9408 13.1584-6.2976 26.1888-4.4032 40.5248 8.192 61.8752 17.1776 123.52 30.6432 184.5504 3.3024 14.976 2.1248 31.3088 0.8448 46.848-3.1488 38.2208-7.3984 76.3904-11.5968 114.5088-0.8192 7.4496 0.7424 11.52 7.7568 15.5904 33.024 19.1744 48.3072 56.3712 39.0912 93.184-2.3552 9.4208-8.96 14.2592-18.6112 13.3376-35.6352-3.4304-71.296-6.528-106.7776-11.0848-27.3408-3.5072-46.5664-28.7232-44.4928-56.192 1.1008-14.5664 0.3328-29.952 4.9152-43.4432 11.2384-33.1008 8.6016-67.7632 14.2336-101.4016 0.512-3.328 0.0256-6.7584 0.0256-12.8256z m61.0816-313.856c-3.4816-0.896-6.9632-1.7408-10.3936-2.688-30.2336-8.5248-49.7408-27.9808-58.496-58.0608-3.3536-11.5456 0.9472-20.5056 10.2656-23.3216 9.856-2.9952 18.6624 2.2528 22.0416 14.1312 6.6048 23.3728 22.6304 34.944 45.9008 37.4272 37.76 4.0192 75.52 7.7312 113.3056 11.4688 3.6096 0.3584 8.0896 1.4592 10.7264-0.1536 4.864-2.9696 11.2896-7.1936 12.1344-11.8016 0.8448-4.608-3.4048-11.1616-7.1936-15.2576-2.4576-2.6624-8.0128-2.9952-12.2624-3.456-26.8544-2.8928-53.76-5.4528-80.6144-8.32-16.7936-1.792-22.0672-10.0608-17.152-26.3168 9.1648-30.3616-6.2464-61.7728-35.3024-71.9616-30.08-10.5472-62.5664 3.584-73.8304 33.2032-9.984 26.24-18.7648 52.9408-28.032 79.4368-7.424 21.2736-14.7456 42.5472-22.5536 65.1264 5.1712 0.7936 9.0112 1.5104 12.8768 1.92 27.2384 2.7904 54.4768 5.504 81.7152 8.2944 29.9264 3.0464 29.9264 3.072 37.2736-26.9056 0.0256-0.3328-0.128-0.7168-0.4096-2.7648z m-150.3744 197.1968c-2.4576 23.9616-4.6848 46.08-6.9888 68.1472-1.536 14.8224-8.5248 20.5312-23.2448 19.0464-31.2064-3.1488-62.4128-6.4-93.6448-9.472-4.1728-0.4096-8.4224-0.0512-13.2096-0.0512-1.0496 9.728-1.792 18.7904-3.0976 27.776-0.9728 6.7328 1.664 9.1648 8.1664 9.5744 10.1888 0.6656 20.3264 2.0224 30.4896 3.0464 35.5584 3.6096 71.1168 7.3984 106.7008 10.752 30.1824 2.8672 50.5856-11.9296 54.6304-40.6784 3.4304-24.192 5.376-48.6144 7.424-72.96 0.2304-2.7648-2.9184-8.1408-5.0176-8.4224-20.1472-2.688-40.4224-4.5312-62.208-6.7584z m159.1296 222.8224c3.4816-34.3296 5.3248-67.2256 10.5216-99.5584 6.1952-38.656 0.0256-75.648-9.8048-112.512-0.768-2.9184-5.6576-6.8096-8.576-6.7584-13.4656 0.2304-26.9312 1.8944-40.3968 2.688-6.7072 0.384-8.7552 3.584-10.0864 10.112-6.3488 31.3344-3.6608 60.2112 16.8192 86.6304 4.6592 6.016 5.7088 16.4096 5.1456 24.576-1.8432 27.3408-5.0944 54.5792-7.9616 81.8432-0.512 4.8896-0.64 8.704 5.7344 9.2416 12.3648 0.9984 24.6784 2.3552 38.6048 3.7376z m-55.7056-356.3008c-2.1248-0.9984-3.3536-1.9968-4.6592-2.1504-26.8544-2.8416-53.7344-5.504-80.5632-8.448-6.016-0.6656-7.4496 2.1248-7.9616 7.3728-3.072 31.616-6.2464 63.232-9.728 94.8224-0.7168 6.5024 0.9472 9.2416 7.808 9.728 13.824 0.9472 27.5968 2.7136 41.3952 4.0704 23.7824 2.3552 23.7824 2.3552 30.6944-20.9664 0.3072-1.0496 0.7168-2.0736 0.9984-3.1232 7.3216-27.0336 14.6432-54.0672 22.016-81.3056z m117.4528-301.1072c0.2816-23.6288-18.944-43.0592-42.9568-43.4688-26.112-0.4352-47.0016 22.784-47.5392 52.7616-0.4352 23.8848 19.1488 42.7008 44.5184 42.7776 24.576 0.0768 45.6448-23.7824 45.9776-52.0704z m-114.4576 685.1328c-0.9984 8.7552-1.8944 15.9232-2.5856 23.1424-1.4336 14.8736 5.4784 23.3728 20.5824 24.9856 22.0928 2.3808 44.1856 4.5312 66.304 6.7584 5.632 0.5632 11.264 1.0496 16.8192 1.536 2.4576-20.5568-12.672-44.8-38.9888-49.2544-20.0448-3.3792-40.4224-4.736-62.1312-7.168zM300.4416 784.128c24.8832-0.0512 43.5456-13.3632 48.7168-35.2 3.072-13.0816 4.1216-26.7008 5.3248-40.1152 2.6112-29.1328 8.1664-23.3984-23.2448-26.8288-12.6208-1.3824-20.736 5.7344-22.3488 18.5856-1.6896 13.4144-2.816 26.9056-4.1728 40.3456-1.4336 14.1056-2.816 28.1856-4.2752 43.2128z m336.0256-195.5072c13.952-0.9728 25.856-1.4848 37.6064-2.9696 1.92-0.256 4.7872-5.0432 4.6336-7.6032-0.4864-8.704-2.0992-17.3568-3.2768-26.0352-2.8672-21.0688-5.76-42.112-8.6272-63.1808-1.024-0.1024-2.0736-0.2048-3.0976-0.3328-8.8832 32.6912-17.792 65.3568-27.2384 100.1216z m-79.0528-287.0016c-20.6592 6.5792-23.1424 14.592-10.0864 29.184 3.3024-9.5232 6.4-18.4576 10.0864-29.184z" p-id="4487" fill="#e6e6e6"></path><path d="M190.3872 494.464c65.3056 6.656 130.6624 13.1328 195.9168 20.2752 6.1184 0.6656 13.1328 4.5056 17.1776 9.1136 2.5344 2.9184 2.3808 11.8784-0.256 14.7712-4.096 4.48-11.3408 8.4736-17.2032 8.3968-15.2576-0.1536-30.4896-2.5856-45.7216-4.1472L187.904 527.36c-1.8176-0.1792-3.6352-0.3584-5.4272-0.5888-13.1328-1.792-20.4032-9.2416-18.9184-19.3792 1.4592-9.9328 9.2672-14.5664 22.5024-13.3888 1.4592 0.128 2.8928 0.3072 4.352 0.4608-0.0256 0.0512-0.0256 0.0256-0.0256 0zM524.7488 933.888c-65.3056-6.6304-130.6368-13.2608-195.9424-19.968-11.4944-1.1776-18.7648-8.6016-18.0736-17.9456 0.7168-9.7536 9.4464-16 21.632-14.7712 65.3312 6.528 130.6368 13.2352 195.968 19.8656 13.696 1.3824 20.864 7.936 20.0448 18.1504-0.8704 10.752-9.1904 15.8976-23.6288 14.6688zM320.7424 414.8992c36.0704 3.712 73.1136 7.3216 110.1056 11.392 10.624 1.1776 16.4352 8.32 15.6928 17.4592-0.7168 8.9088-8.1408 15.8976-18.304 14.9504-37.4272-3.4048-74.8032-7.1936-112.1536-11.4432-10.368-1.1776-16.1536-9.2416-15.1552-18.176 0.9984-8.9344 8.448-14.5664 19.8144-14.1824zM269.5168 874.88c8.832-0.1024 16.8192 7.808 16.7936 16.6144-0.0256 8.4224-7.3216 15.8464-15.9488 16.256-8.7808 0.4096-17.0752-7.2192-17.408-16.0256-0.3328-8.6016 7.6544-16.7168 16.5632-16.8448zM250.2912 440.5504c-8.832-0.1024-16.6144-8.1408-16.4096-16.9472 0.2048-8.3968 7.7568-15.5392 16.4608-15.5392 9.4976-0.0256 16.7936 7.0656 16.6656 16.1792-0.1024 9.216-7.4752 16.4096-16.7168 16.3072z" p-id="4488" fill="#e6e6e6"></path></svg>