<svg width="118" height="56" viewBox="0 0 118 56" fill="none" xmlns="http://www.w3.org/2000/svg">
<path d="M50.9713 33.3821H44.3115L43.0607 37.1304H39.1113L45.5634 18.8965H49.8316L56.2338 37.1304H52.137L50.9713 33.3821ZM49.9167 30.2403L47.6601 23.0653L45.3287 30.2403H49.9167Z" fill="#69DA00"/>
<path d="M61.8393 18.7852V22.0385H58.2949V18.7852H61.8393ZM61.8393 23.6469V37.1306H58.2949V23.6469H61.8393Z" fill="#69DA00"/>
<path d="M71.5161 26.2563C70.3305 26.2563 69.5173 26.7635 69.0763 27.7777C68.8475 28.314 68.7331 28.9986 68.7331 29.8313V37.1299H65.25V23.6707H68.6225V25.6395C69.0718 24.9467 69.497 24.4478 69.8982 24.1427C70.6179 23.5987 71.5295 23.3265 72.6331 23.3262C74.0146 23.3262 75.1451 23.6908 76.0245 24.4199C76.9039 25.1491 77.3433 26.3593 77.3426 28.0506V37.1288H73.7614V28.9256C73.7614 28.2165 73.6674 27.6722 73.4794 27.2927C73.1357 26.6018 72.4813 26.2563 71.5161 26.2563Z" fill="#69DA00"/>
<path d="M92.0104 33.1716C91.92 33.9719 91.5071 34.7842 90.7715 35.6085C89.6264 36.921 88.0238 37.5773 85.9638 37.5773C84.2632 37.5773 82.7631 37.0247 81.4636 35.9197C80.1642 34.8146 79.5135 33.0167 79.5117 30.5259C79.5117 28.1925 80.0984 26.403 81.2717 25.1572C82.445 23.9114 83.9678 23.2887 85.8402 23.2891C86.9524 23.2891 87.9542 23.4994 88.8456 23.9202C89.737 24.3409 90.4727 25.0048 91.0529 25.9119C91.5759 26.7121 91.9153 27.6398 92.0711 28.6949C92.1611 29.3147 92.1973 30.2054 92.1796 31.367H83.0322C83.0814 32.7199 83.5025 33.6678 84.2955 34.2107C84.7781 34.5487 85.3586 34.7177 86.037 34.7177C86.7567 34.7177 87.3414 34.5115 87.791 34.0991C88.0365 33.8764 88.2533 33.5665 88.4417 33.1694L92.0104 33.1716ZM88.5517 29.04C88.4943 28.1081 88.2141 27.4008 87.7113 26.9181C87.2085 26.4354 86.585 26.1943 85.8408 26.1946C85.0318 26.1946 84.4043 26.4498 83.9583 26.9602C83.5122 27.4707 83.2323 28.1634 83.1184 29.0384L88.5517 29.04Z" fill="#69DA00"/>
<path d="M105.979 33.1716C105.889 33.9719 105.476 34.7842 104.74 35.6085C103.595 36.921 101.993 37.5773 99.9326 37.5773C98.2319 37.5773 96.7318 37.0247 95.4324 35.9197C94.1329 34.8146 93.4823 33.0167 93.4805 30.5259C93.4805 28.1925 94.0671 26.403 95.2404 25.1572C96.4137 23.9114 97.9366 23.2887 99.809 23.2891C100.921 23.2891 101.923 23.4994 102.814 23.9202C103.705 24.3409 104.441 25.0048 105.022 25.9119C105.545 26.7121 105.884 27.6398 106.04 28.6949C106.129 29.3147 106.165 30.2054 106.148 31.367H97.0009C97.0501 32.7199 97.4712 33.6678 98.2643 34.2107C98.7468 34.5487 99.3273 34.7177 100.006 34.7177C100.725 34.7177 101.31 34.5115 101.76 34.0991C102.005 33.8764 102.222 33.5665 102.41 33.1694L105.979 33.1716ZM102.52 29.04C102.463 28.1081 102.183 27.4008 101.68 26.9181C101.177 26.4354 100.554 26.1943 99.8095 26.1946C99.0002 26.1946 98.3727 26.4498 97.927 26.9602C97.4813 27.4707 97.2014 28.1634 97.0871 29.0384L102.52 29.04Z" fill="#69DA00"/>
<path d="M31.2031 23.5039H25.6348V37.3863H31.2031V23.5039Z" fill="#69DA00"/>
<path d="M25.6359 17.8867H11.8457V23.5031H25.6359V17.8867Z" fill="#69DA00"/>
<path d="M17.414 37.4131H11.8457C11.8457 29.7438 18.0316 23.5039 25.6359 23.5039V29.1203C21.1021 29.1203 17.414 32.8407 17.414 37.4131Z" fill="#69DA00"/>
<path d="M32.4304 12.4238L32.8506 14.0163C33.0193 14.6567 33.3449 15.2441 33.7975 15.7244C34.2501 16.2047 34.8151 16.5625 35.4407 16.7649L36.4253 17.0837L35.4407 17.402C34.8152 17.6046 34.2503 17.9625 33.7977 18.4428C33.3452 18.923 33.0195 19.5103 32.8506 20.1506L32.4304 21.7437L32.0102 20.1506C31.8414 19.5103 31.5157 18.923 31.0632 18.4428C30.6106 17.9625 30.0456 17.6046 29.4202 17.402L28.4355 17.0837L29.4202 16.7649C30.0457 16.5625 30.6108 16.2047 31.0634 15.7244C31.516 15.2441 31.8416 14.6567 32.0102 14.0163L32.4304 12.4238Z" fill="#69DA00"/>
</svg>
