<svg width="128" height="128" viewBox="0 0 128 128" fill="none" xmlns="http://www.w3.org/2000/svg">
<path fill-rule="evenodd" clip-rule="evenodd" d="M105.761 11.6125L103.735 4L101.708 11.6125C100.895 14.6737 99.3251 17.4816 97.1424 19.7775C94.9598 22.0735 92.2346 23.7838 89.2181 24.7513L84.4694 26.2753L89.2181 27.7968C92.2341 28.7653 94.9588 30.4761 97.1415 32.772C99.3236 35.0675 100.894 37.8749 101.708 40.9357L103.735 48.551L105.761 40.9357C106.576 37.8749 108.146 35.0675 110.329 32.772C112.511 30.4761 115.235 28.7653 118.252 27.7968L123 26.2753L118.252 24.7513C115.235 23.7838 112.51 22.0735 110.328 19.7775C108.145 17.4816 106.575 14.6737 105.761 11.6125ZM5 124.408C5 87.2493 34.6742 57.0123 71.1651 56.9796H5V30.4898H71.2245V56.9796V84.2065C49.4519 84.2065 31.7406 102.242 31.7406 124.408H5ZM71.2246 56.9795V123.204H97.7143V56.9795H71.2246Z" fill="#69DA00"/>
</svg>
