<svg width="589" height="233" viewBox="0 0 589 233" fill="none" xmlns="http://www.w3.org/2000/svg">
<g clip-path="url(#clip0_16_3)">
<path d="M62.7598 27.5109C43.6759 27.5109 33.4969 28.7847 29.0423 28.7847C21.6201 28.7847 15.0466 28.5716 8.47037 28.5716C4.86681 28.5716 4.23074 28.7847 4.23074 30.2688C4.23074 32.812 5.07801 33.027 14.6234 33.027C20.5584 33.027 23.9554 34.9358 23.9554 51.6885V149.241C23.9554 152.421 23.5286 152.846 13.9865 152.846C9.32037 152.846 8.04687 153.267 8.04687 155.391C8.04687 157.511 9.53157 157.722 11.6548 157.722C18.4392 157.722 23.1054 156.875 32.0111 156.875C41.3417 156.875 50.2499 158.993 59.1573 158.993C88.6361 158.993 108.36 147.757 108.36 124.004C108.36 105.555 95.8437 98.3427 85.877 93.2501C81.6355 91.1304 77.6054 90.0703 77.6054 89.6476C77.6054 89.0132 82.2716 86.6788 86.3033 83.9211C93.091 79.2566 102.21 71.8307 102.21 56.7749C102.21 41.7175 90.3331 27.5109 62.7598 27.5109ZM426.124 27.7535C425.017 27.7535 418.008 30.8894 403.62 31.8117C400.486 31.9959 399.007 31.8098 399.007 34.0236C399.007 36.0546 400.854 36.4246 404.174 36.4246C412.473 36.4246 413.581 36.4235 413.581 48.0427V149.678C413.581 152.998 410.444 152.814 402.882 152.814C398.453 152.814 398.269 153.924 398.269 155.215C398.269 156.69 398.637 157.059 402.882 157.059C405.464 157.059 415.242 156.691 421.511 156.691C424.835 156.691 428.892 157.059 431.659 157.059C438.298 157.059 439.589 157.059 439.589 155.215C439.589 153.736 439.957 152.63 430.734 152.63C427.415 152.63 426.124 150.601 426.124 135.293C426.124 129.941 427.046 115.372 427.046 45.0916C427.046 39.5591 427.968 32.9154 427.968 30.7016C427.968 28.6723 427.045 27.7535 426.124 27.7535ZM272.985 27.9374C271.323 27.9374 260.439 31.9931 247.16 31.9931C245.131 31.9931 244.762 32.7318 244.762 34.5753C244.762 35.8698 245.5 36.4249 253.06 36.4249C258.04 36.4249 259.517 38.085 259.517 51.1796C259.517 90.1017 258.962 144.7 258.962 150.048C258.962 152.815 257.303 152.814 251.032 152.814C246.605 152.814 245.684 153.737 245.684 155.215C245.684 156.874 246.791 157.059 251.032 157.059C253.614 157.059 260.44 156.692 266.715 156.692C272.617 156.692 281.099 157.059 283.865 157.059C287.922 157.059 288.846 157.059 288.846 155.215C288.846 153.736 288.108 152.814 283.865 152.814C272.43 152.814 272.801 152.815 272.801 144.149V132.528C272.801 130.866 275.382 129.574 278.333 127.728C281.467 125.699 284.048 123.856 284.787 123.856C285.894 123.856 293.645 135.479 301.391 144.333C309.138 153.186 310.798 157.797 314.121 157.797C316.703 157.797 322.236 157.613 324.449 157.613C326.109 157.613 328.506 157.797 330.72 157.797C334.777 157.797 336.068 157.428 336.068 156.137C336.068 154.662 334.594 153.736 330.168 153.736C323.897 153.736 317.994 144.699 311.72 137.137C298.81 121.642 295.491 118.139 295.491 116.478C295.491 115.187 306.926 107.073 316.151 98.0319C321.868 92.4994 328.138 84.5695 328.138 82.9066C328.138 82.3526 327.401 82.1684 325.926 82.1684C323.714 82.1684 313.012 82.7202 310.614 82.7202C308.4 82.7202 304.898 82.1684 303.054 82.1684C300.656 82.1684 299.734 82.5368 299.734 84.0152C299.734 85.6762 300.655 86.043 303.421 86.043C311.536 86.043 312.09 86.413 312.09 89.3633C312.09 93.2364 310.43 96.3728 303.238 103.196C297.335 108.732 278.148 125.7 273.536 125.7C272.983 125.7 272.801 125.146 272.801 124.408C272.801 94.3427 273.904 73.6846 273.904 45.6469C273.904 39.7441 274.274 31.9929 274.274 29.5965C274.274 28.49 273.906 27.9374 272.985 27.9374ZM56.395 32.6008C75.694 32.6008 84.6019 52.9607 84.6019 63.5653C84.6019 80.3181 77.6035 84.3476 71.4535 89.0137C71.4535 89.0137 62.5448 87.74 49.6106 87.74C44.518 87.74 41.7628 88.1626 41.7628 84.7687V38.7522C41.7628 34.5107 42.4002 32.6008 56.395 32.6008ZM149.397 80.3227C132.612 80.3227 115.087 95.8186 115.087 121.827C115.087 152.631 137.592 160.012 152.716 160.012C167.657 160.012 183.337 148.387 183.337 147.466C183.337 147.096 182.783 145.99 181.86 145.99C180.755 145.99 174.115 150.419 161.941 150.419C147.921 150.419 128.182 143.593 128.182 118.137C128.182 113.896 128.737 112.973 131.691 112.789C152.716 111.498 171.162 107.442 175.958 106.332C180.941 105.225 183.523 104.489 183.523 103.75C183.523 102.275 180.57 97.8469 177.432 94.1596C170.792 86.4116 158.99 80.3227 149.397 80.3227ZM364.479 80.3227C347.696 80.3227 330.168 95.8186 330.168 121.827C330.168 152.631 352.672 160.012 367.798 160.012C382.737 160.012 398.419 148.387 398.419 147.466C398.419 147.096 397.863 145.99 396.942 145.99C395.835 145.99 389.194 150.419 377.02 150.419C363.002 150.419 343.266 143.593 343.266 118.137C343.266 113.896 343.82 112.973 346.77 112.789C367.798 111.498 386.241 107.442 391.04 106.332C396.02 105.225 398.603 104.489 398.603 103.75C398.603 102.275 395.653 97.8469 392.516 94.1596C385.873 86.4116 374.072 80.3227 364.479 80.3227ZM470.872 80.3227C454.085 80.3227 436.562 95.8186 436.562 121.827C436.562 152.631 459.065 160.012 474.191 160.012C489.132 160.012 504.812 148.387 504.812 147.466C504.812 147.096 504.257 145.99 503.336 145.99C502.229 145.99 495.591 150.419 483.414 150.419C469.397 150.419 449.659 143.593 449.659 118.137C449.659 113.896 450.213 112.973 453.163 112.789C474.192 111.498 492.638 107.442 497.434 106.332C502.414 105.225 504.996 104.489 504.996 103.75C504.996 102.275 502.047 97.8469 498.91 94.1596C492.271 86.4116 480.462 80.3227 470.872 80.3227ZM213.587 81.6126C210.633 81.6126 207.128 82.5346 204.178 82.5346C200.489 82.5346 196.983 82.1641 190.712 82.1641C187.574 82.1641 187.76 82.7202 187.76 84.9354C187.76 86.965 187.759 86.7794 191.083 86.7794C201.411 86.7794 201.041 87.1484 201.041 99.6904V150.233C201.041 152.815 200.489 152.999 192.927 152.999C188.498 152.999 188.314 153.367 188.314 155.214C188.314 157.059 188.682 157.058 192.927 157.058C195.509 157.058 201.781 156.136 208.052 156.136C213.956 156.136 226.314 157.058 228.896 157.058C233.691 157.058 233.876 157.243 233.876 155.214C233.876 153.551 233.691 152.999 228.896 152.999C215.247 152.999 214.695 152.998 214.695 143.96V105.959C214.695 98.2134 218.751 93.7866 229.447 93.7866C238.672 93.7866 240.887 101.349 243.469 101.349C244.576 101.349 247.525 93.234 247.525 91.3885C247.525 86.5942 239.042 82.5333 235.718 82.5333C227.049 82.5333 218.383 92.1267 215.617 92.1267C214.879 92.1267 214.695 90.836 214.695 89.1769C214.695 88.6224 215.063 84.5645 215.063 83.6417C215.063 82.1633 214.325 81.6126 213.587 81.6126ZM581.897 81.7962C579.315 81.7962 574.335 82.5346 571.569 82.5346C566.585 82.5346 563.266 82.1668 558.287 82.1668C554.967 82.1668 554.413 82.1654 554.413 84.5651C554.413 86.4103 555.151 86.4119 560.87 86.4119C567.139 86.4119 567.137 87.517 567.137 93.0498C567.137 95.6317 560.499 114.818 556.073 128.097C553.122 136.769 552.015 139.35 550.724 139.35C549.986 139.35 547.772 136.215 546.293 132.342C535.228 103.932 530.432 97.4755 530.432 92.1272C530.432 87.8857 531.539 86.7789 535.965 86.7789C539.838 86.7789 540.577 86.5942 540.577 84.9348C540.577 82.9019 539.838 82.166 535.965 82.166C530.064 82.166 523.605 82.7177 518.441 82.7177C514.015 82.7177 512.725 82.3499 507.561 82.3499C504.24 82.3499 503.689 83.2736 503.689 84.9348C503.689 86.5942 503.872 86.7789 507.561 86.7789C510.88 86.7789 512.172 87.7026 516.783 98.7676C526.929 122.748 541.683 156.872 541.683 158.902C541.683 164.434 525.825 186.199 519.182 194.498C512.911 202.432 504.24 203.538 504.24 204.646C504.24 205.568 506.084 206.49 509.221 206.49C513.278 206.49 514.569 205.014 520.101 204.278C524.162 203.724 526.375 203.538 528.405 199.481C534.305 187.306 542.608 172.364 554.229 144.143C568.8 108.731 576.918 86.5939 580.975 86.5939C583.189 86.5939 585.769 85.671 585.769 84.0117C585.769 81.9804 584.848 81.7962 581.897 81.7962ZM147.552 84.1975C156.038 84.1975 166.919 97.8447 166.919 102.456C166.919 103.563 166.737 103.932 164.708 104.3C150.873 106.514 140.912 108.916 131.32 108.916C129.105 108.916 129.106 108.73 129.106 107.807C129.106 105.222 133.535 84.1975 147.552 84.1975ZM362.63 84.1975C371.118 84.1975 382 97.8447 382 102.456C382 103.563 381.816 103.932 379.786 104.3C365.951 106.514 355.991 108.916 346.402 108.916C344.188 108.916 344.187 108.73 344.187 107.807C344.187 105.222 348.613 84.1975 362.63 84.1975ZM469.023 84.1975C477.508 84.1975 488.393 97.8447 488.393 102.456C488.393 103.563 488.209 103.932 486.179 104.3C472.344 106.514 462.385 108.916 452.792 108.916C450.578 108.916 450.578 108.73 450.578 107.807C450.578 105.222 455.003 84.1975 469.023 84.1975ZM49.413 91.7651C72.527 91.7651 88.2188 106.611 88.2188 125.698C88.2188 144.148 76.3448 155.179 60.2284 155.179C53.4406 155.179 46.657 153.693 44.3223 151.147C42.4155 149.026 41.7775 137.151 41.7775 135.241V97.278C41.7775 92.6135 43.4745 91.7651 49.413 91.7651ZM154.575 178.338C150.217 178.338 146.583 180.967 146.583 185.323C146.583 193.601 157.49 192.125 157.49 196.733C157.49 198.568 156.086 200.152 153.243 200.152C151.334 200.152 148.923 199.254 146.906 197.887L145.107 201.055C147.123 202.457 149.857 203.792 153.243 203.792C157.958 203.792 161.882 200.764 161.882 196.589C161.882 188.2 150.975 190.723 150.975 185.141C150.975 183.306 152.199 181.976 154.575 181.976C156.698 181.976 158.353 182.696 160.19 183.63L161.738 180.534C159.652 179.24 157.165 178.338 154.575 178.338ZM241.529 178.338C234.114 178.338 230.804 183.631 230.804 191.046C230.804 198.102 234.078 203.792 241.529 203.792C248.98 203.792 252.257 198.102 252.257 191.046C252.257 183.631 248.945 178.338 241.529 178.338ZM299.334 178.338C291.918 178.338 288.28 183.667 288.28 191.084C288.28 198.642 291.596 203.792 299.19 203.792C302.502 203.792 305.598 202.421 308.117 200.117L305.921 197.312C303.905 199.148 301.602 200.152 299.406 200.152C294.833 200.152 292.672 196.879 292.672 191.047C292.672 185.251 294.978 181.976 299.334 181.976C301.674 181.976 303.401 182.805 305.308 184.387L307.541 181.507C304.949 179.382 302.393 178.338 299.334 178.338ZM393.055 178.338C385.639 178.338 382.33 183.631 382.33 191.046C382.33 198.102 385.604 203.792 393.055 203.792C400.507 203.792 403.784 198.102 403.784 191.046C403.784 183.631 400.471 178.338 393.055 178.338ZM48.5876 178.698L44.4465 179.132V203.395H48.7311V186.836H48.8032L59.2064 203.395H63.0226V178.735H58.7376V194.937H58.6312L48.5876 178.698ZM103.544 178.698V203.395H118.52L118.845 199.758H107.829V192.776H117.081V189.138H107.829V182.335H118.232V178.698L103.544 178.698ZM257.768 178.698V203.395H262.051V192.776H271.125V189.138H262.051V182.335H272.166V178.698L257.768 178.698ZM323.995 178.698L318.993 179.095L310.316 203.395H314.314L316.363 197.452H326.3L328.352 203.395H332.746L323.995 178.698ZM365.168 178.698V203.395H369.45V192.776H378.524V189.138H369.45V182.335H379.568V178.698L365.168 178.698ZM432.618 178.698L428.477 179.132V203.395H432.76V186.836H432.835L443.235 203.395H447.051V178.735H442.769V194.937H442.66L432.618 178.698ZM473.897 178.698L468.893 179.095L460.216 203.395H464.214L466.266 197.452H476.2L478.252 203.395H482.646L473.897 178.698ZM20.2462 178.735V194.825C20.2462 200.37 23.3051 203.792 29.3547 203.792C35.3644 203.792 38.4255 200.37 38.4255 194.79V178.735H34.1403V195.078C34.1403 198.139 32.8472 200.152 29.3544 200.152C25.8262 200.152 24.5287 198.138 24.5287 195.041V178.735H20.2462ZM69.1245 178.735V203.395H73.407V178.735H69.1245ZM77.6172 178.735L86.1123 203.395H90.8261L99.3589 178.735H95.1457L90.4318 192.523C90.4318 192.523 89.9644 193.925 88.74 198.137H88.5239C87.3353 193.925 86.8689 192.485 86.8689 192.485L82.1523 178.735H77.6172ZM124.514 178.735V203.395H128.796V193.53H130.848C132.397 193.53 133.297 194.972 134.016 196.448L137.435 203.395H142.152L137.435 194.503C137.149 193.926 136.716 193.277 135.924 192.808V192.738C139.163 191.514 140.569 188.995 140.569 186.045C140.569 181.761 137.868 178.735 132.431 178.735L124.514 178.735ZM166.983 178.735V203.395H171.266V178.735H166.983ZM176.195 178.735V182.407H182.713V203.395H186.996V182.37H193.223L193.548 178.735H176.195ZM196.352 178.735L204.128 192.845V203.395H208.41V192.845L216.189 178.735H211.469L207.978 185.757C207.978 185.757 207.546 186.654 206.324 189.391H206.217C204.919 186.654 204.45 185.757 204.45 185.757L201.175 178.735H196.352ZM336.216 178.735V203.395H350.795L351.12 199.758H340.501V178.735H336.216ZM355.29 178.735V203.395H359.573V178.735H355.29ZM407.477 178.735V203.395H411.762V193.53H413.814C415.361 193.53 416.263 194.972 416.982 196.448L420.401 203.395H425.118L420.402 194.503C420.115 193.926 419.682 193.277 418.891 192.808V192.738C422.129 191.514 423.535 188.995 423.535 186.045C423.535 181.761 420.834 178.735 415.397 178.735L407.477 178.735ZM452.433 178.735V203.395H456.716V178.735H452.433ZM241.523 181.975C245.772 181.975 247.823 185.683 247.823 191.046C247.823 196.41 245.737 200.152 241.523 200.152C237.276 200.152 235.189 196.408 235.189 191.009C235.189 185.645 237.276 181.975 241.523 181.975ZM393.046 181.975C397.294 181.975 399.345 185.683 399.345 191.046C399.345 196.41 397.259 200.152 393.046 200.152C388.798 200.152 386.712 196.408 386.712 191.009C386.712 185.645 388.798 181.975 393.046 181.975ZM128.796 182.407H132.324C135.24 182.407 136.177 183.775 136.177 186.079C136.177 188.419 134.988 189.93 132.396 189.93H128.796V182.407ZM411.761 182.407H415.29C418.206 182.407 419.143 183.775 419.143 186.079C419.143 188.419 417.954 189.93 415.362 189.93H411.761V182.407ZM321.243 183.055H321.315C323.007 188.166 323.295 188.957 323.295 188.957L325.203 194.393H317.39L319.298 188.957C319.298 188.957 319.587 188.166 321.243 183.055ZM471.145 183.055H471.217C472.909 188.166 473.2 188.957 473.2 188.957L475.105 194.393H467.292L469.203 188.957C469.203 188.957 469.489 188.166 471.145 183.055Z" fill="#00326F"/>
</g>
<defs>
<clipPath id="clip0_16_3">
<rect width="589" height="233" fill="white"/>
</clipPath>
</defs>
</svg>
