<svg width="589" height="233" viewBox="0 0 589 233" fill="none" xmlns="http://www.w3.org/2000/svg">
<g clip-path="url(#clip0_16_6)">
<path d="M42.2031 150.139C41.5799 144.845 41.8798 137.131 41.8798 133.264L49.9791 42.2132H79.746L71.6457 134.069C69.9152 154.007 77.7144 168.119 97.6507 168.119C117.887 168.119 128.64 153.846 130.348 136.165L138.932 42.2112H168.837L160.577 134.899C157.163 170.697 133.487 197.356 95.1595 197.356C65.254 197.356 45.9384 178.11 42.2031 150.139ZM180.973 119.312C184.874 75.639 214.48 39.3342 265.402 39.3342C278.947 39.3342 291.869 42.3962 304.675 50.753L301.236 86.8748C289.56 71.289 275.531 68.8945 262.609 68.8945C230.835 68.8945 213.391 90.9038 210.898 118.692C208.545 145.973 222.574 167.98 253.426 167.98C266.833 167.98 281 164.113 295.954 149.194L292.678 186.282C278.187 194.155 264.641 197.678 251.095 197.678C200.446 197.678 177.258 160.245 180.969 119.31M328.652 42.2093H358.394L347.48 165.862H390.169C393.284 165.862 403.414 165.724 406.206 165.724C406.067 167.175 403.414 194.134 403.414 194.134H315.083L328.652 42.2093ZM491.583 35.3261H489.414L407.798 194.156H439.572L450.925 170.052H508.566L515.742 194.156H547.192L491.634 35.3221M484.02 98.9104C484.966 96.8154 485.727 94.0986 486.189 92.6483H486.673C486.812 94.5823 487.135 96.8381 487.758 99.0716C489.304 105.978 501.003 144.377 501.003 144.377H463.276C463.276 144.377 483.535 100.035 484.019 98.9069L484.02 98.9104Z" fill="#2774AE"/>
</g>
<defs>
<clipPath id="clip0_16_6">
<rect width="589" height="233" fill="white"/>
</clipPath>
</defs>
</svg>
