<svg width="24" height="24" viewBox="0 0 24 24" fill="none" xmlns="http://www.w3.org/2000/svg">
<path d="M10.5 5L9.87361 6.69277C9.05226 8.91243 8.64157 10.0223 7.83195 10.832C7.02232 11.6415 5.91248 12.0522 3.69278 12.8737L2 13.5L3.69278 14.1263C5.91248 14.9478 7.02232 15.3585 7.83195 16.168C8.64157 16.9777 9.05226 18.0876 9.87361 20.3072L10.5 22L11.1263 20.3072C11.9478 18.0876 12.3585 16.9777 13.168 16.168C13.9777 15.3585 15.0876 14.9478 17.3072 14.1263L19 13.5L17.3072 12.8737C15.0876 12.0522 13.9777 11.6415 13.168 10.832C12.3585 10.0223 11.9478 8.91243 11.1263 6.69277L10.5 5Z" stroke="#231815" stroke-width="1.5" stroke-linejoin="round"/>
<path d="M18.5 2L18.2421 2.69702C17.9038 3.61101 17.7348 4.06802 17.4013 4.40138C17.068 4.73476 16.611 4.90387 15.6971 5.24207L15 5.5L15.6971 5.75793C16.611 6.09613 17.068 6.26524 17.4013 6.59861C17.7348 6.93198 17.9038 7.38898 18.2421 8.30297L18.5 9L18.7579 8.30297C19.0962 7.38898 19.2652 6.93198 19.5986 6.5986C19.932 6.26524 20.3889 6.09613 21.3029 5.75793L22 5.5L21.3029 5.24207C20.3889 4.90387 19.932 4.73476 19.5986 4.40138C19.2652 4.06802 19.0962 3.61101 18.7579 2.69702L18.5 2Z" stroke="#231815" stroke-width="1.5" stroke-linejoin="round"/>
</svg>
