<svg width="24" height="24" viewBox="0 0 24 24" fill="none" xmlns="http://www.w3.org/2000/svg">
<path d="M12 5L10.8961 3.45459C10.4851 2.87911 10.2795 2.59137 10.4093 2.32411C10.5391 2.05684 10.8689 2.04153 11.5286 2.01092C11.6848 2.00367 11.842 2 12 2C17.5228 2 22 6.47715 22 12C22 17.5228 17.5228 22 12 22C6.47715 22 2 17.5228 2 12C2 8.72836 3.57111 5.82368 6 3.99927" stroke="#A7A3A1" stroke-width="1.5" stroke-linecap="round" stroke-linejoin="round"/>
<path d="M7.99219 11.0036C8.52019 10.5836 9.00019 9.89101 9.30019 10.0196C9.60019 10.1482 9.50419 10.5716 9.50419 11.2316C9.50419 11.8916 9.50419 14.6843 9.50419 16.0076" stroke="#A7A3A1" stroke-width="1.5" stroke-linecap="round"/>
<path d="M16.0022 12.6008C16.0022 11.2208 16.0682 10.8488 15.8042 10.4048C15.5402 9.96083 14.8802 9.99923 14.2202 9.99923C13.5602 9.99923 13.0802 9.96083 12.7622 10.3208C12.3722 10.7408 12.5402 11.5208 12.4922 12.6008C12.6002 14.0408 12.3062 15.1808 12.7562 15.6608C13.0802 16.0568 13.6553 15.9968 14.3402 16.0088C15.0201 16.0005 15.4322 16.0328 15.7682 15.6488C16.1402 15.3128 15.9602 13.9808 16.0022 12.6008Z" stroke="#A7A3A1" stroke-width="1.5" stroke-linecap="round"/>
</svg>
