<svg width="24" height="24" viewBox="0 0 24 24" fill="none" xmlns="http://www.w3.org/2000/svg">
<path d="M12 5L13.1039 3.45459C13.5149 2.87911 13.7205 2.59137 13.5907 2.32411C13.4609 2.05684 13.1311 2.04153 12.4714 2.01092C12.3152 2.00367 12.158 2 12 2C6.4772 2 2 6.47715 2 12C2 17.5228 6.4772 22 12 22C17.5229 22 22 17.5228 22 12C22 8.72836 20.4289 5.82368 18 3.99927" stroke="#A7A3A1" stroke-width="1.5" stroke-linecap="round" stroke-linejoin="round"/>
<path d="M7.99219 11.0036C8.52019 10.5836 9.00019 9.89101 9.30019 10.0196C9.60019 10.1482 9.50419 10.5716 9.50419 11.2316C9.50419 11.8916 9.50419 14.6843 9.50419 16.0076" stroke="#A7A3A1" stroke-width="1.5" stroke-linecap="round"/>
<path d="M16.0022 12.6008C16.0022 11.2208 16.0682 10.8488 15.8042 10.4048C15.5402 9.96083 14.8802 9.99923 14.2202 9.99923C13.5602 9.99923 13.0802 9.96083 12.7622 10.3208C12.3722 10.7408 12.5402 11.5208 12.4922 12.6008C12.6002 14.0408 12.3062 15.1808 12.7562 15.6608C13.0802 16.0568 13.6553 15.9968 14.3402 16.0088C15.0201 16.0005 15.4322 16.0328 15.7682 15.6488C16.1402 15.3128 15.9602 13.9808 16.0022 12.6008Z" stroke="#A7A3A1" stroke-width="1.5" stroke-linecap="round"/>
</svg>
