<?xml version="1.0" standalone="no"?><!DOCTYPE svg PUBLIC "-//W3C//DTD SVG 1.1//EN" "http://www.w3.org/Graphics/SVG/1.1/DTD/svg11.dtd"><svg t="1744275716301" class="icon" viewBox="0 0 1024 1024" version="1.1" xmlns="http://www.w3.org/2000/svg" p-id="13875" xmlns:xlink="http://www.w3.org/1999/xlink" width="128" height="128"><path d="M902 270l-210-60L632 0H212C162.294 0 122 40.294 122 90v844c0 49.706 40.294 90 90 90h600c49.706 0 90-40.294 90-90z" fill="#4086F4" p-id="13876"></path><path d="M902 270v664c0 49.706-40.294 90-90 90H512V0h120l60 210z" fill="#4175DF" p-id="13877"></path><path d="M902 270H692c-33 0-60-27-60-60V0c7.8 0 15.6 3 20.998 9.002l240 240C899 254.4 902 262.2 902 270z" fill="#80AEF8" p-id="13878"></path><path d="M692 482H332c-16.582 0-30-13.418-30-30s13.418-30 30-30h360c16.582 0 30 13.418 30 30s-13.418 30-30 30zM692 602H332c-16.582 0-30-13.418-30-30s13.418-30 30-30h360c16.582 0 30 13.418 30 30s-13.418 30-30 30zM692 722H332c-16.582 0-30-13.418-30-30s13.418-30 30-30h360c16.582 0 30 13.418 30 30s-13.418 30-30 30zM572 842H332c-16.582 0-30-13.418-30-30s13.418-30 30-30h240c16.582 0 30 13.418 30 30s-13.418 30-30 30z" fill="#FFF5F5" p-id="13879"></path><path d="M512 842h60c16.582 0 30-13.418 30-30s-13.418-30-30-30h-60zM512 722h180c16.582 0 30-13.418 30-30s-13.418-30-30-30h-180zM512 602h180c16.582 0 30-13.418 30-30s-13.418-30-30-30h-180zM512 482h180c16.582 0 30-13.418 30-30s-13.418-30-30-30h-180z" fill="#E3E7EA" p-id="13880"></path></svg>