<svg width="25" height="24" viewBox="0 0 25 24" fill="none" xmlns="http://www.w3.org/2000/svg">
<path d="M2 13C2 8.28596 2 5.92894 3.46446 4.46446C4.92894 3 7.28596 3 12 3C16.714 3 19.0711 3 20.5356 4.46446C22 5.92894 22 8.28596 22 13C22 17.714 22 20.0711 20.5356 21.5356C19.0711 23 16.714 23 12 23C7.28596 23 4.92894 23 3.46446 21.5356C2 20.0711 2 17.714 2 13Z" stroke="currentColor" stroke-width="1.5" stroke-linecap="round" stroke-linejoin="round"/>
<path d="M22 13.5H17.0743C16.2322 13.5 15.5706 14.2036 15.1995 14.9472C14.7963 15.7551 13.9889 16.5 12.5 16.5C11.0111 16.5 10.2037 15.7551 9.80054 14.9472C9.42942 14.2036 8.76777 13.5 7.92566 13.5H2" stroke="currentColor" stroke-width="1.5" stroke-linejoin="round"/>
</svg> 