<svg width="25" height="24" viewBox="0 0 25 24" fill="none" xmlns="http://www.w3.org/2000/svg">
<path d="M3 6.44444C3 4.88874 3 4.11089 3.27248 3.51669C3.51217 2.99402 3.89462 2.56908 4.36502 2.30276C4.8998 2 5.59987 2 7 2C8.40013 2 9.1002 2 9.63498 2.30276C10.1054 2.56908 10.4878 2.99402 10.7275 3.51669C11 4.11089 11 4.88874 11 6.44444V17.5556C11 19.1112 11 19.8891 10.7275 20.4833C10.4878 21.006 10.1054 21.4309 9.63498 21.6972C9.1002 22 8.40013 22 7 22C5.59987 22 4.8998 22 4.36502 21.6972C3.89462 21.4309 3.51217 21.006 3.27248 20.4833C3 19.8891 3 19.1112 3 17.5556V6.44444Z" stroke="#655D5B" stroke-width="1.5" stroke-linecap="round" stroke-linejoin="round"/>
<path d="M7 17H7.00898" stroke="#655D5B" stroke-width="2" stroke-linecap="round" stroke-linejoin="round"/>
<path d="M3 7L11 7" stroke="#655D5B" stroke-width="1.5" stroke-linecap="round" stroke-linejoin="round"/>
<path d="M12.4486 9.26842C12.0937 7.93837 11.9163 7.27335 12.0385 6.69598C12.146 6.18811 12.4108 5.72746 12.7951 5.38005C13.2319 4.98508 13.8942 4.80689 15.2187 4.4505C16.5432 4.09412 17.2055 3.91593 17.7804 4.03865C18.2862 4.1466 18.7449 4.41256 19.0909 4.79841C19.4842 5.23706 19.6617 5.90208 20.0166 7.23212L22.5514 16.7316C22.9063 18.0616 23.0837 18.7266 22.9615 19.304C22.854 19.8119 22.5892 20.2725 22.2049 20.62C21.7681 21.0149 21.1058 21.1931 19.7813 21.5495C18.4568 21.9059 17.7945 22.0841 17.2196 21.9614C16.7138 21.8534 16.2551 21.5874 15.9091 21.2016C15.5158 20.7629 15.3383 20.0979 14.9834 18.7679L12.4486 9.26842Z" stroke="#655D5B" stroke-width="1.5" stroke-linecap="round" stroke-linejoin="round"/>
<path d="M19 18.0023L19.0087 18" stroke="#655D5B" stroke-width="2" stroke-linecap="round" stroke-linejoin="round"/>
<path d="M13 9L20 7" stroke="#655D5B" stroke-width="1.5" stroke-linecap="round" stroke-linejoin="round"/>
</svg> 