<svg width="24" height="24" viewBox="0 0 24 24" fill="none" xmlns="http://www.w3.org/2000/svg">
<path d="M2.5 12C2.5 7.52166 2.5 5.28248 3.89124 3.89124C5.28249 2.5 7.52166 2.5 12 2.5C16.4783 2.5 18.7175 2.5 20.1088 3.89124C21.5 5.28248 21.5 7.52166 21.5 12C21.5 16.4783 21.5 18.7175 20.1088 20.1087C18.7175 21.5 16.4783 21.5 12 21.5C7.52166 21.5 5.28249 21.5 3.89124 20.1087C2.5 18.7175 2.5 16.4783 2.5 12Z" stroke="#231815" stroke-width="1.5"/>
<path d="M7 3V21" stroke="#231815" stroke-width="1.5" stroke-linecap="round"/>
<path d="M17.9756 12.4873H11M11 12.4873C11 11.9169 13.1552 10 13.1552 10M11 12.4873C11 13.0727 13.1552 14.9517 13.1552 14.9517" stroke="#231815" stroke-width="1.5" stroke-linecap="round"/>
</svg> 